<svg width="1440" height="890" viewBox="0 0 1440 890" fill="none" xmlns="http://www.w3.org/2000/svg">
<g clip-path="url(#clip0_98_1122)">
<g opacity="0.8">
<g clip-path="url(#clip1_98_1122)">
<rect width="1440" height="890" fill="#030303"/>
<g opacity="0.18" filter="url(#filter0_f_98_1122)">
<ellipse cx="1360" cy="660" rx="410" ry="211" fill="#6CDDAF"/>
</g>
<g opacity="0.18" filter="url(#filter1_f_98_1122)">
<ellipse cx="410" cy="211" rx="410" ry="211" transform="matrix(1 0 0 -1 -455 384)" fill="#6CDDAF"/>
</g>
<g opacity="0.1" filter="url(#filter2_f_98_1122)">
<ellipse cx="295" cy="760" rx="505" ry="211" fill="#6CDDAF"/>
</g>
<g opacity="0.1" filter="url(#filter3_f_98_1122)">
<ellipse cx="1360" cy="5" rx="505" ry="211" fill="#6CDDAF"/>
</g>
<rect x="0.25" y="0.25" width="79.5" height="79.5" stroke="white" stroke-opacity="0.02" stroke-width="0.5"/>
<rect x="0.25" y="80.25" width="79.5" height="79.5" stroke="white" stroke-opacity="0.02" stroke-width="0.5"/>
<rect x="0.25" y="160.25" width="79.5" height="79.5" stroke="white" stroke-opacity="0.02" stroke-width="0.5"/>
<rect x="0.25" y="240.25" width="79.5" height="79.5" stroke="white" stroke-opacity="0.02" stroke-width="0.5"/>
<rect x="0.25" y="320.25" width="79.5" height="79.5" stroke="white" stroke-opacity="0.02" stroke-width="0.5"/>
<rect x="0.25" y="400.25" width="79.5" height="79.5" stroke="white" stroke-opacity="0.02" stroke-width="0.5"/>
<rect x="0.25" y="480.25" width="79.5" height="79.5" stroke="white" stroke-opacity="0.02" stroke-width="0.5"/>
<rect x="0.25" y="560.25" width="79.5" height="79.5" stroke="white" stroke-opacity="0.02" stroke-width="0.5"/>
<rect x="0.25" y="640.25" width="79.5" height="79.5" stroke="white" stroke-opacity="0.02" stroke-width="0.5"/>
<rect x="0.25" y="720.25" width="79.5" height="79.5" stroke="white" stroke-opacity="0.02" stroke-width="0.5"/>
<rect x="80.25" y="0.25" width="79.5" height="79.5" stroke="white" stroke-opacity="0.02" stroke-width="0.5"/>
<rect x="80.25" y="80.25" width="79.5" height="79.5" stroke="white" stroke-opacity="0.02" stroke-width="0.5"/>
<rect x="80.25" y="160.25" width="79.5" height="79.5" stroke="white" stroke-opacity="0.02" stroke-width="0.5"/>
<rect x="80.25" y="240.25" width="79.5" height="79.5" stroke="white" stroke-opacity="0.02" stroke-width="0.5"/>
<rect x="80.25" y="320.25" width="79.5" height="79.5" stroke="white" stroke-opacity="0.02" stroke-width="0.5"/>
<rect x="80.25" y="400.25" width="79.5" height="79.5" stroke="white" stroke-opacity="0.02" stroke-width="0.5"/>
<rect x="80.25" y="480.25" width="79.5" height="79.5" stroke="white" stroke-opacity="0.02" stroke-width="0.5"/>
<rect x="80.25" y="560.25" width="79.5" height="79.5" stroke="white" stroke-opacity="0.02" stroke-width="0.5"/>
<rect x="80.25" y="640.25" width="79.5" height="79.5" stroke="white" stroke-opacity="0.02" stroke-width="0.5"/>
<rect x="80.25" y="720.25" width="79.5" height="79.5" stroke="white" stroke-opacity="0.02" stroke-width="0.5"/>
<rect x="160.25" y="0.25" width="79.5" height="79.5" stroke="white" stroke-opacity="0.02" stroke-width="0.5"/>
<rect x="160.25" y="80.25" width="79.5" height="79.5" stroke="white" stroke-opacity="0.02" stroke-width="0.5"/>
<rect x="160.25" y="160.25" width="79.5" height="79.5" stroke="white" stroke-opacity="0.02" stroke-width="0.5"/>
<rect x="160.25" y="240.25" width="79.5" height="79.5" stroke="white" stroke-opacity="0.02" stroke-width="0.5"/>
<rect x="160.25" y="320.25" width="79.5" height="79.5" stroke="white" stroke-opacity="0.02" stroke-width="0.5"/>
<rect x="160.25" y="400.25" width="79.5" height="79.5" stroke="white" stroke-opacity="0.02" stroke-width="0.5"/>
<rect x="160.25" y="480.25" width="79.5" height="79.5" stroke="white" stroke-opacity="0.02" stroke-width="0.5"/>
<rect x="160.25" y="560.25" width="79.5" height="79.5" stroke="white" stroke-opacity="0.02" stroke-width="0.5"/>
<rect x="160.25" y="640.25" width="79.5" height="79.5" stroke="white" stroke-opacity="0.02" stroke-width="0.5"/>
<rect x="160.25" y="720.25" width="79.5" height="79.5" stroke="white" stroke-opacity="0.02" stroke-width="0.5"/>
<rect x="240.25" y="0.25" width="79.5" height="79.5" stroke="white" stroke-opacity="0.02" stroke-width="0.5"/>
<rect x="240.25" y="80.25" width="79.5" height="79.5" stroke="white" stroke-opacity="0.02" stroke-width="0.5"/>
<rect x="240.25" y="160.25" width="79.5" height="79.5" stroke="white" stroke-opacity="0.02" stroke-width="0.5"/>
<rect x="240.25" y="240.25" width="79.5" height="79.5" stroke="white" stroke-opacity="0.02" stroke-width="0.5"/>
<rect x="240.25" y="320.25" width="79.5" height="79.5" stroke="white" stroke-opacity="0.02" stroke-width="0.5"/>
<rect x="240.25" y="400.25" width="79.5" height="79.5" stroke="white" stroke-opacity="0.02" stroke-width="0.5"/>
<rect x="240.25" y="480.25" width="79.5" height="79.5" stroke="white" stroke-opacity="0.02" stroke-width="0.5"/>
<rect x="240.25" y="560.25" width="79.5" height="79.5" stroke="white" stroke-opacity="0.02" stroke-width="0.5"/>
<rect x="240.25" y="640.25" width="79.5" height="79.5" stroke="white" stroke-opacity="0.02" stroke-width="0.5"/>
<rect x="240.25" y="720.25" width="79.5" height="79.5" stroke="white" stroke-opacity="0.02" stroke-width="0.5"/>
<rect x="320.25" y="0.25" width="79.5" height="79.5" stroke="white" stroke-opacity="0.02" stroke-width="0.5"/>
<rect x="320.25" y="80.25" width="79.5" height="79.5" stroke="white" stroke-opacity="0.02" stroke-width="0.5"/>
<rect x="320.25" y="160.25" width="79.5" height="79.5" stroke="white" stroke-opacity="0.02" stroke-width="0.5"/>
<rect x="320.25" y="240.25" width="79.5" height="79.5" stroke="white" stroke-opacity="0.02" stroke-width="0.5"/>
<rect x="320.25" y="320.25" width="79.5" height="79.5" stroke="white" stroke-opacity="0.02" stroke-width="0.5"/>
<rect x="320.25" y="400.25" width="79.5" height="79.5" stroke="white" stroke-opacity="0.02" stroke-width="0.5"/>
<rect x="320.25" y="480.25" width="79.5" height="79.5" stroke="white" stroke-opacity="0.02" stroke-width="0.5"/>
<rect x="320.25" y="560.25" width="79.5" height="79.5" stroke="white" stroke-opacity="0.02" stroke-width="0.5"/>
<rect x="320.25" y="640.25" width="79.5" height="79.5" stroke="white" stroke-opacity="0.02" stroke-width="0.5"/>
<rect x="320.25" y="720.25" width="79.5" height="79.5" stroke="white" stroke-opacity="0.02" stroke-width="0.5"/>
<rect x="400.25" y="0.25" width="79.5" height="79.5" stroke="white" stroke-opacity="0.02" stroke-width="0.5"/>
<rect x="400.25" y="80.25" width="79.5" height="79.5" stroke="white" stroke-opacity="0.02" stroke-width="0.5"/>
<rect x="400.25" y="160.25" width="79.5" height="79.5" stroke="white" stroke-opacity="0.02" stroke-width="0.5"/>
<rect x="400.25" y="240.25" width="79.5" height="79.5" stroke="white" stroke-opacity="0.02" stroke-width="0.5"/>
<rect x="400.25" y="320.25" width="79.5" height="79.5" stroke="white" stroke-opacity="0.02" stroke-width="0.5"/>
<rect x="400.25" y="400.25" width="79.5" height="79.5" stroke="white" stroke-opacity="0.02" stroke-width="0.5"/>
<rect x="400.25" y="480.25" width="79.5" height="79.5" stroke="white" stroke-opacity="0.02" stroke-width="0.5"/>
<rect x="400.25" y="560.25" width="79.5" height="79.5" stroke="white" stroke-opacity="0.02" stroke-width="0.5"/>
<rect x="400.25" y="640.25" width="79.5" height="79.5" stroke="white" stroke-opacity="0.02" stroke-width="0.5"/>
<rect x="400.25" y="720.25" width="79.5" height="79.5" stroke="white" stroke-opacity="0.02" stroke-width="0.5"/>
<rect x="480.25" y="0.25" width="79.5" height="79.5" stroke="white" stroke-opacity="0.02" stroke-width="0.5"/>
<rect x="480.25" y="80.25" width="79.5" height="79.5" stroke="white" stroke-opacity="0.02" stroke-width="0.5"/>
<rect x="480.25" y="160.25" width="79.5" height="79.5" stroke="white" stroke-opacity="0.02" stroke-width="0.5"/>
<rect x="480.25" y="240.25" width="79.5" height="79.5" stroke="white" stroke-opacity="0.02" stroke-width="0.5"/>
<rect x="480.25" y="320.25" width="79.5" height="79.5" stroke="white" stroke-opacity="0.02" stroke-width="0.5"/>
<rect x="480.25" y="400.25" width="79.5" height="79.5" stroke="white" stroke-opacity="0.02" stroke-width="0.5"/>
<rect x="480.25" y="480.25" width="79.5" height="79.5" stroke="white" stroke-opacity="0.02" stroke-width="0.5"/>
<rect x="480.25" y="560.25" width="79.5" height="79.5" stroke="white" stroke-opacity="0.02" stroke-width="0.5"/>
<rect x="480.25" y="640.25" width="79.5" height="79.5" stroke="white" stroke-opacity="0.02" stroke-width="0.5"/>
<rect x="480.25" y="720.25" width="79.5" height="79.5" stroke="white" stroke-opacity="0.02" stroke-width="0.5"/>
<rect x="560.25" y="0.25" width="79.5" height="79.5" stroke="white" stroke-opacity="0.02" stroke-width="0.5"/>
<rect x="560.25" y="80.25" width="79.5" height="79.5" stroke="white" stroke-opacity="0.02" stroke-width="0.5"/>
<rect x="560.25" y="160.25" width="79.5" height="79.5" stroke="white" stroke-opacity="0.02" stroke-width="0.5"/>
<rect x="560.25" y="240.25" width="79.5" height="79.5" stroke="white" stroke-opacity="0.02" stroke-width="0.5"/>
<rect x="560.25" y="320.25" width="79.5" height="79.5" stroke="white" stroke-opacity="0.02" stroke-width="0.5"/>
<rect x="560.25" y="400.25" width="79.5" height="79.5" stroke="white" stroke-opacity="0.02" stroke-width="0.5"/>
<rect x="560.25" y="480.25" width="79.5" height="79.5" stroke="white" stroke-opacity="0.02" stroke-width="0.5"/>
<rect x="560.25" y="560.25" width="79.5" height="79.5" stroke="white" stroke-opacity="0.02" stroke-width="0.5"/>
<rect x="560.25" y="640.25" width="79.5" height="79.5" stroke="white" stroke-opacity="0.02" stroke-width="0.5"/>
<rect x="560.25" y="720.25" width="79.5" height="79.5" stroke="white" stroke-opacity="0.02" stroke-width="0.5"/>
<rect x="640.25" y="0.25" width="79.5" height="79.5" stroke="white" stroke-opacity="0.02" stroke-width="0.5"/>
<rect x="640.25" y="80.25" width="79.5" height="79.5" stroke="white" stroke-opacity="0.02" stroke-width="0.5"/>
<rect x="640.25" y="160.25" width="79.5" height="79.5" stroke="white" stroke-opacity="0.02" stroke-width="0.5"/>
<rect x="640.25" y="240.25" width="79.5" height="79.5" stroke="white" stroke-opacity="0.02" stroke-width="0.5"/>
<rect x="640.25" y="320.25" width="79.5" height="79.5" stroke="white" stroke-opacity="0.02" stroke-width="0.5"/>
<rect x="640.25" y="400.25" width="79.5" height="79.5" stroke="white" stroke-opacity="0.02" stroke-width="0.5"/>
<rect x="640.25" y="480.25" width="79.5" height="79.5" stroke="white" stroke-opacity="0.02" stroke-width="0.5"/>
<rect x="640.25" y="560.25" width="79.5" height="79.5" stroke="white" stroke-opacity="0.02" stroke-width="0.5"/>
<rect x="640.25" y="640.25" width="79.5" height="79.5" stroke="white" stroke-opacity="0.02" stroke-width="0.5"/>
<rect x="640.25" y="720.25" width="79.5" height="79.5" stroke="white" stroke-opacity="0.02" stroke-width="0.5"/>
<rect x="720.25" y="0.25" width="79.5" height="79.5" stroke="white" stroke-opacity="0.02" stroke-width="0.5"/>
<rect x="720.25" y="80.25" width="79.5" height="79.5" stroke="white" stroke-opacity="0.02" stroke-width="0.5"/>
<rect x="720.25" y="160.25" width="79.5" height="79.5" stroke="white" stroke-opacity="0.02" stroke-width="0.5"/>
<rect x="720.25" y="240.25" width="79.5" height="79.5" stroke="white" stroke-opacity="0.02" stroke-width="0.5"/>
<rect x="720.25" y="320.25" width="79.5" height="79.5" stroke="white" stroke-opacity="0.02" stroke-width="0.5"/>
<rect x="720.25" y="400.25" width="79.5" height="79.5" stroke="white" stroke-opacity="0.02" stroke-width="0.5"/>
<rect x="720.25" y="480.25" width="79.5" height="79.5" stroke="white" stroke-opacity="0.02" stroke-width="0.5"/>
<rect x="720.25" y="560.25" width="79.5" height="79.5" stroke="white" stroke-opacity="0.02" stroke-width="0.5"/>
<rect x="720.25" y="640.25" width="79.5" height="79.5" stroke="white" stroke-opacity="0.02" stroke-width="0.5"/>
<rect x="720.25" y="720.25" width="79.5" height="79.5" stroke="white" stroke-opacity="0.02" stroke-width="0.5"/>
<rect x="800.25" y="0.25" width="79.5" height="79.5" stroke="white" stroke-opacity="0.02" stroke-width="0.5"/>
<rect x="800.25" y="80.25" width="79.5" height="79.5" stroke="white" stroke-opacity="0.02" stroke-width="0.5"/>
<rect x="800.25" y="160.25" width="79.5" height="79.5" stroke="white" stroke-opacity="0.02" stroke-width="0.5"/>
<rect x="800.25" y="240.25" width="79.5" height="79.5" stroke="white" stroke-opacity="0.02" stroke-width="0.5"/>
<rect x="800.25" y="320.25" width="79.5" height="79.5" stroke="white" stroke-opacity="0.02" stroke-width="0.5"/>
<rect x="800.25" y="400.25" width="79.5" height="79.5" stroke="white" stroke-opacity="0.02" stroke-width="0.5"/>
<rect x="800.25" y="480.25" width="79.5" height="79.5" stroke="white" stroke-opacity="0.02" stroke-width="0.5"/>
<rect x="800.25" y="560.25" width="79.5" height="79.5" stroke="white" stroke-opacity="0.02" stroke-width="0.5"/>
<rect x="800.25" y="640.25" width="79.5" height="79.5" stroke="white" stroke-opacity="0.02" stroke-width="0.5"/>
<rect x="800.25" y="720.25" width="79.5" height="79.5" stroke="white" stroke-opacity="0.02" stroke-width="0.5"/>
<rect x="880.25" y="0.25" width="79.5" height="79.5" stroke="white" stroke-opacity="0.02" stroke-width="0.5"/>
<rect x="880.25" y="80.25" width="79.5" height="79.5" stroke="white" stroke-opacity="0.02" stroke-width="0.5"/>
<rect x="880.25" y="160.25" width="79.5" height="79.5" stroke="white" stroke-opacity="0.02" stroke-width="0.5"/>
<rect x="880.25" y="240.25" width="79.5" height="79.5" stroke="white" stroke-opacity="0.02" stroke-width="0.5"/>
<rect x="880.25" y="320.25" width="79.5" height="79.5" stroke="white" stroke-opacity="0.02" stroke-width="0.5"/>
<rect x="880.25" y="400.25" width="79.5" height="79.5" stroke="white" stroke-opacity="0.02" stroke-width="0.5"/>
<rect x="880.25" y="480.25" width="79.5" height="79.5" stroke="white" stroke-opacity="0.02" stroke-width="0.5"/>
<rect x="880.25" y="560.25" width="79.5" height="79.5" stroke="white" stroke-opacity="0.02" stroke-width="0.5"/>
<rect x="880.25" y="640.25" width="79.5" height="79.5" stroke="white" stroke-opacity="0.02" stroke-width="0.5"/>
<rect x="880.25" y="720.25" width="79.5" height="79.5" stroke="white" stroke-opacity="0.02" stroke-width="0.5"/>
<rect x="960.25" y="0.25" width="79.5" height="79.5" stroke="white" stroke-opacity="0.02" stroke-width="0.5"/>
<rect x="960.25" y="80.25" width="79.5" height="79.5" stroke="white" stroke-opacity="0.02" stroke-width="0.5"/>
<rect x="960.25" y="160.25" width="79.5" height="79.5" stroke="white" stroke-opacity="0.02" stroke-width="0.5"/>
<rect x="960.25" y="240.25" width="79.5" height="79.5" stroke="white" stroke-opacity="0.02" stroke-width="0.5"/>
<rect x="960.25" y="320.25" width="79.5" height="79.5" stroke="white" stroke-opacity="0.02" stroke-width="0.5"/>
<rect x="960.25" y="400.25" width="79.5" height="79.5" stroke="white" stroke-opacity="0.02" stroke-width="0.5"/>
<rect x="960.25" y="480.25" width="79.5" height="79.5" stroke="white" stroke-opacity="0.02" stroke-width="0.5"/>
<rect x="960.25" y="560.25" width="79.5" height="79.5" stroke="white" stroke-opacity="0.02" stroke-width="0.5"/>
<rect x="960.25" y="640.25" width="79.5" height="79.5" stroke="white" stroke-opacity="0.02" stroke-width="0.5"/>
<rect x="960.25" y="720.25" width="79.5" height="79.5" stroke="white" stroke-opacity="0.02" stroke-width="0.5"/>
<rect x="1040.25" y="0.25" width="79.5" height="79.5" stroke="white" stroke-opacity="0.02" stroke-width="0.5"/>
<rect x="1040.25" y="80.25" width="79.5" height="79.5" stroke="white" stroke-opacity="0.02" stroke-width="0.5"/>
<rect x="1040.25" y="160.25" width="79.5" height="79.5" stroke="white" stroke-opacity="0.02" stroke-width="0.5"/>
<rect x="1040.25" y="240.25" width="79.5" height="79.5" stroke="white" stroke-opacity="0.02" stroke-width="0.5"/>
<rect x="1040.25" y="320.25" width="79.5" height="79.5" stroke="white" stroke-opacity="0.02" stroke-width="0.5"/>
<rect x="1040.25" y="400.25" width="79.5" height="79.5" stroke="white" stroke-opacity="0.02" stroke-width="0.5"/>
<rect x="1040.25" y="480.25" width="79.5" height="79.5" stroke="white" stroke-opacity="0.02" stroke-width="0.5"/>
<rect x="1040.25" y="560.25" width="79.5" height="79.5" stroke="white" stroke-opacity="0.02" stroke-width="0.5"/>
<rect x="1040.25" y="640.25" width="79.5" height="79.5" stroke="white" stroke-opacity="0.02" stroke-width="0.5"/>
<rect x="1040.25" y="720.25" width="79.5" height="79.5" stroke="white" stroke-opacity="0.02" stroke-width="0.5"/>
<rect x="1120.25" y="0.25" width="79.5" height="79.5" stroke="white" stroke-opacity="0.02" stroke-width="0.5"/>
<rect x="1120.25" y="80.25" width="79.5" height="79.5" stroke="white" stroke-opacity="0.02" stroke-width="0.5"/>
<rect x="1120.25" y="160.25" width="79.5" height="79.5" stroke="white" stroke-opacity="0.02" stroke-width="0.5"/>
<rect x="1120.25" y="240.25" width="79.5" height="79.5" stroke="white" stroke-opacity="0.02" stroke-width="0.5"/>
<rect x="1120.25" y="320.25" width="79.5" height="79.5" stroke="white" stroke-opacity="0.02" stroke-width="0.5"/>
<rect x="1120.25" y="400.25" width="79.5" height="79.5" stroke="white" stroke-opacity="0.02" stroke-width="0.5"/>
<rect x="1120.25" y="480.25" width="79.5" height="79.5" stroke="white" stroke-opacity="0.02" stroke-width="0.5"/>
<rect x="1120.25" y="560.25" width="79.5" height="79.5" stroke="white" stroke-opacity="0.02" stroke-width="0.5"/>
<rect x="1120.25" y="640.25" width="79.5" height="79.5" stroke="white" stroke-opacity="0.02" stroke-width="0.5"/>
<rect x="1120.25" y="720.25" width="79.5" height="79.5" stroke="white" stroke-opacity="0.02" stroke-width="0.5"/>
<rect x="1200.25" y="0.25" width="79.5" height="79.5" stroke="white" stroke-opacity="0.02" stroke-width="0.5"/>
<rect x="1200.25" y="80.25" width="79.5" height="79.5" stroke="white" stroke-opacity="0.02" stroke-width="0.5"/>
<rect x="1200.25" y="160.25" width="79.5" height="79.5" stroke="white" stroke-opacity="0.02" stroke-width="0.5"/>
<rect x="1200.25" y="240.25" width="79.5" height="79.5" stroke="white" stroke-opacity="0.02" stroke-width="0.5"/>
<rect x="1200.25" y="320.25" width="79.5" height="79.5" stroke="white" stroke-opacity="0.02" stroke-width="0.5"/>
<rect x="1200.25" y="400.25" width="79.5" height="79.5" stroke="white" stroke-opacity="0.02" stroke-width="0.5"/>
<rect x="1200.25" y="480.25" width="79.5" height="79.5" stroke="white" stroke-opacity="0.02" stroke-width="0.5"/>
<rect x="1200.25" y="560.25" width="79.5" height="79.5" stroke="white" stroke-opacity="0.02" stroke-width="0.5"/>
<rect x="1200.25" y="640.25" width="79.5" height="79.5" stroke="white" stroke-opacity="0.02" stroke-width="0.5"/>
<rect x="1200.25" y="720.25" width="79.5" height="79.5" stroke="white" stroke-opacity="0.02" stroke-width="0.5"/>
<rect x="1280.25" y="0.25" width="79.5" height="79.5" stroke="white" stroke-opacity="0.02" stroke-width="0.5"/>
<rect x="1280.25" y="80.25" width="79.5" height="79.5" stroke="white" stroke-opacity="0.02" stroke-width="0.5"/>
<rect x="1280.25" y="160.25" width="79.5" height="79.5" stroke="white" stroke-opacity="0.02" stroke-width="0.5"/>
<rect x="1280.25" y="240.25" width="79.5" height="79.5" stroke="white" stroke-opacity="0.02" stroke-width="0.5"/>
<rect x="1280.25" y="320.25" width="79.5" height="79.5" stroke="white" stroke-opacity="0.02" stroke-width="0.5"/>
<rect x="1280.25" y="400.25" width="79.5" height="79.5" stroke="white" stroke-opacity="0.02" stroke-width="0.5"/>
<rect x="1280.25" y="480.25" width="79.5" height="79.5" stroke="white" stroke-opacity="0.02" stroke-width="0.5"/>
<rect x="1280.25" y="560.25" width="79.5" height="79.5" stroke="white" stroke-opacity="0.02" stroke-width="0.5"/>
<rect x="1280.25" y="640.25" width="79.5" height="79.5" stroke="white" stroke-opacity="0.02" stroke-width="0.5"/>
<rect x="1280.25" y="720.25" width="79.5" height="79.5" stroke="white" stroke-opacity="0.02" stroke-width="0.5"/>
<rect x="1360.25" y="0.25" width="79.5" height="79.5" stroke="white" stroke-opacity="0.02" stroke-width="0.5"/>
<rect x="1360.25" y="80.25" width="79.5" height="79.5" stroke="white" stroke-opacity="0.02" stroke-width="0.5"/>
<rect x="1360.25" y="160.25" width="79.5" height="79.5" stroke="white" stroke-opacity="0.02" stroke-width="0.5"/>
<rect x="1360.25" y="240.25" width="79.5" height="79.5" stroke="white" stroke-opacity="0.02" stroke-width="0.5"/>
<rect x="1360.25" y="320.25" width="79.5" height="79.5" stroke="white" stroke-opacity="0.02" stroke-width="0.5"/>
<rect x="1360.25" y="400.25" width="79.5" height="79.5" stroke="white" stroke-opacity="0.02" stroke-width="0.5"/>
<rect x="1360.25" y="480.25" width="79.5" height="79.5" stroke="white" stroke-opacity="0.02" stroke-width="0.5"/>
<rect x="1360.25" y="560.25" width="79.5" height="79.5" stroke="white" stroke-opacity="0.02" stroke-width="0.5"/>
<rect x="1360.25" y="640.25" width="79.5" height="79.5" stroke="white" stroke-opacity="0.02" stroke-width="0.5"/>
<rect x="1360.25" y="720.25" width="79.5" height="79.5" stroke="white" stroke-opacity="0.02" stroke-width="0.5"/>
<g filter="url(#filter4_i_98_1122)">
<ellipse cx="715.5" cy="1114.5" rx="1084.5" ry="481.5" fill="url(#paint0_linear_98_1122)"/>
</g>
<path d="M715.5 633.5C1014.92 633.5 1285.98 687.385 1482.15 774.485C1580.24 818.036 1659.59 869.88 1714.41 927.424C1769.23 984.965 1799.5 1048.18 1799.5 1114.5C1799.5 1180.82 1769.23 1244.03 1714.41 1301.58C1659.59 1359.12 1580.24 1410.96 1482.15 1454.51C1285.98 1541.61 1014.92 1595.5 715.5 1595.5C416.077 1595.5 145.024 1541.61 -51.1543 1454.51C-149.244 1410.96 -228.593 1359.12 -283.412 1301.58C-338.229 1244.03 -368.5 1180.82 -368.5 1114.5C-368.5 1048.18 -338.229 984.965 -283.412 927.424C-228.593 869.88 -149.244 818.036 -51.1543 774.485C145.024 687.385 416.077 633.5 715.5 633.5Z" stroke="white" stroke-opacity="0.11"/>
<g opacity="0.31">
<path d="M160 237L160 170" stroke="url(#paint1_linear_98_1122)" stroke-linecap="round"/>
<path d="M160 241L160 308" stroke="url(#paint2_linear_98_1122)" stroke-linecap="round"/>
<path d="M158 240L91 240" stroke="url(#paint3_linear_98_1122)" stroke-linecap="round"/>
<path d="M163 240L230 240" stroke="url(#paint4_linear_98_1122)" stroke-linecap="round"/>
</g>
<circle cx="160" cy="240" r="3" fill="#B9B9B9"/>
<g opacity="0.31">
<path d="M400 398L400 331" stroke="url(#paint5_linear_98_1122)" stroke-linecap="round"/>
<path d="M400 402L400 469" stroke="url(#paint6_linear_98_1122)" stroke-linecap="round"/>
<path d="M398 401L331 401" stroke="url(#paint7_linear_98_1122)" stroke-linecap="round"/>
<path d="M403 401L470 401" stroke="url(#paint8_linear_98_1122)" stroke-linecap="round"/>
</g>
<circle cx="400" cy="401" r="3" fill="#B9B9B9"/>
<g opacity="0.31">
<path d="M1119 157L1119 90" stroke="url(#paint9_linear_98_1122)" stroke-linecap="round"/>
<path d="M1119 161L1119 228" stroke="url(#paint10_linear_98_1122)" stroke-linecap="round"/>
<path d="M1117 160L1050 160" stroke="url(#paint11_linear_98_1122)" stroke-linecap="round"/>
<path d="M1122 160L1189 160" stroke="url(#paint12_linear_98_1122)" stroke-linecap="round"/>
</g>
<circle cx="1119" cy="160" r="3" fill="#B9B9B9"/>
<g opacity="0.31">
<path d="M1279 478L1279 411" stroke="url(#paint13_linear_98_1122)" stroke-linecap="round"/>
<path d="M1279 482L1279 549" stroke="url(#paint14_linear_98_1122)" stroke-linecap="round"/>
<path d="M1277 481L1210 481" stroke="url(#paint15_linear_98_1122)" stroke-linecap="round"/>
<path d="M1282 481L1349 481" stroke="url(#paint16_linear_98_1122)" stroke-linecap="round"/>
</g>
<circle cx="1279" cy="481" r="3" fill="#B9B9B9"/>
</g>
</g>
<g opacity="0.29">
<g style="mix-blend-mode:plus-lighter" filter="url(#filter5_i_98_1122)">
<circle cx="240" cy="240" r="240" transform="matrix(0.303766 -0.952747 -0.952747 -0.303766 728.318 353.126)" fill="url(#paint17_radial_98_1122)"/>
</g>
<g style="mix-blend-mode:plus-lighter" filter="url(#filter6_i_98_1122)">
<circle cx="865.605" cy="428.933" r="240" transform="rotate(-72.3161 865.605 428.933)" fill="url(#paint18_radial_98_1122)"/>
</g>
</g>
</g>
<defs>
<filter id="filter0_f_98_1122" x="527.2" y="26.2" width="1665.6" height="1267.6" filterUnits="userSpaceOnUse" color-interpolation-filters="sRGB">
<feFlood flood-opacity="0" result="BackgroundImageFix"/>
<feBlend mode="normal" in="SourceGraphic" in2="BackgroundImageFix" result="shape"/>
<feGaussianBlur stdDeviation="211.4" result="effect1_foregroundBlur_98_1122"/>
</filter>
<filter id="filter1_f_98_1122" x="-877.8" y="-460.8" width="1665.6" height="1267.6" filterUnits="userSpaceOnUse" color-interpolation-filters="sRGB">
<feFlood flood-opacity="0" result="BackgroundImageFix"/>
<feBlend mode="normal" in="SourceGraphic" in2="BackgroundImageFix" result="shape"/>
<feGaussianBlur stdDeviation="211.4" result="effect1_foregroundBlur_98_1122"/>
</filter>
<filter id="filter2_f_98_1122" x="-632.8" y="126.2" width="1855.6" height="1267.6" filterUnits="userSpaceOnUse" color-interpolation-filters="sRGB">
<feFlood flood-opacity="0" result="BackgroundImageFix"/>
<feBlend mode="normal" in="SourceGraphic" in2="BackgroundImageFix" result="shape"/>
<feGaussianBlur stdDeviation="211.4" result="effect1_foregroundBlur_98_1122"/>
</filter>
<filter id="filter3_f_98_1122" x="432.2" y="-628.8" width="1855.6" height="1267.6" filterUnits="userSpaceOnUse" color-interpolation-filters="sRGB">
<feFlood flood-opacity="0" result="BackgroundImageFix"/>
<feBlend mode="normal" in="SourceGraphic" in2="BackgroundImageFix" result="shape"/>
<feGaussianBlur stdDeviation="211.4" result="effect1_foregroundBlur_98_1122"/>
</filter>
<filter id="filter4_i_98_1122" x="-369" y="633" width="2169" height="967" filterUnits="userSpaceOnUse" color-interpolation-filters="sRGB">
<feFlood flood-opacity="0" result="BackgroundImageFix"/>
<feBlend mode="normal" in="SourceGraphic" in2="BackgroundImageFix" result="shape"/>
<feColorMatrix in="SourceAlpha" type="matrix" values="0 0 0 0 0 0 0 0 0 0 0 0 0 0 0 0 0 0 127 0" result="hardAlpha"/>
<feOffset dy="4"/>
<feGaussianBlur stdDeviation="70.3"/>
<feComposite in2="hardAlpha" operator="arithmetic" k2="-1" k3="1"/>
<feColorMatrix type="matrix" values="0 0 0 0 0.423529 0 0 0 0 0.866667 0 0 0 0 0.686275 0 0 0 0.43 0"/>
<feBlend mode="normal" in2="shape" result="effect1_innerShadow_98_1122"/>
</filter>
<filter id="filter5_i_98_1122" x="332.499" y="-188.501" width="480.129" height="482.106" filterUnits="userSpaceOnUse" color-interpolation-filters="sRGB">
<feFlood flood-opacity="0" result="BackgroundImageFix"/>
<feBlend mode="normal" in="SourceGraphic" in2="BackgroundImageFix" result="shape"/>
<feColorMatrix in="SourceAlpha" type="matrix" values="0 0 0 0 0 0 0 0 0 0 0 0 0 0 0 0 0 0 127 0" result="hardAlpha"/>
<feOffset dy="1.97656"/>
<feGaussianBlur stdDeviation="15.8125"/>
<feComposite in2="hardAlpha" operator="arithmetic" k2="-1" k3="1"/>
<feColorMatrix type="matrix" values="0 0 0 0 0.913725 0 0 0 0 0.952941 0 0 0 0 1 0 0 0 1 0"/>
<feBlend mode="overlay" in2="shape" result="effect1_innerShadow_98_1122"/>
</filter>
<filter id="filter6_i_98_1122" x="625.54" y="188.868" width="480.129" height="482.106" filterUnits="userSpaceOnUse" color-interpolation-filters="sRGB">
<feFlood flood-opacity="0" result="BackgroundImageFix"/>
<feBlend mode="normal" in="SourceGraphic" in2="BackgroundImageFix" result="shape"/>
<feColorMatrix in="SourceAlpha" type="matrix" values="0 0 0 0 0 0 0 0 0 0 0 0 0 0 0 0 0 0 127 0" result="hardAlpha"/>
<feOffset dy="1.97656"/>
<feGaussianBlur stdDeviation="15.8125"/>
<feComposite in2="hardAlpha" operator="arithmetic" k2="-1" k3="1"/>
<feColorMatrix type="matrix" values="0 0 0 0 0.913725 0 0 0 0 0.952941 0 0 0 0 1 0 0 0 1 0"/>
<feBlend mode="overlay" in2="shape" result="effect1_innerShadow_98_1122"/>
</filter>
<linearGradient id="paint0_linear_98_1122" x1="715.5" y1="633" x2="715.5" y2="890" gradientUnits="userSpaceOnUse">
<stop stop-color="#0A0A0A"/>
<stop offset="1"/>
</linearGradient>
<linearGradient id="paint1_linear_98_1122" x1="160.498" y1="170" x2="160.498" y2="237" gradientUnits="userSpaceOnUse">
<stop stop-color="white" stop-opacity="0"/>
<stop offset="0.377244" stop-color="white" stop-opacity="0.254543"/>
<stop offset="0.674507" stop-color="white" stop-opacity="0.511256"/>
<stop offset="0.925475" stop-color="white" stop-opacity="0.705164"/>
<stop offset="1" stop-color="white"/>
</linearGradient>
<linearGradient id="paint2_linear_98_1122" x1="160.498" y1="308" x2="160.498" y2="241" gradientUnits="userSpaceOnUse">
<stop stop-color="white" stop-opacity="0"/>
<stop offset="0.377244" stop-color="white" stop-opacity="0.254543"/>
<stop offset="0.674507" stop-color="white" stop-opacity="0.511256"/>
<stop offset="0.925475" stop-color="white" stop-opacity="0.705164"/>
<stop offset="1" stop-color="white"/>
</linearGradient>
<linearGradient id="paint3_linear_98_1122" x1="91" y1="240.498" x2="158" y2="240.498" gradientUnits="userSpaceOnUse">
<stop stop-color="white" stop-opacity="0"/>
<stop offset="0.377244" stop-color="white" stop-opacity="0.254543"/>
<stop offset="0.674507" stop-color="white" stop-opacity="0.511256"/>
<stop offset="0.925475" stop-color="white" stop-opacity="0.705164"/>
<stop offset="1" stop-color="white"/>
</linearGradient>
<linearGradient id="paint4_linear_98_1122" x1="230" y1="240.498" x2="163" y2="240.498" gradientUnits="userSpaceOnUse">
<stop stop-color="white" stop-opacity="0"/>
<stop offset="0.377244" stop-color="white" stop-opacity="0.254543"/>
<stop offset="0.674507" stop-color="white" stop-opacity="0.511256"/>
<stop offset="0.925475" stop-color="white" stop-opacity="0.705164"/>
<stop offset="1" stop-color="white"/>
</linearGradient>
<linearGradient id="paint5_linear_98_1122" x1="400.498" y1="331" x2="400.498" y2="398" gradientUnits="userSpaceOnUse">
<stop stop-color="white" stop-opacity="0"/>
<stop offset="0.377244" stop-color="white" stop-opacity="0.254543"/>
<stop offset="0.674507" stop-color="white" stop-opacity="0.511256"/>
<stop offset="0.925475" stop-color="white" stop-opacity="0.705164"/>
<stop offset="1" stop-color="white"/>
</linearGradient>
<linearGradient id="paint6_linear_98_1122" x1="400.498" y1="469" x2="400.498" y2="402" gradientUnits="userSpaceOnUse">
<stop stop-color="white" stop-opacity="0"/>
<stop offset="0.377244" stop-color="white" stop-opacity="0.254543"/>
<stop offset="0.674507" stop-color="white" stop-opacity="0.511256"/>
<stop offset="0.925475" stop-color="white" stop-opacity="0.705164"/>
<stop offset="1" stop-color="white"/>
</linearGradient>
<linearGradient id="paint7_linear_98_1122" x1="331" y1="401.498" x2="398" y2="401.498" gradientUnits="userSpaceOnUse">
<stop stop-color="white" stop-opacity="0"/>
<stop offset="0.377244" stop-color="white" stop-opacity="0.254543"/>
<stop offset="0.674507" stop-color="white" stop-opacity="0.511256"/>
<stop offset="0.925475" stop-color="white" stop-opacity="0.705164"/>
<stop offset="1" stop-color="white"/>
</linearGradient>
<linearGradient id="paint8_linear_98_1122" x1="470" y1="401.498" x2="403" y2="401.498" gradientUnits="userSpaceOnUse">
<stop stop-color="white" stop-opacity="0"/>
<stop offset="0.377244" stop-color="white" stop-opacity="0.254543"/>
<stop offset="0.674507" stop-color="white" stop-opacity="0.511256"/>
<stop offset="0.925475" stop-color="white" stop-opacity="0.705164"/>
<stop offset="1" stop-color="white"/>
</linearGradient>
<linearGradient id="paint9_linear_98_1122" x1="1119.5" y1="90" x2="1119.5" y2="157" gradientUnits="userSpaceOnUse">
<stop stop-color="white" stop-opacity="0"/>
<stop offset="0.377244" stop-color="white" stop-opacity="0.254543"/>
<stop offset="0.674507" stop-color="white" stop-opacity="0.511256"/>
<stop offset="0.925475" stop-color="white" stop-opacity="0.705164"/>
<stop offset="1" stop-color="white"/>
</linearGradient>
<linearGradient id="paint10_linear_98_1122" x1="1119.5" y1="228" x2="1119.5" y2="161" gradientUnits="userSpaceOnUse">
<stop stop-color="white" stop-opacity="0"/>
<stop offset="0.377244" stop-color="white" stop-opacity="0.254543"/>
<stop offset="0.674507" stop-color="white" stop-opacity="0.511256"/>
<stop offset="0.925475" stop-color="white" stop-opacity="0.705164"/>
<stop offset="1" stop-color="white"/>
</linearGradient>
<linearGradient id="paint11_linear_98_1122" x1="1050" y1="160.498" x2="1117" y2="160.498" gradientUnits="userSpaceOnUse">
<stop stop-color="white" stop-opacity="0"/>
<stop offset="0.377244" stop-color="white" stop-opacity="0.254543"/>
<stop offset="0.674507" stop-color="white" stop-opacity="0.511256"/>
<stop offset="0.925475" stop-color="white" stop-opacity="0.705164"/>
<stop offset="1" stop-color="white"/>
</linearGradient>
<linearGradient id="paint12_linear_98_1122" x1="1189" y1="160.498" x2="1122" y2="160.498" gradientUnits="userSpaceOnUse">
<stop stop-color="white" stop-opacity="0"/>
<stop offset="0.377244" stop-color="white" stop-opacity="0.254543"/>
<stop offset="0.674507" stop-color="white" stop-opacity="0.511256"/>
<stop offset="0.925475" stop-color="white" stop-opacity="0.705164"/>
<stop offset="1" stop-color="white"/>
</linearGradient>
<linearGradient id="paint13_linear_98_1122" x1="1279.5" y1="411" x2="1279.5" y2="478" gradientUnits="userSpaceOnUse">
<stop stop-color="white" stop-opacity="0"/>
<stop offset="0.377244" stop-color="white" stop-opacity="0.254543"/>
<stop offset="0.674507" stop-color="white" stop-opacity="0.511256"/>
<stop offset="0.925475" stop-color="white" stop-opacity="0.705164"/>
<stop offset="1" stop-color="white"/>
</linearGradient>
<linearGradient id="paint14_linear_98_1122" x1="1279.5" y1="549" x2="1279.5" y2="482" gradientUnits="userSpaceOnUse">
<stop stop-color="white" stop-opacity="0"/>
<stop offset="0.377244" stop-color="white" stop-opacity="0.254543"/>
<stop offset="0.674507" stop-color="white" stop-opacity="0.511256"/>
<stop offset="0.925475" stop-color="white" stop-opacity="0.705164"/>
<stop offset="1" stop-color="white"/>
</linearGradient>
<linearGradient id="paint15_linear_98_1122" x1="1210" y1="481.498" x2="1277" y2="481.498" gradientUnits="userSpaceOnUse">
<stop stop-color="white" stop-opacity="0"/>
<stop offset="0.377244" stop-color="white" stop-opacity="0.254543"/>
<stop offset="0.674507" stop-color="white" stop-opacity="0.511256"/>
<stop offset="0.925475" stop-color="white" stop-opacity="0.705164"/>
<stop offset="1" stop-color="white"/>
</linearGradient>
<linearGradient id="paint16_linear_98_1122" x1="1349" y1="481.498" x2="1282" y2="481.498" gradientUnits="userSpaceOnUse">
<stop stop-color="white" stop-opacity="0"/>
<stop offset="0.377244" stop-color="white" stop-opacity="0.254543"/>
<stop offset="0.674507" stop-color="white" stop-opacity="0.511256"/>
<stop offset="0.925475" stop-color="white" stop-opacity="0.705164"/>
<stop offset="1" stop-color="white"/>
</linearGradient>
<radialGradient id="paint17_radial_98_1122" cx="0" cy="0" r="1" gradientUnits="userSpaceOnUse" gradientTransform="translate(240 -6.45629e-05) rotate(90) scale(366.049 408.358)">
<stop stop-color="#00FF99"/>
<stop offset="1"/>
</radialGradient>
<radialGradient id="paint18_radial_98_1122" cx="0" cy="0" r="1" gradientUnits="userSpaceOnUse" gradientTransform="translate(865.605 188.932) rotate(90) scale(366.049 408.358)">
<stop stop-color="#00FF99"/>
<stop offset="1"/>
</radialGradient>
<clipPath id="clip0_98_1122">
<rect width="1440" height="890" fill="white"/>
</clipPath>
<clipPath id="clip1_98_1122">
<rect width="1440" height="890" fill="white"/>
</clipPath>
</defs>
</svg>
