<svg width="1000" height="1000" viewBox="0 0 1000 1000" fill="none" xmlns="http://www.w3.org/2000/svg">
<rect width="1000" height="1000" fill="black"/>
<g clip-path="url(#clip0_40_829)">
<path d="M416.788 226.65C473.642 226.65 530.496 226.497 587.35 226.696C642.43 226.884 684.237 270.467 681.228 324.346C679.923 347.677 670.434 367.47 654.341 384.235C648.651 390.164 642.812 395.954 637.224 401.974C632.41 407.158 626.694 409.681 619.581 409.432C613.651 409.223 607.706 409.279 601.775 409.452C589.772 409.804 580.676 418.745 580.543 430.132C580.411 441.887 589.472 451.572 601.617 451.755C622.161 452.061 642.715 451.776 663.264 451.939C672.31 452.01 679.077 456.363 682.763 464.611C686.322 472.563 685.838 480.907 679.428 486.83C675.242 490.699 668.884 494.293 663.433 494.39C626.225 495.052 588.977 495.659 551.8 494.425C529.935 493.702 514.139 481.05 505.817 460.732C497.261 439.848 500.453 419.886 515.786 403.422C539.425 378.042 564.094 353.62 588.324 328.791C590.078 326.992 592.296 325.447 593.449 323.327C594.514 321.364 595.366 318.382 594.596 316.583C593.821 314.768 591.083 313.382 588.921 312.699C586.84 312.041 584.398 312.515 582.114 312.515C494.89 312.515 407.671 312.515 320.448 312.515C306.986 312.515 304.794 310.354 304.778 297.172C304.768 290.785 304.375 284.362 304.89 278.011C305.411 271.558 303.463 269.284 296.65 269.447C278.167 269.891 259.662 269.712 241.173 269.488C232.143 269.376 225.402 264.926 221.807 256.617C218.34 248.614 219.518 240.912 225.152 234.189C230.073 228.322 236.717 226.594 244.171 226.624C270.426 226.726 296.686 226.66 322.946 226.66C354.229 226.66 385.506 226.66 416.788 226.66V226.65Z" fill="url(#paint0_linear_40_829)"/>
<path d="M784.345 441.877C794.706 423.99 804.537 407.041 814.347 390.082C822.047 376.773 833.708 372.578 845.074 379.056C856.756 385.719 859.331 398.233 851.535 411.726C814.888 475.163 778.17 538.554 741.488 601.97C721.831 635.954 702.21 669.964 682.553 703.953C666.17 732.285 642.669 750.742 609.561 754.718C567.076 759.826 526.462 734.115 512.455 693.59C508.661 682.616 505.434 671.381 503.007 660.039C502.099 655.788 503.415 650.558 505.143 646.363C507.555 640.506 511.481 635.297 514.454 629.644C520.547 618.052 517.34 605.401 507.091 599.794C496.199 593.835 483.748 597.454 477.088 608.796C467.155 625.719 457.605 642.871 447.529 659.713C438.321 675.102 417.833 675.153 409.552 660.039C405.855 653.291 405.901 646.256 409.649 639.716C427.934 607.847 445.816 575.719 465.085 544.446C477.236 524.724 496.663 516.91 519.415 520.463C542.269 524.026 557.286 538.049 563.853 560.095C572.511 589.16 580.384 618.465 588.594 647.663C590.011 652.715 591.062 657.909 592.979 662.762C593.932 665.173 596.385 668.527 598.307 668.629C600.775 668.761 604.416 666.681 605.788 664.464C613.12 652.638 619.902 640.471 626.872 628.415C664.579 563.205 702.281 497.994 739.988 432.788C745.715 422.889 749.539 421.834 759.304 427.436C767.401 432.079 775.478 436.759 784.34 441.877H784.345Z" fill="url(#paint1_linear_40_829)"/>
<path d="M397.57 772.401C407.992 790.461 417.869 807.65 427.828 824.792C432.386 832.642 433.712 840.589 428.878 848.76C421.683 860.927 405.372 862.844 395.439 852.583C393.098 850.162 391.263 847.165 389.559 844.223C332.252 745.263 274.495 646.557 217.993 547.138C199.529 514.652 200.524 480.612 222.388 449.436C245.002 417.195 277.019 405.155 315.695 411.394C326.918 413.204 338.039 416.176 348.864 419.667C353.01 421.003 356.916 424.739 359.659 428.343C363.636 433.568 366.298 439.777 369.811 445.384C376.455 455.981 388.698 459.33 398.896 453.56C409.135 447.769 412.903 435.393 406.881 424.423C397.101 406.623 386.485 389.277 376.679 371.492C368.511 356.684 377.169 340.342 393.465 339.195C401.925 338.599 408.946 341.968 413.173 349.222C431.902 381.361 451.145 413.24 468.569 446.082C478.92 465.595 476.034 485.836 462.164 503.285C447.744 521.421 428.286 527.951 405.881 522.604C372.121 514.555 338.605 505.497 304.977 496.888C302.994 496.378 300.979 495.715 298.965 495.659C293.463 495.511 290.526 499.793 292.709 504.809C293.887 507.516 295.564 510.008 297.048 512.577C340.42 587.698 383.803 662.813 427.175 737.933C433.579 749.03 432.728 752.119 421.52 758.587C413.831 763.027 406.141 767.457 397.575 772.396L397.57 772.401Z" fill="url(#paint2_linear_40_829)"/>
</g>
<defs>
<linearGradient id="paint0_linear_40_829" x1="684.768" y1="467.946" x2="219.687" y2="243.728" gradientUnits="userSpaceOnUse">
<stop stop-color="#EAFBF5"/>
<stop offset="0.225962" stop-color="#6CDDAF"/>
<stop offset="0.480769" stop-color="#44AF84"/>
<stop offset="1" stop-color="#09261A"/>
</linearGradient>
<linearGradient id="paint1_linear_40_829" x1="425.301" y1="661.322" x2="856.113" y2="376.399" gradientUnits="userSpaceOnUse">
<stop stop-color="#EAFBF5"/>
<stop offset="0.225962" stop-color="#6CDDAF"/>
<stop offset="0.480769" stop-color="#44AF84"/>
<stop offset="1" stop-color="#09261A"/>
</linearGradient>
<linearGradient id="paint2_linear_40_829" x1="339.891" y1="339.128" x2="339.891" y2="859.219" gradientUnits="userSpaceOnUse">
<stop stop-color="#EAFBF5"/>
<stop offset="0.225962" stop-color="#6CDDAF"/>
<stop offset="0.480769" stop-color="#44AF84"/>
<stop offset="1" stop-color="#09261A"/>
</linearGradient>
<clipPath id="clip0_40_829">
<rect width="651" height="651" fill="white" transform="translate(205 201)"/>
</clipPath>
</defs>
</svg>
