<svg width="39" height="38" viewBox="0 0 39 38" fill="none" xmlns="http://www.w3.org/2000/svg">
<path d="M25.7607 30.7395H6.97792M25.7607 7.46442C29.2272 10.2913 31.2387 14.5272 31.2387 19.0002M31.2387 19.0002C31.2387 23.4732 29.2272 27.7091 25.7607 30.536M31.2387 19.0002L37.5 19.0002M6.97792 30.536C3.51146 27.7091 1.5 23.4732 1.5 19.0002C1.5 14.5272 3.51146 10.2913 6.97792 7.46442M10.1084 1H22.6303C22.6303 1 25.7607 1 25.7607 4.13047V33.8699C25.7607 33.8699 25.7607 37.0004 22.6303 37.0004H10.1084C10.1084 37.0004 6.97792 37.0004 6.97792 33.8699V4.13047C6.97792 4.13047 6.97792 1 10.1084 1ZM17.9346 9.60879L11.7675 16.7932C11.6914 16.9182 11.6914 17.0752 11.7675 17.2002C11.83 17.3432 11.9715 17.4355 12.1275 17.435H14.8041V23.6959L20.9711 16.5115C21.0472 16.3865 21.0472 16.2295 20.9711 16.1045C20.9087 15.9615 20.7672 15.8692 20.6111 15.8697H17.9346V9.60879ZM16.3693 33.4786C16.5854 33.4786 16.7606 33.6538 16.7606 33.8699C16.7606 34.086 16.5854 34.2612 16.3693 34.2612C16.1532 34.2612 15.978 34.086 15.978 33.8699C15.978 33.6538 16.1532 33.4786 16.3693 33.4786Z" stroke="#00FF99" stroke-width="2" stroke-linecap="round" stroke-linejoin="round"/>
</svg>
