<svg width="39" height="38" viewBox="0 0 39 38" fill="none" xmlns="http://www.w3.org/2000/svg">
<path d="M26.5491 37V24.4344C22.5307 24.0634 19.1128 21.3507 17.8403 17.5224L16.4922 13.4826C16.2727 12.8266 16.3539 12.1072 16.7139 11.5165C17.074 10.9257 17.6763 10.5238 18.3601 10.4179C19.5311 10.2736 20.6377 10.9872 20.989 12.113L22.298 16.037C23.0431 18.271 25.1329 19.779 27.4885 19.7826L34.3685 19.7826C36.098 19.7826 37.5 21.1842 37.5 22.913V37M17.0277 15.087L16.7145 16.037C15.9673 18.2775 13.8678 19.7871 11.5052 19.7826L4.63152 19.7826C2.90203 19.7826 1.5 21.1842 1.5 22.913V37M12.4572 37V24.4344C15.2313 24.178 17.7784 22.7946 19.5031 20.6075M18.7203 1V4.13043M24.8486 4.26504L22.6347 6.47826M12.5919 4.26504L14.8058 6.47826M3.06263 12.7391C3.06263 14.9002 4.81517 16.6522 6.97704 16.6522C9.1389 16.6522 10.8914 14.9002 10.8914 12.7391C10.8914 10.578 9.1389 8.82609 6.97704 8.82609C4.81517 8.82609 3.06263 10.578 3.06263 12.7391ZM28.1148 12.7391C28.1148 14.9002 29.8674 16.6522 32.0292 16.6522C34.1911 16.6522 35.9436 14.9002 35.9436 12.7391C35.9436 10.578 34.1911 8.82609 32.0292 8.82609C29.8674 8.82609 28.1148 10.578 28.1148 12.7391Z" stroke="#00FF99" stroke-width="2" stroke-linecap="round" stroke-linejoin="round"/>
</svg>
