<svg width="35" height="34" viewBox="0 0 35 34" fill="none" xmlns="http://www.w3.org/2000/svg">
<path fill-rule="evenodd" clip-rule="evenodd" d="M4.75001 19.9749C5.45418 19.9749 6.02501 20.5458 6.02501 21.2499V28.4749H13.25C13.9542 28.4749 14.525 29.0458 14.525 29.7499C14.525 30.4541 13.9542 31.0249 13.25 31.0249H4.75001C4.04585 31.0249 3.47501 30.4541 3.47501 29.7499V21.2499C3.47501 20.5458 4.04585 19.9749 4.75001 19.9749Z" fill="#00FF99"/>
<path fill-rule="evenodd" clip-rule="evenodd" d="M20.475 4.24992C20.475 3.54576 21.0458 2.97492 21.75 2.97492H30.25C30.9541 2.97492 31.525 3.54576 31.525 4.24992V12.7499C31.525 13.4541 30.9541 14.0249 30.25 14.0249C29.5458 14.0249 28.975 13.4541 28.975 12.7499V5.52492H21.75C21.0458 5.52492 20.475 4.95408 20.475 4.24992Z" fill="#00FF99"/>
<path fill-rule="evenodd" clip-rule="evenodd" d="M31.1515 3.34836C31.6495 3.84628 31.6495 4.65356 31.1515 5.15148L21.2349 15.0681C20.737 15.5661 19.9297 15.5661 19.4318 15.0681C18.9338 14.5702 18.9338 13.7629 19.4318 13.265L29.3484 3.34836C29.8463 2.85044 30.6536 2.85044 31.1515 3.34836Z" fill="#00FF99"/>
<path fill-rule="evenodd" clip-rule="evenodd" d="M16.2766 18.2234C16.7745 18.7213 16.7745 19.5286 16.2766 20.0265L5.65158 30.6515C5.15366 31.1494 4.34637 31.1494 3.84845 30.6515C3.35053 30.1536 3.35053 29.3463 3.84845 28.8484L14.4735 18.2234C14.9714 17.7254 15.7787 17.7254 16.2766 18.2234Z" fill="#00FF99"/>
<path d="M6.16665 4.24992C6.16665 5.03232 5.53238 5.66659 4.74998 5.66659C3.96758 5.66659 3.33331 5.03232 3.33331 4.24992C3.33331 3.46752 3.96758 2.83325 4.74998 2.83325C5.53238 2.83325 6.16665 3.46752 6.16665 4.24992Z" fill="#00FF99"/>
<path d="M31.6666 29.7499C31.6666 30.5323 31.0324 31.1666 30.25 31.1666C29.4676 31.1666 28.8333 30.5323 28.8333 29.7499C28.8333 28.9675 29.4676 28.3333 30.25 28.3333C31.0324 28.3333 31.6666 28.9675 31.6666 29.7499Z" fill="#00FF99"/>
</svg>
