<svg width="39" height="38" viewBox="0 0 39 38" fill="none" xmlns="http://www.w3.org/2000/svg">
<path d="M28.8913 11.1249V37.0005M8.54348 1.00049L19.5 10.8379L30.4565 1.00049M14.0217 29.7694V21.1442C14.0217 19.412 12.6202 18.0078 10.8913 18.0078C9.16241 18.0078 7.76087 19.412 7.76087 21.1442V29.7694M7.76087 25.0648H14.0217M4.63043 11.1249H34.3696C34.3696 11.1249 37.5 11.1249 37.5 14.2613V33.8641C37.5 33.8641 37.5 37.0005 34.3696 37.0005H4.63043C4.63043 37.0005 1.5 37.0005 1.5 33.8641V14.2613C1.5 14.2613 1.5 11.1249 4.63043 11.1249ZM18.7174 18.0078H21.0652C22.7941 18.0078 24.1957 19.412 24.1957 21.1442V26.633C24.1957 28.3652 22.7941 29.7694 21.0652 29.7694H18.7174V18.0078ZM31.6304 29.9263C31.6304 30.7924 32.3312 31.4945 33.1957 31.4945C34.0601 31.4945 34.7609 30.7924 34.7609 29.9263C34.7609 29.0602 34.0601 28.358 33.1957 28.358C32.3312 28.358 31.6304 29.0602 31.6304 29.9263ZM32.8043 24.1882C32.8043 24.4047 32.9795 24.5802 33.1957 24.5802C33.4118 24.5802 33.587 24.4047 33.587 24.1882C33.587 23.9716 33.4118 23.7961 33.1957 23.7961C32.9795 23.7961 32.8043 23.9716 32.8043 24.1882Z" stroke="#00FF99" stroke-width="2" stroke-linecap="round" stroke-linejoin="round"/>
</svg>
