<svg width="39" height="38" viewBox="0 0 39 38" fill="none" xmlns="http://www.w3.org/2000/svg">
<path d="M15.8046 1.00049V2.56571M4.67722 4.13405L6.26662 5.69927M26.9304 4.13092L25.341 5.69614M1.5 15.0874H3.0894M22.9347 8.86258C20.3064 5.94845 16.1234 4.93595 12.4228 6.31812C8.72219 7.70029 6.27312 11.1898 6.26821 15.0874C6.26716 16.1318 6.44668 17.1687 6.79907 18.1537M18.9834 29.1744V37.0005M23.7516 37.0005V29.1744M18.1887 15.0874L15.0099 29.1744M24.5463 15.0874L27.7251 29.1744M9.97628 19.7831H32.7572M7.32675 24.4787H35.4067M12.3985 15.4897C12.5387 15.2414 12.8046 15.0874 13.0931 15.0874H29.642C29.9305 15.0874 30.1963 15.2414 30.3365 15.4897L37.3998 28.0114C37.5367 28.2538 37.5331 28.5495 37.3903 28.7886C37.2475 29.0276 36.9869 29.1744 36.7053 29.1744H6.0298C5.74816 29.1744 5.48755 29.0276 5.34476 28.7886C5.20198 28.5495 5.19835 28.2538 5.33523 28.0114L12.3985 15.4897Z" stroke="#00FF99" stroke-width="2" stroke-linecap="round" stroke-linejoin="round"/>
</svg>
