<svg width="208" height="54" viewBox="0 0 208 54" fill="none" xmlns="http://www.w3.org/2000/svg">
<g filter="url(#filter0_g_37_985)">
<path d="M21.677 24.88C27.149 26.848 26.957 37.024 29.261 40H25.421C23.213 37.072 23.549 26.08 16.397 26.08H8.42904V40H4.82904V6.4H17.309C24.221 6.4 27.773 10.432 27.773 16.144C27.773 20.608 25.661 23.968 21.677 24.88ZM16.925 9.568H8.42904V22.912H16.925C21.725 22.912 24.125 20.272 24.125 16.24C24.125 12.208 21.725 9.568 16.925 9.568ZM42.2186 40.576C34.5866 40.576 29.5946 34.528 29.5946 27.472C29.5946 20.464 34.5866 14.416 42.2186 14.416C49.8506 14.416 54.8426 20.464 54.8426 27.472C54.8426 34.528 49.8506 40.576 42.2186 40.576ZM42.2186 37.408C47.3546 37.408 51.1946 33.376 51.1946 27.472C51.1946 21.568 47.3546 17.584 42.2186 17.584C37.0826 17.584 33.1946 21.568 33.1946 27.472C33.1946 33.376 37.0826 37.408 42.2186 37.408ZM65.7728 40.576C60.7328 40.576 56.6048 37.696 56.9408 32.32C57.1808 27.04 62.5088 25.168 68.6528 25.168C72.9248 25.168 75.2768 24.544 75.2768 22.576C75.2768 18.928 71.6288 17.248 67.9328 17.248C65.0048 17.248 61.2608 19.264 61.2128 23.488H57.5168C57.5648 17.44 63.1328 14.416 68.0768 14.416C73.6928 14.416 78.9248 17.2 78.9248 22.624V33.616C78.9248 35.872 79.3088 38.272 79.8368 40.048H76.1888C75.7568 38.704 75.4688 36.592 75.4208 34.288C74.1728 37.456 71.1968 40.576 65.7728 40.576ZM67.1648 37.84C73.1648 37.84 75.2768 32.464 75.2768 29.152V25.84C74.2208 27.088 72.0128 27.52 68.3648 27.52C64.8128 27.52 60.9248 28.624 60.6368 32.128C60.3008 36.208 63.7088 37.84 67.1648 37.84ZM93.709 14.416C98.077 14.416 102.061 17.104 103.309 21.232V4.48H106.957V40H103.309V33.808C102.061 37.936 98.077 40.576 93.709 40.576C86.173 40.576 81.613 34.528 81.613 27.472C81.613 20.464 86.173 14.416 93.709 14.416ZM94.189 37.408C99.373 37.408 103.213 33.376 103.213 27.472C103.213 21.568 99.373 17.584 94.189 17.584C89.101 17.584 85.261 21.568 85.261 27.472C85.261 33.376 89.101 37.408 94.189 37.408ZM138.974 14.416C145.31 14.416 148.478 18.448 148.478 24.736V40H144.83V25.312C144.83 20.224 142.19 17.584 138.11 17.584C134.654 17.584 131.87 20.944 131.822 24.544V40H128.222V25.312C128.222 20.224 125.534 17.584 121.502 17.584C117.854 17.584 115.214 21.328 115.214 24.4V40H111.566V14.992H115.214V19.168C115.982 17.152 119.006 14.416 122.318 14.416C126.734 14.416 130.046 16.48 131.15 20.128C131.966 17.392 135.662 14.416 138.974 14.416ZM160.511 40.576C155.471 40.576 151.343 37.696 151.679 32.32C151.919 27.04 157.247 25.168 163.391 25.168C167.663 25.168 170.015 24.544 170.015 22.576C170.015 18.928 166.367 17.248 162.671 17.248C159.743 17.248 155.999 19.264 155.951 23.488H152.255C152.303 17.44 157.871 14.416 162.815 14.416C168.431 14.416 173.663 17.2 173.663 22.624V33.616C173.663 35.872 174.047 38.272 174.575 40.048H170.927C170.495 38.704 170.207 36.592 170.159 34.288C168.911 37.456 165.935 40.576 160.511 40.576ZM161.903 37.84C167.903 37.84 170.015 32.464 170.015 29.152V25.84C168.959 27.088 166.751 27.52 163.103 27.52C159.551 27.52 155.663 28.624 155.375 32.128C155.039 36.208 158.447 37.84 161.903 37.84ZM191.129 40.576C186.761 40.576 182.777 37.84 181.529 33.76V49.6H177.881V14.992H181.529V21.136C182.777 17.056 186.761 14.416 191.129 14.416C198.665 14.416 203.225 20.464 203.225 27.472C203.225 34.528 198.665 40.576 191.129 40.576ZM190.601 17.584C185.465 17.584 181.625 21.568 181.625 27.472C181.625 33.376 185.465 37.408 190.601 37.408C195.737 37.408 199.577 33.376 199.577 27.472C199.577 21.568 195.737 17.584 190.601 17.584Z" fill="#00FF99"/>
</g>
<defs>
<filter id="filter0_g_37_985" x="0.829041" y="0.47998" width="206.396" height="53.1201" filterUnits="userSpaceOnUse" color-interpolation-filters="sRGB">
<feFlood flood-opacity="0" result="BackgroundImageFix"/>
<feBlend mode="normal" in="SourceGraphic" in2="BackgroundImageFix" result="shape"/>
<feTurbulence type="fractalNoise" baseFrequency="0.25 0.25" numOctaves="3" seed="431" />
<feDisplacementMap in="shape" scale="8" xChannelSelector="R" yChannelSelector="G" result="displacedImage" width="100%" height="100%" />
<feMerge result="effect1_texture_37_985">
<feMergeNode in="displacedImage"/>
</feMerge>
</filter>
</defs>
</svg>
