<svg width="496" height="523" viewBox="0 0 496 523" fill="none" xmlns="http://www.w3.org/2000/svg">
<path d="M50.8637 239.008C56.2598 240.584 61.6419 242.213 67.0574 243.727C75.2919 246.029 83.5237 248.355 91.8137 250.434C94.2018 251.034 94.8134 252.143 94.8329 254.416C95.0108 277.155 95.2749 299.895 95.5223 322.634C96.0978 376.014 96.6677 429.391 97.3155 482.771C97.3294 483.985 97.9938 485.428 98.8139 486.361C107.221 495.933 118.127 500.891 130.437 503.217C142.041 505.41 153.753 504.776 165.452 504.685C178.293 504.584 191.125 504.37 203.769 501.755C206.441 501.202 209.07 500.449 211.72 499.788C211.737 499.574 211.753 499.36 211.77 499.143C186.458 492.464 161.148 485.789 135.836 479.11C135.836 478.952 135.836 478.794 135.839 478.635C137.014 478.282 138.188 477.932 139.408 477.565C130.023 465.02 129.417 450.888 131.908 436.428C132.705 431.792 135.152 427.398 137.14 423.029C137.837 421.495 139.28 420.192 140.629 419.08C144.518 415.878 148.983 416.343 152.825 420.567C151.982 420.142 151.599 420.003 151.276 419.775C147.256 416.929 143.664 417.201 140.281 420.823C136.333 425.047 134.651 430.366 133.562 435.866C131.377 446.914 131.677 457.864 135.658 468.497C136.631 471.095 138.063 473.647 139.797 475.806C143.445 480.344 147.84 480.514 152.174 476.679C152.508 476.384 152.844 476.095 153.472 476.089C152.433 477.009 151.393 477.927 150.22 478.963C159.08 481.587 165.054 478.752 171.868 469.264C171.195 471.098 170.522 472.935 169.711 475.145C190.53 475.4 211.261 475.653 232.287 475.909C232.223 474.892 232.086 474.113 232.142 473.349C232.284 471.343 231.472 470.564 229.398 470.417C221.189 469.828 212.99 469.061 204.786 468.361C193.288 467.377 181.784 466.448 170.297 465.334C169.141 465.223 167.79 464.228 167.045 463.252C163.847 459.075 162.936 454.064 162.224 448.998C161.159 441.422 160.183 433.826 158.816 426.306C158.293 423.429 157.089 420.57 155.682 417.98C152.091 411.368 145.73 410.492 140.248 415.62C139.795 416.042 139.347 416.473 138.716 417.074C141.048 411.963 149.594 409.167 153.834 414.203C156.25 417.071 158.346 420.664 159.233 424.263C161.056 431.67 161.835 439.324 163.311 446.825C164.206 451.377 165.44 455.882 166.842 460.304C167.642 462.83 169.552 463.983 172.516 464.206C191.025 465.59 209.515 467.229 228.014 468.777C229.112 468.869 230.213 468.886 231.6 468.95C230.146 462.232 228.706 455.876 227.408 449.493C225.631 440.752 224.472 431.925 226.482 423.099C229.187 411.212 235.203 401.129 244.205 392.903C247.354 390.024 250.81 387.478 254.088 384.732C255.303 383.715 256.484 383.229 257.602 384.69C258.653 386.061 258.8 387.55 257.352 388.781C255.817 390.085 254.216 391.319 252.606 392.528C241.452 400.893 234.694 412.077 231.828 425.572C229.929 434.51 231.378 443.392 233.29 452.183C234.369 457.144 235.539 462.085 236.651 467.038C237.28 469.831 237.263 469.836 240.524 469.589C240.524 468.583 240.566 467.56 240.518 466.54C239.976 454.651 240.076 442.775 243.699 431.317C245.039 427.081 247.068 422.896 249.576 419.23C254.232 412.427 261.246 409.575 269.364 409.35C272.881 409.253 275.88 410.717 278.216 413.194C280.19 415.289 282.044 417.593 283.492 420.069C288.516 428.652 290.996 438.143 292.711 447.864C292.305 446.322 291.913 444.774 291.488 443.237C291.057 441.686 290.729 440.085 290.117 438.604C287.518 432.287 285.399 425.681 282.044 419.783C276.42 409.895 269.801 407.852 258.055 413.527C252.734 416.098 249.476 420.748 247.099 426.017C244.038 432.801 242.634 440.016 242.303 447.372C241.986 454.448 242.211 461.549 242.2 468.639C242.2 469.506 242.2 470.375 242.2 471.345H237.48C237.655 472.888 237.822 474.339 238 475.92H243.246C243.126 474.091 242.984 472.357 242.906 470.617C242.32 457.424 243.604 444.512 248.914 432.253C251.049 427.323 253.821 422.782 258.286 419.553C263.329 415.903 269.167 416.17 273.431 420.461C272.878 420.158 272.316 419.869 271.772 419.553C267.488 417.074 263.301 417.271 259.267 420.092C255.442 422.765 253.017 426.576 251.057 430.686C247.477 438.201 245.572 446.194 244.891 454.44C243.774 467.946 244.113 481.398 248.572 494.368C249.89 498.198 251.775 502.003 254.16 505.265C259.656 512.778 267.54 513.292 274.396 507.03C274.985 506.491 275.416 505.78 275.919 505.146C276.133 505.382 276.348 505.618 276.562 505.855C274.465 507.63 272.366 509.409 270.201 511.243C270.559 511.282 271.038 511.388 271.51 511.374C277.079 511.21 282.647 511.066 288.21 510.838C292.441 510.665 295.38 508.139 297.921 505.118C302.077 500.179 304.231 494.285 305.596 488.084C306.289 484.944 306.745 481.751 307.345 478.374C307.476 479.138 307.573 479.719 307.709 480.508C341.587 483.877 375.456 487.242 409.592 490.636C408.6 487.329 407.674 484.244 406.748 481.156C406.901 481.106 407.054 481.059 407.207 481.009C407.896 482.846 408.377 484.799 409.32 486.492C411.7 490.764 413.785 495.344 416.901 499.029C422.595 505.766 429.92 505.527 435.886 499.029C440.467 494.037 442.95 487.915 445.055 481.609C445.257 480.998 445.444 480.381 445.666 479.775C445.705 479.666 445.877 479.608 446.392 479.227C444.001 489.216 440.857 498.262 432.553 503.962C438.057 503.962 443.842 504.27 449.575 503.862C453.892 503.553 457.042 500.632 459.664 497.32C464.32 491.433 466.263 484.488 467.403 477.243C467.464 476.857 467.506 476.47 467.759 476.131C468.045 483.977 465.885 491.158 461.348 498.012C472.377 500.093 483.108 502.122 493.839 504.148C493.853 504.326 493.867 504.504 493.883 504.679C493.444 504.832 493.01 505.087 492.56 505.124C474.137 506.599 455.71 508.053 437.287 509.515C411.783 511.538 386.287 513.684 360.769 515.56C339.279 517.138 317.767 518.416 296.264 519.792C295.238 519.859 294.162 519.706 293.158 519.456C269.75 513.647 246.354 507.803 222.94 502.019C221.923 501.769 220.638 501.744 219.704 502.142C210.675 505.982 201.164 508.017 191.473 508.345C174.303 508.926 157.103 509.242 139.931 508.892C127.446 508.637 115.5 505.418 104.927 498.323C102.417 496.639 100.095 494.668 97.385 492.601C97.385 496.005 97.371 499.109 97.3877 502.217C97.41 506.088 97.41 509.959 97.5184 513.828C97.5601 515.29 97.1459 515.99 95.5863 516.201C80.5546 518.241 65.5507 520.481 50.4967 522.321C47.2218 522.721 43.7774 521.751 40.4135 521.39C39.1736 521.257 37.942 521.057 36.7466 520.531C38.7344 520.715 40.7471 520.748 42.7043 521.104C49.7183 522.38 56.51 520.695 63.3544 519.698C73.5739 518.208 83.7878 516.682 94.0044 515.159C94.7078 515.054 95.3972 514.845 95.9949 514.709C95.9949 509.512 95.7475 504.432 96.0616 499.385C96.4036 493.932 95.0191 489.549 91.5441 485.069C83.9129 475.231 80.1598 463.444 77.0517 451.549C74.9806 443.618 73.4071 435.558 71.5139 427.12C69.4594 427.12 67.0602 427.09 64.6638 427.131C63.3155 427.156 62.8179 426.592 62.8429 425.247C63.0375 415.659 63.1876 406.068 63.3516 396.48C63.5963 396.48 63.8437 396.48 64.0884 396.48V425.461H71.5834C71.2386 419.594 70.9022 413.836 70.5492 407.794C69.0841 407.596 67.5328 407.385 65.9816 407.177L65.9176 406.682C67.4689 406.449 69.0229 406.218 70.6548 405.973C70.8133 403.861 70.7716 401.816 71.2025 399.873C71.4082 398.948 72.4396 397.614 73.2153 397.527C74.7387 397.355 75.6311 398.509 75.595 400.184C75.556 402.027 75.5866 403.87 75.5866 405.968C77.0322 406.19 78.539 406.421 80.043 406.652C80.0403 406.796 80.0347 406.941 80.0319 407.085C79.5315 407.199 79.0367 407.385 78.5307 407.41C74.6859 407.61 75.2614 407.585 75.4254 411.118C75.6478 415.856 76.0731 420.584 76.4234 425.444H82.3449C82.0641 413.433 81.7833 401.477 81.497 389.159H69.6262C69.6262 388.99 69.6207 388.82 69.6179 388.651C73.2959 388.487 76.9739 388.353 80.6491 388.139C81.9835 388.062 82.5256 388.52 82.5784 389.888C83.0288 401.732 83.5153 413.575 84.0157 425.417C84.0741 426.815 83.4347 427.27 82.1281 427.223C80.5268 427.167 78.9227 427.209 76.7681 427.209C80.2988 446.516 84.4105 465.262 95.6196 481.787C95.6752 481.234 95.7864 480.683 95.7781 480.13C95.1109 436.995 94.4159 393.862 93.7653 350.726C93.2872 318.96 92.8479 287.191 92.4559 255.425C92.4337 253.669 91.9333 252.926 90.2069 252.462C77.2769 248.983 64.3803 245.375 51.4586 241.865C50.4161 241.582 49.2151 241.526 48.1504 241.715C33.6163 244.311 19.1017 247.012 4.55649 249.555C2.64938 249.889 2.2852 250.67 2.29354 252.39C2.4242 277.308 2.49926 302.226 2.57988 327.147C2.68552 359.889 2.8134 392.631 2.88291 425.369C2.93017 448.192 2.89125 471.015 2.56042 493.837C2.13229 455.237 1.67915 416.637 1.27882 378.037C0.928535 344.251 0.63941 310.467 0.305805 276.68C0.297465 275.894 0.105642 275.11 0 274.323C0 265.775 0 257.226 0 248.677C0.820113 248.371 1.61521 247.941 2.46312 247.782C13.3164 245.767 24.1836 243.822 35.0341 241.788C39.5183 240.945 43.972 239.934 48.4367 239C49.2429 239 50.0519 239 50.8581 239L50.8637 239.008ZM164.176 508.995C175.524 508.331 186.252 507.95 196.927 507C205.965 506.194 214.764 504.062 222.821 499.635C234.828 493.04 239.05 484.33 236.523 470.923C234.942 462.535 232.801 454.251 231.311 445.846C227.499 424.327 234.358 406.66 251.099 392.725C252.959 391.177 254.841 389.657 256.751 388.167C257.913 387.261 257.952 386.13 256.996 385.305C256.554 384.924 255.155 385.024 254.638 385.452C250.226 389.093 245.511 392.483 241.658 396.658C230.746 408.477 224.539 422.271 226.688 438.715C227.772 447.003 229.74 455.173 231.247 463.408C231.914 467.049 232.548 470.703 232.996 474.378C234.233 484.538 229.523 491.558 221.011 496.466C214.625 500.149 207.63 502.13 200.416 503.159C179.724 506.107 158.907 506.208 138.101 505.001C127.86 504.407 118.082 501.619 109.214 496.186C98.1856 489.43 91.2772 479.363 86.7513 467.605C78.4834 446.116 73.6462 423.958 74.7637 400.762C74.8221 399.54 74.7359 398.267 73.2208 398.364C72.7065 398.397 72.0421 399.651 71.8614 400.44C71.5973 401.599 71.6973 402.844 71.6584 404.053C70.9856 425.636 75.2808 446.358 82.6813 466.51C85.8728 475.197 90.1068 483.335 96.4953 490.163C106.47 500.824 119.211 505.977 133.375 507.45C143.781 508.531 154.295 508.536 164.173 508.995H164.176Z" fill="url(#paint0_linear_98_1219)"/>
<path d="M195.126 349.787C203.385 338.659 213.949 330.413 226.429 324.549C244.227 316.189 262.806 310.797 282.555 310.297C308.613 309.639 334.676 309.038 360.739 308.869C373.568 308.785 386.365 310.067 398.939 312.935C404.794 314.271 410.279 316.389 415.55 319.366C436.342 331.102 457.253 342.627 478.106 354.258C480.005 355.317 481.782 356.593 483.642 357.727C485.115 358.624 485.571 359.811 484.879 361.412C484.815 361.559 484.815 361.745 484.723 361.868C482.029 365.481 483.116 369.124 484.206 373.026C487.57 385.052 490.995 397.083 493.708 409.264C496.83 423.277 497.105 437.273 492.379 451.246C488.751 461.968 481.429 467.91 470.862 470.237C466.489 471.201 461.904 471.318 457.403 471.576C420.904 473.672 384.416 476.112 347.831 475.987C337.678 475.953 327.525 475.409 318.596 475.136C324.148 475.136 330.914 475.075 337.681 475.147C364.417 475.428 391.088 473.861 417.752 472.26C434.185 471.273 450.645 470.498 467.02 468.875C477.756 467.81 486.041 462.683 489.999 451.66C494.133 440.141 495.065 428.376 492.71 416.643C489.86 402.449 485.829 388.492 482.302 374.432C482.026 373.337 481.798 372.217 481.37 371.181C480.108 368.115 479.808 365.192 481.99 362.354C483.316 360.631 482.491 359.555 480.789 358.597C463.714 348.975 446.675 339.29 429.609 329.651C423.498 326.202 417.387 322.751 411.194 319.455C404.838 316.072 397.847 314.697 390.832 313.535C374.199 310.784 357.419 310.5 340.619 310.736C322.947 310.986 305.277 311.362 287.604 311.634C262.397 312.026 238.82 318.34 216.944 330.902C209.218 335.338 202.865 341.385 196.911 347.9C196.327 348.539 195.721 349.156 195.126 349.784V349.787Z" fill="url(#paint1_linear_98_1219)"/>
<path d="M203.452 459.123C204.019 456.86 204.775 454.626 205.106 452.333C205.454 449.921 205.537 447.447 205.473 445.007C205.412 442.695 204.773 440.388 204.795 438.081C204.948 421.718 205.178 405.351 205.47 388.99C205.501 387.342 205.996 385.674 206.452 384.068C206.88 382.559 207.542 381.114 208.273 379.188C203.371 380.477 198.951 381.631 194.536 382.801C184.948 385.338 175.371 387.925 165.76 390.385C164.267 390.766 163.67 391.491 163.292 392.884C161.401 399.831 162.936 406.615 163.92 413.483C165.613 425.286 167.006 437.134 168.501 448.967C168.601 449.751 168.515 450.557 168.104 451.416C167.459 447.458 166.767 443.506 166.177 439.54C164.573 428.779 162.95 418.021 161.473 407.241C161.115 404.626 161.081 401.924 161.276 399.287C161.462 396.738 162.135 394.226 162.655 391.372C160.948 391.725 159.277 392.066 157.609 392.411C160.662 391.399 163.57 390.099 166.717 389.307C177.35 386.636 187.887 383.568 198.448 380.611C201.929 379.635 206.168 379.427 208.609 377.245C210.978 375.127 211.486 370.931 212.807 367.643C216.618 358.152 220.427 348.661 224.236 339.17C224.425 339.24 224.617 339.309 224.806 339.379C220.466 351.749 216.126 364.119 211.678 376.795C212.662 376.592 213.424 376.484 214.158 376.281C230.705 371.67 247.246 367.026 263.807 362.463C265.425 362.018 266.009 361.212 266.52 359.636C269.392 350.784 268.347 341.571 269.27 332.547C269.359 331.683 269.406 330.819 269.72 329.963C270.487 340.229 272.369 350.523 268.169 361.206C290.292 355.031 311.362 347.071 334.145 346.293C326.875 339.295 318.885 333.484 310.489 328.281C302.144 323.107 293.537 318.349 284.896 313.532C286.347 314.038 287.843 314.447 289.244 315.061C306.016 322.428 321.154 332.272 334.512 344.829C335.307 345.576 336.505 346.313 337.534 346.338C365.284 347.055 393.04 347.666 420.793 348.325C429.089 348.522 437.384 348.803 445.672 349.506C409.792 348.947 373.913 348.386 337.775 347.822C338.065 348.567 338.245 349.031 338.443 349.545C338.215 349.512 338.015 349.542 337.965 349.467C336.527 347.424 334.451 347.925 332.468 348.075C319.141 349.081 306.102 351.551 293.328 355.526C285.627 357.921 277.854 360.078 270.081 362.232C268.497 362.671 267.666 363.366 267.226 364.992C266.292 368.468 265.111 371.876 263.493 375.175C264.135 371.487 264.78 367.799 265.486 363.741C264.513 363.944 263.768 364.058 263.048 364.255C246.318 368.81 229.579 373.346 212.876 378.004C211.867 378.284 210.839 379.404 210.324 380.397C208.039 384.793 207.778 389.56 207.683 394.457C207.394 409.528 206.766 424.594 206.371 439.663C206.313 441.889 206.805 444.129 207.033 446.366C207.291 448.915 206.849 451.233 205.551 453.55C204.614 455.223 204.431 457.316 203.908 459.223C203.758 459.189 203.605 459.159 203.455 459.125L203.452 459.123Z" fill="url(#paint2_linear_98_1219)"/>
<path d="M340.95 383.023C331.548 384.099 322.438 385.138 313.328 386.18C313.311 386.047 313.297 385.911 313.28 385.777C321.312 384.649 329.346 383.537 337.375 382.389C341.003 381.87 340.997 381.839 341.209 377.951C341.353 379.332 341.464 380.411 341.606 381.783C345.879 381.222 350.005 380.68 354.13 380.135C361.247 379.196 368.378 378.34 375.476 377.253C377.213 376.987 379.042 376.253 380.474 375.233C384.747 372.198 388.848 368.921 393.006 365.728C393.618 365.258 394.191 364.736 395.055 364.008C391.161 364.008 387.652 363.941 384.149 364.019C366.963 364.397 349.782 364.911 332.596 365.178C322.602 365.333 313.022 366.754 304.545 372.632C304.448 372.429 304.354 372.226 304.256 372.02C306.169 370.875 308.018 369.608 310.005 368.613C315.274 365.981 320.928 364.561 326.777 364.352C350.811 363.496 374.847 362.779 398.883 362.018C399.111 362.01 399.342 362.085 400.212 362.791C399.651 363.046 399.02 363.207 398.536 363.571C392.475 368.129 386.454 372.74 380.366 377.262C379.512 377.895 378.381 378.357 377.327 378.493C366.046 379.944 354.756 381.344 343.458 382.662C341.843 382.851 341.503 383.426 341.606 384.955C342.132 392.756 342.543 400.562 343.002 408.366C343.069 409.492 343.096 410.626 343.271 411.738C344.253 417.96 348.025 421.359 354.339 421.323C365.073 421.265 375.804 420.989 386.535 420.85C414.213 420.495 441.894 420.167 469.572 419.825C471.832 419.797 474.092 419.786 476.349 419.711C480.439 419.578 483.636 417.56 484.228 413.555C484.829 409.495 484.695 405.223 484.195 401.127C483.6 396.266 482.182 391.513 481.303 386.68C480.953 384.757 480.019 384.368 478.226 384.199C472.863 383.69 467.484 383.129 462.199 382.117C460.12 381.72 458.034 380.361 456.375 378.946C450.856 374.249 445.527 369.327 439.831 364.227H476.725C476.725 364.55 476.725 364.872 476.725 365.195H444.457C444.398 365.459 444.337 365.72 444.279 365.984C446.995 368.46 450.042 370.658 452.36 373.46C459.38 381.947 469.149 382.903 479.027 383.729C479.577 383.776 480.161 383.398 481.034 383.123C481.265 384.032 481.626 385.263 481.884 386.516C483.283 393.295 484.837 400.051 485.941 406.877C486.324 409.247 485.893 411.89 485.262 414.255C484.114 418.56 480.784 420.909 476.299 420.973C436.356 421.531 396.412 422.068 356.468 422.61C355.904 422.618 355.337 422.615 354.773 422.604C346.769 422.426 342.307 417.966 342.026 409.909C341.74 401.691 341.426 393.476 341.117 385.257C341.092 384.627 341.022 383.996 340.947 383.02L340.95 383.023Z" fill="url(#paint3_linear_98_1219)"/>
<g filter="url(#filter0_d_98_1219)">
<path d="M19.0823 324.618C21.9123 316.336 24.7452 308.052 27.756 299.239C24.1503 299.425 21.0672 299.586 17.6283 299.764C17.8118 298.739 17.9202 297.908 18.1148 297.096C20.0942 288.875 22.1598 280.677 24.0363 272.434C24.5367 270.235 25.3707 269.154 27.7866 268.968C31.2978 268.693 34.77 267.94 38.9151 267.286C34.9925 276.063 31.2894 284.351 27.3723 293.119C30.7028 292.93 33.4662 292.772 36.7522 292.585C30.853 303.547 25.1177 314.202 19.3825 324.855C19.2824 324.777 19.1823 324.699 19.0823 324.618Z" fill="#00FF99"/>
</g>
<path d="M49.179 252.604C50.5579 337.544 50.5663 422.512 49.2791 507.889C47.5499 497.806 47.4304 277.386 49.179 252.604Z" fill="url(#paint4_linear_98_1219)"/>
<path d="M485.343 449.643C482.86 445.491 479.166 444.448 475.254 444.232C469.541 443.915 463.809 443.709 458.09 443.823C438.733 444.204 419.37 444.521 400.029 445.296C385.359 445.885 370.711 447.141 356.446 450.963C353.424 451.772 350.38 452.778 347.631 454.226C345.42 455.39 343.561 457.283 341.687 459.006C340.091 460.473 338.798 462.266 337.189 463.717C334.965 465.72 332.374 466.615 329.232 466.543C320.937 466.354 312.633 466.479 304.334 466.479C304.334 466.032 304.334 465.584 304.334 465.137C312.432 465.137 320.534 464.992 328.629 465.203C332.19 465.295 334.862 463.994 337.222 461.599C337.447 461.368 337.72 461.162 337.884 460.896C343.249 452.163 352.132 449.565 361.306 447.522C375.217 444.423 389.365 443.07 403.565 442.77C423.807 442.342 444.062 442.328 464.309 442.356C469.035 442.361 473.8 443.012 478.471 443.809C482.352 444.471 484.417 446.455 485.348 449.643H485.343Z" fill="url(#paint5_linear_98_1219)"/>
<path d="M88.4138 310.678C77.7634 310.011 67.3216 309.358 56.4071 308.674V356.22C56.0291 356.22 55.651 356.22 55.2729 356.22C55.2729 351.018 55.2923 345.815 55.2673 340.613C55.2173 330.296 55.1784 319.98 55.0449 309.666C55.0199 307.813 55.4675 307.098 57.4747 307.232C67.6969 307.91 77.9247 308.491 88.1552 309.03C89.7037 309.111 90.2403 309.625 90.2319 311.187C90.1374 330.207 90.0624 349.228 90.0818 368.246C90.0818 370.564 89.1894 371.067 87.0738 371.039C79.1173 370.942 71.1608 371 63.2043 371C63.2043 370.667 63.2043 370.33 63.2043 369.997C71.0274 369.997 78.8504 369.98 86.6735 370.011C88.1497 370.016 89.0365 369.819 89.0198 367.935C88.8336 349.239 88.7307 330.544 88.6001 311.845C88.6001 311.537 88.5055 311.231 88.411 310.672L88.4138 310.678Z" fill="url(#paint6_linear_98_1219)"/>
<g filter="url(#filter1_d_98_1219)">
<path d="M265.503 384.504C267.674 383.054 269.759 382.826 271.98 384.34C273.706 385.519 275.552 386.533 277.407 387.503C280.401 389.068 281.927 388.829 283.011 386.778C284.671 383.637 284.259 380.172 281.504 379.246C278.063 378.087 274.34 377.448 270.707 377.276C267.896 377.142 265.035 378.07 262.556 378.468C265.338 376.597 271.424 375.661 276.709 376.706C278.811 377.123 280.303 377.073 281.927 375.244C284.348 372.512 287.735 373.249 289.464 376.481C292.21 381.617 289.825 390.871 284.916 394.126C281.532 396.369 277.899 394.982 277.34 390.891C277.04 388.698 276.006 387.611 274.29 386.73C273.934 386.547 273.59 386.327 273.27 386.086C270.949 384.338 268.547 382.984 265.503 384.504Z" fill="#00FF99"/>
</g>
<path d="M184.161 368.324C184.347 368.015 184.492 367.665 184.731 367.401C192.457 358.747 199.913 349.826 207.997 341.519C219.134 330.071 233.41 325.005 248.903 322.406C261.891 320.227 273.451 322.729 283.537 331.177C286.094 333.32 288.377 335.941 290.267 338.698C293.267 343.069 292.374 345.724 287.629 348.214C286.792 348.653 285.905 349 284.86 349.059C286.028 348.383 287.237 347.766 288.357 347.016C291.401 344.981 291.907 343.231 290.059 340.093C286.497 334.043 281.032 330.118 274.894 327.009C265.881 322.442 256.542 322.701 246.81 324.302C228.458 327.32 213.582 336.083 201.386 349.84C196.307 355.57 191.117 361.204 185.977 366.879C185.471 367.437 184.954 367.985 184.442 368.538L184.158 368.324H184.161Z" fill="url(#paint7_linear_98_1219)"/>
<path d="M449.822 395.482H395.817C395.447 392.972 395.114 390.71 394.783 388.445C394.889 388.423 394.994 388.403 395.1 388.381C395.531 390.335 395.964 392.289 396.409 394.298H448.001C447.362 389.626 446.767 385.291 446.136 380.68C430.292 380.344 414.585 380.01 398.881 379.677C398.881 379.474 398.878 379.271 398.875 379.068C403.707 379.068 408.539 379.057 413.37 379.068C424.018 379.099 434.668 379.168 445.316 379.146C446.898 379.143 447.573 379.56 447.773 381.233C448.349 385.997 449.124 390.738 449.819 395.482H449.822Z" fill="url(#paint8_linear_98_1219)"/>
<path d="M469.477 360.178C429.645 360.07 389.829 359.114 350.03 357.441C350.035 357.182 350.041 356.924 350.046 356.665C389.862 357.532 429.681 358.402 469.497 359.269C469.491 359.572 469.483 359.875 469.477 360.178Z" fill="url(#paint9_linear_98_1219)"/>
<path d="M255.533 439.226C256.554 436.239 258.071 433.571 260.732 431.742C263.387 429.919 266.565 429.941 268.911 432.426C271.024 434.663 272.939 437.309 274.179 440.11C278.416 449.668 279.278 459.859 278.9 470.17C278.622 477.69 277.582 485.125 274.607 492.109C273.515 494.671 272.105 497.209 270.348 499.354C266.648 503.873 261.972 503.681 258.316 499.132C257.532 498.156 256.912 497.047 256.526 495.783C257.432 496.917 258.266 498.123 259.261 499.173C262.611 502.709 266.234 502.636 269.408 498.915C272.639 495.127 274.146 490.516 275.213 485.775C278.28 472.179 278.288 458.575 274.554 445.121C273.581 441.611 271.991 438.12 269.981 435.085C266.698 430.133 262.208 430.202 258.491 434.852C257.396 436.222 256.512 437.765 255.531 439.226H255.533Z" fill="url(#paint10_linear_98_1219)"/>
<path d="M454.432 391.027C453.656 393.284 452.967 395.574 452.046 397.769C451.829 398.289 450.843 398.781 450.209 398.786C431.905 398.903 413.598 398.967 395.292 398.989C394.574 398.989 393.521 398.717 393.196 398.208C390.58 394.104 388.103 389.91 386.056 385.446C388.361 388.893 390.719 392.305 392.945 395.802C393.804 397.152 394.722 397.761 396.42 397.758C414.001 397.705 431.582 397.73 449.163 397.808C450.62 397.814 451.365 397.425 451.835 396.057C452.441 394.287 453.239 392.581 453.953 390.846C454.112 390.908 454.273 390.966 454.432 391.027Z" fill="url(#paint11_linear_98_1219)"/>
<path d="M139.931 430.908C142.127 425.28 146.506 424.441 149.719 428.563C152.952 432.706 154.051 437.678 154.69 442.756C155.619 450.107 155.363 457.402 153.094 464.509C152.441 466.56 151.551 468.602 150.395 470.412C147.189 475.428 142.897 475.125 140.284 469.647C140.743 470.164 141.193 470.69 141.657 471.198C144.076 473.844 146.67 473.844 148.691 470.873C149.936 469.042 150.954 466.935 151.554 464.806C154.326 454.973 154.312 445.077 151.59 435.233C151.062 433.318 150.225 431.422 149.18 429.733C146.867 425.986 144.065 425.872 141.26 429.219C140.951 429.588 140.662 429.975 139.928 430.906L139.931 430.908Z" fill="url(#paint12_linear_98_1219)"/>
<path d="M67.8275 275.749C69.3621 275.98 70.691 276.183 71.9948 276.38C71.9476 279.39 70.3379 279.768 64.2357 278.178C64.9001 274.054 65.5729 269.899 66.2763 265.544C68.8339 265.769 71.1247 265.969 73.6184 266.186C73.4488 267.173 73.3181 267.937 73.1458 268.943C72.1894 268.876 71.3137 268.679 70.4853 268.804C69.8653 268.898 69.3121 269.41 68.7283 269.735C69.2064 270.107 69.6346 270.622 70.1767 270.816C70.83 271.05 71.5806 271.013 72.4897 271.116C72.3785 271.997 72.2812 272.759 72.22 273.226C71.0357 274.901 67.847 271.819 67.8275 275.749Z" fill="url(#paint13_linear_98_1219)"/>
<path d="M163.041 385.638C158.229 387.878 153.422 390.124 148.605 392.355C146.264 393.439 143.981 394.712 141.546 395.518C134.799 397.75 132.33 402.919 131.782 409.375C131.265 415.47 130.976 421.584 130.487 427.687C130.053 419.925 129.381 412.132 131.176 404.448C132.261 399.806 134.98 396.458 139.639 394.637C146.695 391.883 153.634 388.834 160.628 385.922C161.348 385.621 162.099 385.394 162.836 385.135C162.905 385.305 162.975 385.471 163.041 385.641V385.638Z" fill="url(#paint14_linear_98_1219)"/>
<path d="M74.5358 266.408C75.1307 266.367 75.4365 266.306 75.734 266.336C76.2844 266.389 76.8293 266.495 77.5938 266.611C77.844 269.321 78.0887 272.008 78.3361 274.693C78.5001 274.732 78.6613 274.768 78.8254 274.807C79.5927 272.951 80.5156 271.141 81.0828 269.226C81.7416 267.006 82.9927 266.467 85.3446 267.401C83.5292 271.289 81.7833 275.218 79.8095 279.029C79.5537 279.521 78.1137 279.557 77.2407 279.507C76.7987 279.482 76.0815 278.837 76.0203 278.398C75.4643 274.451 75.025 270.488 74.5385 266.411L74.5358 266.408Z" fill="url(#paint15_linear_98_1219)"/>
<path d="M413.343 479.316C414.738 482.376 415.917 485.561 417.577 488.474C422.164 496.519 427.701 496.489 432.172 488.343C434.015 484.988 435.274 481.312 436.703 477.999C437.201 482.576 432.831 492.064 428.825 494.763C425.658 496.894 422.15 496.441 419.272 493.329C415.644 489.407 414.115 484.53 413.345 479.316H413.343Z" fill="url(#paint16_linear_98_1219)"/>
<path d="M261.922 356.065C247.985 360.223 234.049 364.383 220.116 368.541C219.999 368.149 219.882 367.757 219.762 367.365C233.704 363.207 247.646 359.05 261.588 354.892C261.699 355.284 261.811 355.673 261.922 356.065Z" fill="url(#paint17_linear_98_1219)"/>
<path d="M162.291 381.686C158.137 380.852 153.973 380.069 149.836 379.165C148.074 378.782 147.484 377.392 147.429 375.705C147.301 371.728 150.1 368.143 154.064 368.288C158.846 368.463 163.614 369.36 168.351 370.164C169.007 370.275 169.838 371.6 169.922 372.431C170.141 374.646 169.997 376.898 169.452 379.16C169.452 377.481 169.46 375.805 169.452 374.127C169.438 372.101 168.64 370.836 166.411 370.631C162.496 370.266 158.599 369.497 154.682 369.41C151.265 369.335 149.183 371.514 148.696 374.585C148.368 376.65 148.944 378.043 151.129 378.529C154.885 379.368 158.635 380.233 162.388 381.086C162.357 381.286 162.327 381.489 162.293 381.689L162.291 381.686Z" fill="url(#paint18_linear_98_1219)"/>
<path d="M77.3297 326.844C80.738 338.517 84.1491 350.19 87.5575 361.862C87.1682 361.976 86.7818 362.09 86.3926 362.204C82.9426 350.543 79.4953 338.881 76.0453 327.22C76.4734 327.095 76.9015 326.967 77.3297 326.842V326.844Z" fill="url(#paint19_linear_98_1219)"/>
<path d="M85.7477 312.854C82.7369 316.506 79.74 320.169 76.6931 323.793C76.3734 324.171 75.759 324.557 75.3058 324.529C69.8764 324.201 64.4525 323.793 59.0259 323.407C59.037 323.201 59.0481 322.995 59.0592 322.79C63.827 322.79 68.5976 322.873 73.3626 322.726C74.4774 322.692 75.8312 322.145 76.6208 321.369C79.5787 318.457 82.3477 315.355 85.1861 312.323C85.3724 312.498 85.5614 312.676 85.7477 312.854Z" fill="url(#paint20_linear_98_1219)"/>
<path d="M81.6416 365.886C80.3211 361.684 79.1646 357.855 77.8635 354.075C77.7079 353.622 76.7821 353.219 76.1844 353.174C74.5108 353.052 72.8233 353.133 71.1331 352.749C73.0235 352.649 74.9167 352.485 76.8071 352.485C77.3353 352.485 78.2027 352.86 78.3417 353.261C79.829 357.557 81.2024 361.896 82.7453 366.648C79.8151 366.648 77.3492 366.659 74.8833 366.648C71.0969 366.626 67.3105 366.623 63.5241 366.523C62.7957 366.503 62.0757 366.078 61.4474 365.734C68.1112 366.234 74.6887 365.597 81.6388 365.892L81.6416 365.886Z" fill="url(#paint21_linear_98_1219)"/>
<path d="M205.02 372.946C196.427 375.377 187.831 377.809 179.238 380.244C179.127 379.857 179.018 379.471 178.907 379.082C187.497 376.636 196.088 374.188 204.678 371.742L205.02 372.946Z" fill="url(#paint22_linear_98_1219)"/>
<path d="M260.599 391.313C260.081 397.897 258.602 403.606 255.692 409.308C254.858 405.354 257.604 395.143 260.599 391.313Z" fill="url(#paint23_linear_98_1219)"/>
<path d="M70.4741 362.632C69.6512 359.817 67.5606 360.442 65.4951 360.617C65.5757 361.515 65.6452 362.293 65.7175 363.071C65.5757 363.102 65.4367 363.135 65.2949 363.166C64.6722 360.737 64.0522 358.308 63.4351 355.901H75.0834C74.5858 356.562 73.9297 357.113 74.027 357.352C74.4746 358.438 75.1363 359.439 75.7145 360.456C75.57 360.678 75.1974 361.256 75.0779 361.443C73.6573 361.042 72.1866 360.628 70.4741 360.145V362.632ZM64.6972 356.765C65.1198 360.273 65.2254 360.342 68.8645 359.544C68.7422 356.265 68.631 356.19 64.6972 356.765ZM69.5122 356.799C69.882 360.114 70.2712 360.367 73.5461 359.428C73.2792 357.314 71.9346 356.437 69.5122 356.799Z" fill="url(#paint24_linear_98_1219)"/>
<path d="M80.4573 350.804H62.7317C62.7317 350.584 62.7317 350.362 62.7317 350.143H79.4175C78.1165 345.304 76.9905 340.882 75.6811 336.513C75.5171 335.963 74.4218 335.374 73.7407 335.352C70.1488 335.238 66.5487 335.299 62.9541 335.299V334.651C66.8184 334.651 70.6854 334.601 74.5469 334.704C75.1557 334.721 76.1343 335.31 76.2872 335.827C77.7272 340.679 79.0255 345.574 80.46 350.804H80.4573Z" fill="url(#paint25_linear_98_1219)"/>
<path d="M291.065 392.45C287.529 398.481 283.993 404.512 280.459 410.542C280.106 410.337 279.753 410.134 279.4 409.928C282.911 403.883 286.425 397.839 289.936 391.794C290.312 392.014 290.69 392.23 291.065 392.45Z" fill="url(#paint26_linear_98_1219)"/>
<path d="M83.1371 293.013C83.5208 293.964 83.9016 294.917 84.3965 296.14C84.719 295.031 84.9636 294.195 85.2083 293.361C85.4668 293.408 85.7254 293.455 85.9839 293.5C85.6864 295.637 85.3862 297.774 85.0887 299.914C84.8246 299.953 84.5577 299.989 84.2936 300.028C83.8683 298.955 83.4429 297.883 82.9509 296.64C82.62 297.696 82.3281 298.616 82.039 299.536C81.7944 299.481 81.5525 299.422 81.3079 299.367C81.6081 297.285 81.9084 295.206 82.2058 293.125C82.5172 293.088 82.8258 293.052 83.1371 293.016V293.013Z" fill="url(#paint27_linear_98_1219)"/>
<path d="M81.3747 282.833C81.8028 283.803 82.2282 284.776 82.7175 285.888C83.0427 284.934 83.3319 284.089 83.621 283.245C83.8517 283.292 84.0852 283.339 84.316 283.389C84.0102 285.518 83.7072 287.647 83.4014 289.776C83.1372 289.803 82.8731 289.831 82.609 289.859C82.2059 288.822 81.8028 287.789 81.2635 286.41C80.941 287.588 80.6964 288.486 80.4517 289.387C80.1709 289.342 79.8902 289.295 79.6094 289.25C79.9207 287.152 80.2349 285.057 80.5462 282.958C80.8215 282.919 81.0995 282.878 81.3747 282.839V282.833Z" fill="url(#paint28_linear_98_1219)"/>
<path d="M71.7029 289.025C71.2136 287.689 70.9412 286.938 70.5575 285.888C70.0877 286.799 69.718 287.519 69.3482 288.236C69.1258 288.183 68.9034 288.13 68.6782 288.078C68.9951 286.113 69.2537 284.134 69.6985 282.2C69.7597 281.938 70.9189 281.608 71.2859 281.816C71.8892 282.155 72.6759 282.928 72.6481 283.481C72.5675 285.121 72.1255 286.741 71.7029 289.028V289.025Z" fill="url(#paint29_linear_98_1219)"/>
<path d="M87.2767 288.742C87.2378 288.381 87.21 288.017 87.1544 287.655C87.1099 287.366 87.0349 287.083 86.7958 285.991C87.7882 286.746 88.6306 287.169 88.5806 287.386C88.3498 288.383 87.8689 289.323 87.4769 290.282C86.6123 289.848 85.4502 289.634 84.947 288.939C83.9573 287.575 84.6357 284.684 86.0396 284.02C86.8041 283.659 87.8355 283.864 88.8169 283.809C87.5631 285.09 86.5289 285.888 85.8923 286.927C85.6337 287.35 86.2425 288.303 86.4566 289.014C86.729 288.923 87.0015 288.834 87.2767 288.742Z" fill="url(#paint30_linear_98_1219)"/>
<path d="M81.9613 295.759C80.6213 297.243 79.7873 299.005 78.6558 299.219C76.8961 299.553 76.4874 297.758 76.5124 296.207C76.5458 293.989 77.8135 292.152 79.1312 292.686C80.1237 293.086 80.752 294.386 81.9585 295.759H81.9613ZM77.7829 297.88C78.0692 297.916 78.3584 297.949 78.6447 297.985C80.2599 296.312 80.3239 295.22 78.3556 293.394C78.1304 295.167 77.958 296.524 77.7857 297.88H77.7829Z" fill="url(#paint31_linear_98_1219)"/>
<path d="M62.3453 283.414C62.7623 282.608 63.1765 281.805 63.5935 280.999C63.8437 281.055 64.0911 281.113 64.3413 281.169C64.0133 283.25 63.6852 285.332 63.3572 287.416C63.1042 287.4 62.8484 287.386 62.5955 287.369C62.4982 286.496 62.4009 285.626 62.3036 284.754C62.1229 284.67 61.9449 284.587 61.7642 284.506C61.261 285.379 60.7606 286.252 60.2574 287.124C60.0489 287.097 59.8404 287.069 59.6292 287.041C59.9322 284.915 60.2352 282.786 60.5354 280.66C60.7801 280.671 61.0247 280.679 61.2694 280.691C61.4084 281.541 61.5474 282.391 61.6864 283.242C61.906 283.3 62.1229 283.359 62.3425 283.417L62.3453 283.414Z" fill="url(#paint32_linear_98_1219)"/>
<path d="M69.8513 298.274C69.5233 297.719 69.1925 297.16 68.7532 296.418C68.1027 296.99 67.5217 297.505 66.9406 298.016C66.7432 297.919 66.5459 297.821 66.3457 297.721C67.063 295.84 67.7524 293.95 68.5253 292.094C68.6337 291.832 69.1869 291.563 69.4705 291.618C69.7513 291.671 70.1349 292.119 70.1599 292.419C70.3184 294.306 70.3907 296.201 70.4907 298.094C70.2767 298.155 70.0626 298.213 69.8513 298.274Z" fill="url(#paint33_linear_98_1219)"/>
<path d="M67.4189 288.011C67.0964 287.447 66.7739 286.88 66.3486 286.138C65.6758 286.763 65.1476 287.252 64.6194 287.741C64.4137 287.652 64.2107 287.566 64.005 287.477C64.7667 285.512 65.5173 283.545 66.3486 281.611C66.3736 281.552 67.6691 281.822 67.6913 282.019C67.9137 283.951 67.9916 285.899 68.1111 287.844C67.8804 287.9 67.6496 287.955 67.4189 288.011Z" fill="url(#paint34_linear_98_1219)"/>
<path d="M77.4742 282.366C76.0898 283.706 75.0222 284.42 74.4523 285.418C74.1493 285.949 74.7136 286.969 74.8888 287.769C75.1807 287.716 75.4726 287.666 75.7645 287.614C75.7089 286.933 75.6561 286.255 75.5782 285.285C76.1287 285.421 76.9905 285.557 76.9877 285.646C76.9321 286.657 76.8682 287.705 76.5151 288.636C76.415 288.898 75.1307 289.089 74.8137 288.817C74.0965 288.2 73.1457 287.244 73.1957 286.488C73.2847 285.179 73.8574 283.764 74.6469 282.705C75.0111 282.216 76.3678 282.466 77.4742 282.364V282.366Z" fill="url(#paint35_linear_98_1219)"/>
<path d="M62.2062 291.996C62.3007 293.911 62.4481 295.415 62.3313 296.899C62.3202 297.046 60.7022 297.068 59.8293 297.149C59.8015 296.882 59.7765 296.612 59.7487 296.346C60.4103 296.157 61.072 295.968 61.867 295.743C61.3611 294.111 59.1092 292.783 61.0497 291.035C61.4723 290.654 62.4814 290.915 63.2182 290.882C63.2404 291.096 63.2626 291.31 63.2849 291.527C62.7122 291.777 62.1395 292.027 62.209 291.999L62.2062 291.996Z" fill="url(#paint36_linear_98_1219)"/>
<path d="M164.47 379.327C160.917 378.832 157.331 378.493 153.817 377.793C150.995 377.231 150.534 375.853 151.71 373.068C151.904 374.085 151.785 375.469 152.419 376.206C153.047 376.937 154.409 377.167 155.493 377.354C158.499 377.873 161.526 378.254 164.542 378.693C164.517 378.904 164.492 379.116 164.467 379.327H164.47Z" fill="url(#paint37_linear_98_1219)"/>
<path d="M59.0648 287.497C57.7387 286.73 56.5572 286.449 56.1541 285.732C55.2033 284.042 55.5147 282.208 56.9659 280.896C57.5247 280.39 58.62 280.479 59.8933 280.204C58.5978 281.702 57.28 282.555 57.1605 283.55C57.0437 284.545 58.1252 285.682 59.0648 287.497Z" fill="url(#paint38_linear_98_1219)"/>
<path d="M71.6473 291.844C72.3952 291.924 73.4933 292.044 74.2661 292.127C73.5294 294.373 72.8678 296.393 72.2061 298.416C72.0199 298.411 71.8336 298.408 71.6473 298.402V291.846V291.844Z" fill="url(#paint39_linear_98_1219)"/>
<path d="M64.2079 290.957C65.2004 291.082 66.2901 291.224 67.0964 291.324C66.3346 293.589 65.6618 295.584 64.9891 297.582C64.8 297.552 64.6138 297.521 64.4247 297.491C64.5137 296.46 64.6861 295.429 64.6638 294.4C64.6416 293.411 64.4136 292.427 64.2107 290.957H64.2079Z" fill="url(#paint40_linear_98_1219)"/>
<path d="M79.5648 282.844L78.628 289.248C78.2888 289.2 77.9496 289.153 77.6105 289.109C77.9218 286.974 78.2332 284.84 78.5446 282.703C78.8837 282.75 79.2229 282.797 79.5648 282.844Z" fill="url(#paint41_linear_98_1219)"/>
<path d="M76.3122 292.424C76.0175 294.559 75.7228 296.693 75.4281 298.828C75.0695 298.78 74.7081 298.733 74.3495 298.686C74.6386 296.549 74.925 294.411 75.2141 292.277C75.5811 292.327 75.9452 292.377 76.3122 292.427V292.424Z" fill="url(#paint42_linear_98_1219)"/>
<path d="M279.197 383.659C280.665 383.551 281.768 382.272 281.659 380.803C281.551 379.335 280.272 378.232 278.803 378.341C277.335 378.449 276.232 379.728 276.341 381.197C276.449 382.665 277.728 383.768 279.197 383.659ZM253.673 307.925L253.2 308.088L253.673 307.925ZM251.814 295.733L252.314 295.748L251.814 295.733ZM279 381L279.472 380.836L254.145 307.761L253.673 307.925L253.2 308.088L278.528 381.164L279 381ZM251.814 295.733L252.314 295.748L258.5 97.0155L258 96.9999L257.5 96.9844L251.315 295.717L251.814 295.733ZM253.673 307.925L254.145 307.761C252.808 303.902 252.187 299.831 252.314 295.748L251.814 295.733L251.315 295.717C251.184 299.921 251.823 304.114 253.2 308.088L253.673 307.925Z" fill="url(#paint43_linear_98_1219)"/>
<circle cx="225" cy="91" r="90.5" stroke="white"/>
<circle cx="247" cy="91" r="90.5" stroke="white"/>
<g clip-path="url(#clip0_98_1219)">
<path d="M248.496 65.4822C253.998 65.4822 259.5 65.4674 265.002 65.4867C270.332 65.5049 274.378 69.7226 274.087 74.9367C273.96 77.1945 273.042 79.11 271.485 80.7325C270.934 81.3062 270.369 81.8665 269.828 82.4491C269.362 82.9508 268.809 83.195 268.121 83.1708C267.547 83.1506 266.972 83.156 266.398 83.1728C265.236 83.2068 264.356 84.0721 264.343 85.1741C264.33 86.3116 265.207 87.2489 266.382 87.2666C268.371 87.2962 270.36 87.2686 272.348 87.2844C273.224 87.2913 273.878 87.7126 274.235 88.5107C274.58 89.2803 274.533 90.0878 273.912 90.661C273.507 91.0354 272.892 91.3832 272.365 91.3926C268.764 91.4567 265.159 91.5154 261.561 91.396C259.445 91.326 257.917 90.1016 257.111 88.1353C256.283 86.1143 256.592 84.1826 258.076 82.5892C260.364 80.1331 262.751 77.7697 265.096 75.3669C265.266 75.1928 265.48 75.0433 265.592 74.8381C265.695 74.6482 265.777 74.3596 265.703 74.1854C265.628 74.0098 265.363 73.8757 265.154 73.8096C264.952 73.7459 264.716 73.7918 264.495 73.7918C256.054 73.7918 247.613 73.7918 239.172 73.7918C237.87 73.7918 237.658 73.5826 237.656 72.307C237.655 71.6889 237.617 71.0673 237.667 70.4527C237.717 69.8282 237.529 69.6082 236.869 69.6239C235.081 69.6669 233.29 69.6496 231.501 69.6279C230.627 69.617 229.974 69.1864 229.627 68.3823C229.291 67.6079 229.405 66.8625 229.95 66.2118C230.426 65.644 231.069 65.4768 231.791 65.4798C234.332 65.4896 236.873 65.4832 239.414 65.4832C242.442 65.4832 245.468 65.4832 248.496 65.4832V65.4822Z" fill="url(#paint44_linear_98_1219)"/>
<path d="M284.066 86.3106C285.068 84.5796 286.02 82.9394 286.969 81.2982C287.714 80.0102 288.843 79.6042 289.943 80.2312C291.073 80.8759 291.322 82.087 290.568 83.3927C287.021 89.5318 283.468 95.6664 279.918 101.803C278.016 105.092 276.117 108.384 274.215 111.673C272.629 114.415 270.355 116.201 267.151 116.586C263.04 117.08 259.109 114.592 257.754 110.67C257.387 109.608 257.074 108.521 256.839 107.423C256.751 107.012 256.879 106.506 257.046 106.1C257.279 105.533 257.659 105.029 257.947 104.482C258.537 103.36 258.226 102.135 257.235 101.593C256.181 101.016 254.976 101.366 254.331 102.464C253.37 104.102 252.446 105.762 251.471 107.392C250.579 108.881 248.597 108.886 247.795 107.423C247.438 106.77 247.442 106.089 247.805 105.456C249.574 102.372 251.305 99.263 253.169 96.2366C254.345 94.3281 256.225 93.5719 258.427 93.9157C260.639 94.2605 262.092 95.6176 262.728 97.7511C263.566 100.564 264.327 103.4 265.122 106.225C265.259 106.714 265.361 107.217 265.546 107.687C265.639 107.92 265.876 108.244 266.062 108.254C266.301 108.267 266.653 108.066 266.786 107.851C267.495 106.707 268.152 105.529 268.826 104.363C272.475 98.052 276.124 91.7412 279.773 85.431C280.327 84.473 280.697 84.3709 281.642 84.9131C282.426 85.3624 283.207 85.8153 284.065 86.3106H284.066Z" fill="url(#paint45_linear_98_1219)"/>
<path d="M246.636 118.297C247.644 120.045 248.6 121.708 249.564 123.367C250.005 124.127 250.133 124.896 249.666 125.686C248.969 126.864 247.391 127.049 246.43 126.056C246.203 125.822 246.025 125.532 245.861 125.247C240.315 115.67 234.725 106.118 229.257 96.4971C227.471 93.3533 227.567 90.0591 229.683 87.0421C231.871 83.922 234.97 82.7568 238.712 83.3606C239.799 83.5357 240.875 83.8233 241.922 84.1612C242.324 84.2905 242.702 84.6521 242.967 85.0008C243.352 85.5064 243.609 86.1073 243.949 86.6499C244.592 87.6755 245.777 87.9996 246.764 87.4411C247.755 86.8808 248.12 85.683 247.537 84.6215C246.59 82.8989 245.563 81.2202 244.614 79.4991C243.824 78.0661 244.662 76.4846 246.239 76.3736C247.057 76.3159 247.737 76.6419 248.146 77.3439C249.958 80.4541 251.821 83.5392 253.507 86.7175C254.508 88.6058 254.229 90.5647 252.887 92.2532C251.491 94.0084 249.608 94.6403 247.44 94.1228C244.173 93.3439 240.93 92.4673 237.675 91.6342C237.483 91.5848 237.288 91.5207 237.093 91.5153C236.561 91.501 236.277 91.9153 236.488 92.4007C236.602 92.6627 236.764 92.9039 236.908 93.1525C241.105 100.422 245.303 107.691 249.501 114.961C250.121 116.035 250.038 116.334 248.954 116.96C248.209 117.39 247.465 117.818 246.636 118.296L246.636 118.297Z" fill="url(#paint46_linear_98_1219)"/>
</g>
<circle cx="269" cy="91" r="90.5" stroke="white"/>
<circle cx="291" cy="91" r="90.5" stroke="white"/>
<defs>
<filter id="filter0_d_98_1219" x="11.4283" y="265.086" width="33.6867" height="69.968" filterUnits="userSpaceOnUse" color-interpolation-filters="sRGB">
<feFlood flood-opacity="0" result="BackgroundImageFix"/>
<feColorMatrix in="SourceAlpha" type="matrix" values="0 0 0 0 0 0 0 0 0 0 0 0 0 0 0 0 0 0 127 0" result="hardAlpha"/>
<feOffset dy="4"/>
<feGaussianBlur stdDeviation="3.1"/>
<feComposite in2="hardAlpha" operator="out"/>
<feColorMatrix type="matrix" values="0 0 0 0 1 0 0 0 0 1 0 0 0 0 1 0 0 0 0.25 0"/>
<feBlend mode="normal" in2="BackgroundImageFix" result="effect1_dropShadow_98_1219"/>
<feBlend mode="normal" in="SourceGraphic" in2="effect1_dropShadow_98_1219" result="shape"/>
</filter>
<filter id="filter1_d_98_1219" x="255.756" y="366.765" width="41.6664" height="35.229" filterUnits="userSpaceOnUse" color-interpolation-filters="sRGB">
<feFlood flood-opacity="0" result="BackgroundImageFix"/>
<feColorMatrix in="SourceAlpha" type="matrix" values="0 0 0 0 0 0 0 0 0 0 0 0 0 0 0 0 0 0 127 0" result="hardAlpha"/>
<feOffset/>
<feGaussianBlur stdDeviation="3.4"/>
<feComposite in2="hardAlpha" operator="out"/>
<feColorMatrix type="matrix" values="0 0 0 0 0.775616 0 0 0 0 1 0 0 0 0 0.909827 0 0 0 1 0"/>
<feBlend mode="normal" in2="BackgroundImageFix" result="effect1_dropShadow_98_1219"/>
<feBlend mode="normal" in="SourceGraphic" in2="effect1_dropShadow_98_1219" result="shape"/>
</filter>
<linearGradient id="paint0_linear_98_1219" x1="0.570222" y1="241.004" x2="584.307" y2="413.446" gradientUnits="userSpaceOnUse">
<stop stop-color="white"/>
<stop offset="1" stop-color="#6CDDAF"/>
</linearGradient>
<linearGradient id="paint1_linear_98_1219" x1="195.473" y1="310.047" x2="549.176" y2="417.992" gradientUnits="userSpaceOnUse">
<stop stop-color="white"/>
<stop offset="1" stop-color="#6CDDAF"/>
</linearGradient>
<linearGradient id="paint2_linear_98_1219" x1="157.942" y1="314.563" x2="490.736" y2="426.109" gradientUnits="userSpaceOnUse">
<stop stop-color="white"/>
<stop offset="1" stop-color="#6CDDAF"/>
</linearGradient>
<linearGradient id="paint3_linear_98_1219" x1="304.466" y1="362.446" x2="490.099" y2="456.872" gradientUnits="userSpaceOnUse">
<stop stop-color="white"/>
<stop offset="1" stop-color="#6CDDAF"/>
</linearGradient>
<linearGradient id="paint4_linear_98_1219" x1="47.9262" y1="254.409" x2="50.8892" y2="254.414" gradientUnits="userSpaceOnUse">
<stop stop-color="white"/>
<stop offset="1" stop-color="#6CDDAF"/>
</linearGradient>
<linearGradient id="paint5_linear_98_1219" x1="304.543" y1="442.518" x2="393.742" y2="555.623" gradientUnits="userSpaceOnUse">
<stop stop-color="white"/>
<stop offset="1" stop-color="#6CDDAF"/>
</linearGradient>
<linearGradient id="paint6_linear_98_1219" x1="55.0846" y1="307.668" x2="99.9124" y2="311.857" gradientUnits="userSpaceOnUse">
<stop stop-color="white"/>
<stop offset="1" stop-color="#6CDDAF"/>
</linearGradient>
<linearGradient id="paint7_linear_98_1219" x1="184.283" y1="321.992" x2="304.575" y2="368.906" gradientUnits="userSpaceOnUse">
<stop stop-color="white"/>
<stop offset="1" stop-color="#6CDDAF"/>
</linearGradient>
<linearGradient id="paint8_linear_98_1219" x1="394.847" y1="379.179" x2="448.311" y2="409.562" gradientUnits="userSpaceOnUse">
<stop stop-color="white"/>
<stop offset="1" stop-color="#6CDDAF"/>
</linearGradient>
<linearGradient id="paint9_linear_98_1219" x1="350.168" y1="356.69" x2="354.652" y2="382.542" gradientUnits="userSpaceOnUse">
<stop stop-color="white"/>
<stop offset="1" stop-color="#6CDDAF"/>
</linearGradient>
<linearGradient id="paint10_linear_98_1219" x1="255.558" y1="430.968" x2="285.6" y2="432.623" gradientUnits="userSpaceOnUse">
<stop stop-color="white"/>
<stop offset="1" stop-color="#6CDDAF"/>
</linearGradient>
<linearGradient id="paint11_linear_98_1219" x1="386.135" y1="385.542" x2="436.852" y2="428.949" gradientUnits="userSpaceOnUse">
<stop stop-color="white"/>
<stop offset="1" stop-color="#6CDDAF"/>
</linearGradient>
<linearGradient id="paint12_linear_98_1219" x1="139.946" y1="426.321" x2="159.507" y2="427.376" gradientUnits="userSpaceOnUse">
<stop stop-color="white"/>
<stop offset="1" stop-color="#6CDDAF"/>
</linearGradient>
<linearGradient id="paint13_linear_98_1219" x1="64.2466" y1="265.64" x2="76.1403" y2="267.035" gradientUnits="userSpaceOnUse">
<stop stop-color="white"/>
<stop offset="1" stop-color="#6CDDAF"/>
</linearGradient>
<linearGradient id="paint14_linear_98_1219" x1="130.034" y1="385.436" x2="171.777" y2="390.931" gradientUnits="userSpaceOnUse">
<stop stop-color="white"/>
<stop offset="1" stop-color="#6CDDAF"/>
</linearGradient>
<linearGradient id="paint15_linear_98_1219" x1="74.5482" y1="266.421" x2="88.1756" y2="268.313" gradientUnits="userSpaceOnUse">
<stop stop-color="white"/>
<stop offset="1" stop-color="#6CDDAF"/>
</linearGradient>
<linearGradient id="paint16_linear_98_1219" x1="413.37" y1="478.127" x2="442.058" y2="484.422" gradientUnits="userSpaceOnUse">
<stop stop-color="white"/>
<stop offset="1" stop-color="#6CDDAF"/>
</linearGradient>
<linearGradient id="paint17_linear_98_1219" x1="219.811" y1="354.989" x2="262.33" y2="377.253" gradientUnits="userSpaceOnUse">
<stop stop-color="white"/>
<stop offset="1" stop-color="#6CDDAF"/>
</linearGradient>
<linearGradient id="paint18_linear_98_1219" x1="147.45" y1="368.378" x2="174.296" y2="376.049" gradientUnits="userSpaceOnUse">
<stop stop-color="white"/>
<stop offset="1" stop-color="#6CDDAF"/>
</linearGradient>
<linearGradient id="paint19_linear_98_1219" x1="76.0586" y1="327.092" x2="90.8077" y2="327.906" gradientUnits="userSpaceOnUse">
<stop stop-color="white"/>
<stop offset="1" stop-color="#6CDDAF"/>
</linearGradient>
<linearGradient id="paint20_linear_98_1219" x1="59.0567" y1="312.41" x2="89.2401" y2="323.61" gradientUnits="userSpaceOnUse">
<stop stop-color="white"/>
<stop offset="1" stop-color="#6CDDAF"/>
</linearGradient>
<linearGradient id="paint21_linear_98_1219" x1="61.472" y1="352.585" x2="87.1724" y2="359.135" gradientUnits="userSpaceOnUse">
<stop stop-color="white"/>
<stop offset="1" stop-color="#6CDDAF"/>
</linearGradient>
<linearGradient id="paint22_linear_98_1219" x1="178.937" y1="371.802" x2="205.337" y2="385.548" gradientUnits="userSpaceOnUse">
<stop stop-color="white"/>
<stop offset="1" stop-color="#6CDDAF"/>
</linearGradient>
<linearGradient id="paint23_linear_98_1219" x1="255.546" y1="391.44" x2="262.032" y2="391.75" gradientUnits="userSpaceOnUse">
<stop stop-color="white"/>
<stop offset="1" stop-color="#6CDDAF"/>
</linearGradient>
<linearGradient id="paint24_linear_98_1219" x1="63.4492" y1="355.952" x2="78.032" y2="360.131" gradientUnits="userSpaceOnUse">
<stop stop-color="white"/>
<stop offset="1" stop-color="#6CDDAF"/>
</linearGradient>
<linearGradient id="paint25_linear_98_1219" x1="62.7522" y1="334.753" x2="84.7733" y2="338.848" gradientUnits="userSpaceOnUse">
<stop stop-color="white"/>
<stop offset="1" stop-color="#6CDDAF"/>
</linearGradient>
<linearGradient id="paint26_linear_98_1219" x1="279.413" y1="391.927" x2="294.239" y2="393.49" gradientUnits="userSpaceOnUse">
<stop stop-color="white"/>
<stop offset="1" stop-color="#6CDDAF"/>
</linearGradient>
<linearGradient id="paint27_linear_98_1219" x1="81.3133" y1="293.063" x2="87.2466" y2="293.734" gradientUnits="userSpaceOnUse">
<stop stop-color="white"/>
<stop offset="1" stop-color="#6CDDAF"/>
</linearGradient>
<linearGradient id="paint28_linear_98_1219" x1="79.6148" y1="282.883" x2="85.5862" y2="283.561" gradientUnits="userSpaceOnUse">
<stop stop-color="white"/>
<stop offset="1" stop-color="#6CDDAF"/>
</linearGradient>
<linearGradient id="paint29_linear_98_1219" x1="68.6828" y1="281.802" x2="73.7421" y2="282.27" gradientUnits="userSpaceOnUse">
<stop stop-color="white"/>
<stop offset="1" stop-color="#6CDDAF"/>
</linearGradient>
<linearGradient id="paint30_linear_98_1219" x1="84.4833" y1="283.846" x2="89.9878" y2="284.47" gradientUnits="userSpaceOnUse">
<stop stop-color="white"/>
<stop offset="1" stop-color="#6CDDAF"/>
</linearGradient>
<linearGradient id="paint31_linear_98_1219" x1="76.5176" y1="292.64" x2="83.3893" y2="293.592" gradientUnits="userSpaceOnUse">
<stop stop-color="white"/>
<stop offset="1" stop-color="#6CDDAF"/>
</linearGradient>
<linearGradient id="paint32_linear_98_1219" x1="59.6346" y1="280.708" x2="65.6066" y2="281.414" gradientUnits="userSpaceOnUse">
<stop stop-color="white"/>
<stop offset="1" stop-color="#6CDDAF"/>
</linearGradient>
<linearGradient id="paint33_linear_98_1219" x1="66.3505" y1="291.658" x2="71.6186" y2="292.214" gradientUnits="userSpaceOnUse">
<stop stop-color="white"/>
<stop offset="1" stop-color="#6CDDAF"/>
</linearGradient>
<linearGradient id="paint34_linear_98_1219" x1="64.0097" y1="281.648" x2="69.2249" y2="282.214" gradientUnits="userSpaceOnUse">
<stop stop-color="white"/>
<stop offset="1" stop-color="#6CDDAF"/>
</linearGradient>
<linearGradient id="paint35_linear_98_1219" x1="73.1988" y1="282.41" x2="78.6334" y2="283.009" gradientUnits="userSpaceOnUse">
<stop stop-color="white"/>
<stop offset="1" stop-color="#6CDDAF"/>
</linearGradient>
<linearGradient id="paint36_linear_98_1219" x1="59.7527" y1="290.87" x2="64.2566" y2="291.297" gradientUnits="userSpaceOnUse">
<stop stop-color="white"/>
<stop offset="1" stop-color="#6CDDAF"/>
</linearGradient>
<linearGradient id="paint37_linear_98_1219" x1="151.122" y1="373.112" x2="166.369" y2="378.661" gradientUnits="userSpaceOnUse">
<stop stop-color="white"/>
<stop offset="1" stop-color="#6CDDAF"/>
</linearGradient>
<linearGradient id="paint38_linear_98_1219" x1="55.6152" y1="280.256" x2="61.0652" y2="280.798" gradientUnits="userSpaceOnUse">
<stop stop-color="white"/>
<stop offset="1" stop-color="#6CDDAF"/>
</linearGradient>
<linearGradient id="paint39_linear_98_1219" x1="71.6504" y1="291.89" x2="75.0004" y2="292.116" gradientUnits="userSpaceOnUse">
<stop stop-color="white"/>
<stop offset="1" stop-color="#6CDDAF"/>
</linearGradient>
<linearGradient id="paint40_linear_98_1219" x1="64.2112" y1="291.004" x2="67.903" y2="291.277" gradientUnits="userSpaceOnUse">
<stop stop-color="white"/>
<stop offset="1" stop-color="#6CDDAF"/>
</linearGradient>
<linearGradient id="paint41_linear_98_1219" x1="77.6127" y1="282.749" x2="80.1178" y2="282.876" gradientUnits="userSpaceOnUse">
<stop stop-color="white"/>
<stop offset="1" stop-color="#6CDDAF"/>
</linearGradient>
<linearGradient id="paint42_linear_98_1219" x1="74.3518" y1="292.323" x2="76.8675" y2="292.451" gradientUnits="userSpaceOnUse">
<stop stop-color="white"/>
<stop offset="1" stop-color="#6CDDAF"/>
</linearGradient>
<linearGradient id="paint43_linear_98_1219" x1="254" y1="182.5" x2="268.289" y2="381.792" gradientUnits="userSpaceOnUse">
<stop stop-color="#999999" stop-opacity="0"/>
<stop offset="1" stop-color="white"/>
</linearGradient>
<linearGradient id="paint44_linear_98_1219" x1="274.429" y1="88.8335" x2="229.421" y2="67.135" gradientUnits="userSpaceOnUse">
<stop stop-color="#EAFBF5"/>
<stop offset="0.225962" stop-color="#6CDDAF"/>
<stop offset="0.480769" stop-color="#44AF84"/>
<stop offset="1" stop-color="#09261A"/>
</linearGradient>
<linearGradient id="paint45_linear_98_1219" x1="249.319" y1="107.547" x2="291.011" y2="79.974" gradientUnits="userSpaceOnUse">
<stop stop-color="#EAFBF5"/>
<stop offset="0.225962" stop-color="#6CDDAF"/>
<stop offset="0.480769" stop-color="#44AF84"/>
<stop offset="1" stop-color="#09261A"/>
</linearGradient>
<linearGradient id="paint46_linear_98_1219" x1="241.054" y1="76.3671" x2="241.054" y2="126.699" gradientUnits="userSpaceOnUse">
<stop stop-color="#EAFBF5"/>
<stop offset="0.225962" stop-color="#6CDDAF"/>
<stop offset="0.480769" stop-color="#44AF84"/>
<stop offset="1" stop-color="#09261A"/>
</linearGradient>
<clipPath id="clip0_98_1219">
<rect width="63" height="63" fill="white" transform="translate(228 63)"/>
</clipPath>
</defs>
</svg>
