<svg width="472" height="472" viewBox="0 0 472 472" fill="none" xmlns="http://www.w3.org/2000/svg">
<circle cx="236" cy="236" r="216.5" stroke="#D9D9FF" stroke-opacity="0.5"/>
<path d="M236 19V11M389.442 82.5578L395.099 76.901M453 236H461M389.442 389.442L395.099 395.099M236 453V461M82.5578 389.442L76.901 395.099M19 236H11" stroke="#D9D9FF" stroke-opacity="0.5"/>
<path d="M253.026 19.6689L253.235 17.0105M269.946 21.6716L270.363 19.0378M286.658 24.9957L287.28 22.4027M303.057 29.6207L303.881 27.0846M319.042 35.5181L320.063 33.0545M334.516 42.6516L335.727 40.2756M349.382 50.9771L350.776 48.7034M363.549 60.4433L365.117 58.2859M376.93 70.9919L378.662 68.9642M401.008 95.0698L403.036 93.3379M411.557 108.451L413.714 106.883M421.023 122.618L423.297 121.224M429.348 137.484L431.724 136.273M436.482 152.958L438.946 151.937M442.379 168.943L444.915 168.119M447.004 185.342L449.597 184.72M450.328 202.054L452.962 201.637M452.331 218.974L454.99 218.765M452.331 253.026L454.99 253.235M450.328 269.946L452.962 270.363M447.004 286.658L449.597 287.28M442.379 303.057L444.915 303.881M436.482 319.042L438.946 320.063M429.348 334.516L431.724 335.727M421.023 349.382L423.297 350.776M411.557 363.549L413.714 365.117M401.008 376.93L403.036 378.662M376.93 401.008L378.662 403.036M363.549 411.557L365.117 413.714M349.382 421.023L350.776 423.297M334.516 429.348L335.727 431.724M319.042 436.482L320.063 438.946M303.057 442.379L303.881 444.915M286.658 447.004L287.28 449.597M269.946 450.328L270.363 452.962M253.026 452.331L253.235 454.99M218.974 452.331L218.765 454.99M202.054 450.328L201.637 452.962M185.342 447.004L184.72 449.597M168.943 442.379L168.119 444.915M152.958 436.482L151.937 438.946M137.484 429.348L136.273 431.724M122.618 421.023L121.224 423.297M108.451 411.557L106.883 413.714M95.0698 401.008L93.3379 403.036M70.9919 376.93L68.9642 378.662M60.4433 363.549L58.2859 365.117M50.9771 349.382L48.7034 350.776M42.6516 334.516L40.2756 335.727M35.5181 319.042L33.0545 320.063M29.6207 303.057L27.0846 303.881M24.9957 286.658L22.4027 287.28M21.6716 269.946L19.0378 270.363M19.6689 253.026L17.0105 253.235" stroke="#D9D9FF" stroke-opacity="0.25"/>
<path d="M235.75 9.11932C235.108 9.11932 234.561 8.9446 234.109 8.59517C233.658 8.2429 233.313 7.73295 233.074 7.06534C232.835 6.39489 232.716 5.58523 232.716 4.63636C232.716 3.69318 232.835 2.88778 233.074 2.22017C233.315 1.54972 233.662 1.03835 234.114 0.686079C234.568 0.330966 235.114 0.153409 235.75 0.153409C236.386 0.153409 236.93 0.330966 237.382 0.686079C237.837 1.03835 238.183 1.54972 238.422 2.22017C238.663 2.88778 238.784 3.69318 238.784 4.63636C238.784 5.58523 238.665 6.39489 238.426 7.06534C238.188 7.73295 237.842 8.2429 237.391 8.59517C236.939 8.9446 236.392 9.11932 235.75 9.11932ZM235.75 8.18182C236.386 8.18182 236.881 7.875 237.233 7.26136C237.585 6.64773 237.761 5.77273 237.761 4.63636C237.761 3.88068 237.68 3.23722 237.518 2.70597C237.359 2.17472 237.129 1.76989 236.828 1.49148C236.53 1.21307 236.17 1.07386 235.75 1.07386C235.119 1.07386 234.626 1.38494 234.271 2.0071C233.916 2.62642 233.739 3.50284 233.739 4.63636C233.739 5.39205 233.818 6.03409 233.977 6.5625C234.136 7.09091 234.365 7.4929 234.663 7.76847C234.964 8.04403 235.327 8.18182 235.75 8.18182Z" fill="white" fill-opacity="0.6"/>
<path d="M394.87 73.8435L403.09 71.1437L403.138 71.0955L399.956 67.9135L400.619 67.2506L404.573 71.2039L403.874 71.903L395.653 74.627L394.87 73.8435Z" fill="white" fill-opacity="0.6"/>
<path d="M471.727 232.972H463V231.915H470.619V231.864L469.205 229.733H470.278L471.727 231.915V232.972ZM464.79 235.277H465.659L471.727 239.112V239.743H470.381V239.317L465.795 236.419H465.727V241.584H464.79V235.277ZM463 239.385H465.054H465.459H471.727V240.391H463V239.385Z" fill="white" fill-opacity="0.6"/>
<path d="M400.471 392.556L401.013 393.098L401.206 397.365C401.228 397.865 401.258 398.289 401.296 398.637C401.336 398.986 401.405 399.283 401.501 399.529C401.598 399.778 401.74 399.997 401.929 400.185C402.146 400.402 402.386 400.538 402.649 400.592C402.91 400.648 403.174 400.63 403.439 400.538C403.704 400.446 403.948 400.288 404.171 400.065C404.408 399.828 404.566 399.572 404.644 399.296C404.722 399.025 404.722 398.754 404.644 398.483C404.564 398.214 404.406 397.962 404.171 397.727L404.882 397.015C405.244 397.377 405.478 397.778 405.584 398.218C405.691 398.658 405.677 399.098 405.542 399.538C405.405 399.979 405.157 400.38 404.798 400.74C404.436 401.101 404.039 401.345 403.607 401.472C403.176 401.599 402.751 401.612 402.333 401.511C401.915 401.411 401.547 401.202 401.23 400.884C401.003 400.657 400.822 400.394 400.688 400.095C400.553 399.8 400.454 399.419 400.389 398.953C400.325 398.491 400.28 397.893 400.254 397.16L400.157 394.291L400.109 394.243L397.24 397.112L396.578 396.449L400.471 392.556ZM399.335 406.034L393.164 399.863L393.911 399.116L399.298 404.503L399.335 404.467L399.841 401.96L400.6 402.72L400.082 405.287L399.335 406.034Z" fill="white" fill-opacity="0.6"/>
<path d="M242.597 463V463.767L239.716 466.92C239.378 467.29 239.099 467.611 238.881 467.884C238.662 468.159 238.5 468.418 238.395 468.659C238.287 468.903 238.233 469.159 238.233 469.426C238.233 469.733 238.307 469.999 238.455 470.223C238.599 470.447 238.798 470.621 239.051 470.743C239.304 470.865 239.588 470.926 239.903 470.926C240.239 470.926 240.531 470.857 240.781 470.717C241.028 470.581 241.22 470.389 241.357 470.142C241.49 469.895 241.557 469.605 241.557 469.273H242.562C242.562 469.784 242.445 470.233 242.209 470.619C241.973 471.006 241.652 471.307 241.246 471.523C240.837 471.739 240.378 471.847 239.869 471.847C239.358 471.847 238.905 471.739 238.51 471.523C238.115 471.307 237.805 471.016 237.581 470.649C237.357 470.283 237.244 469.875 237.244 469.426C237.244 469.105 237.303 468.791 237.419 468.484C237.533 468.18 237.732 467.841 238.016 467.466C238.297 467.094 238.688 466.639 239.188 466.102L241.148 464.006V463.938H237.091V463H242.597ZM232.536 462.881C233.121 462.881 233.638 462.984 234.087 463.192C234.533 463.402 234.881 463.69 235.131 464.057C235.381 464.426 235.504 464.847 235.501 465.318C235.504 465.688 235.432 466.028 235.284 466.341C235.136 466.656 234.935 466.919 234.679 467.129C234.42 467.342 234.132 467.477 233.814 467.534V467.585C234.232 467.693 234.564 467.928 234.811 468.288C235.058 468.652 235.18 469.065 235.178 469.528C235.18 469.972 235.068 470.368 234.841 470.717C234.614 471.067 234.301 471.342 233.903 471.544C233.503 471.746 233.047 471.847 232.536 471.847C232.03 471.847 231.578 471.746 231.18 471.544C230.783 471.342 230.47 471.067 230.243 470.717C230.013 470.368 229.896 469.972 229.893 469.528C229.896 469.065 230.023 468.652 230.273 468.288C230.52 467.928 230.848 467.693 231.257 467.585V467.534C230.942 467.477 230.658 467.342 230.405 467.129C230.152 466.919 229.95 466.656 229.8 466.341C229.649 466.028 229.572 465.688 229.57 465.318C229.572 464.847 229.7 464.426 229.953 464.057C230.203 463.69 230.551 463.402 230.997 463.192C231.44 462.984 231.953 462.881 232.536 462.881ZM232.536 463.818C232.141 463.818 231.8 463.882 231.513 464.01C231.226 464.138 231.004 464.318 230.848 464.551C230.692 464.784 230.612 465.057 230.609 465.369C230.612 465.699 230.697 465.99 230.865 466.243C231.033 466.496 231.261 466.695 231.551 466.839C231.838 466.984 232.166 467.057 232.536 467.057C232.908 467.057 233.24 466.984 233.533 466.839C233.822 466.695 234.051 466.496 234.219 466.243C234.384 465.99 234.464 465.699 234.462 465.369C234.464 465.057 234.389 464.784 234.236 464.551C234.08 464.318 233.857 464.138 233.567 464.01C233.277 463.882 232.933 463.818 232.536 463.818ZM232.536 467.96C232.223 467.96 231.946 468.023 231.705 468.148C231.46 468.273 231.268 468.447 231.129 468.672C230.99 468.896 230.919 469.159 230.916 469.46C230.919 469.756 230.989 470.013 231.125 470.232C231.261 470.453 231.45 470.624 231.692 470.743C231.933 470.865 232.214 470.926 232.536 470.926C232.862 470.926 233.148 470.865 233.392 470.743C233.636 470.624 233.825 470.453 233.959 470.232C234.092 470.013 234.158 469.756 234.155 469.46C234.158 469.159 234.091 468.896 233.955 468.672C233.815 468.447 233.624 468.273 233.379 468.148C233.135 468.023 232.854 467.96 232.536 467.96Z" fill="white" fill-opacity="0.6"/>
<path d="M78.1504 399.008C78.5481 399.406 78.8344 399.829 79.0091 400.277C79.1819 400.723 79.2382 401.159 79.1779 401.584C79.1136 402.01 78.9278 402.393 78.6204 402.733L77.8611 401.973C78.0439 401.758 78.1474 401.518 78.1715 401.253C78.1936 400.99 78.1464 400.722 78.0298 400.448C77.9133 400.175 77.7366 399.92 77.4995 399.683C77.2343 399.418 76.9531 399.229 76.6558 399.117C76.3585 399.004 76.0692 398.972 75.788 399.02C75.5068 399.068 75.2577 399.201 75.0407 399.418C74.8137 399.645 74.6701 399.901 74.6098 400.186C74.5475 400.474 74.5757 400.775 74.6942 401.09C74.8127 401.406 75.0287 401.72 75.342 402.033L75.8362 402.528L75.1733 403.191L74.6791 402.696C74.434 402.451 74.1749 402.281 73.9017 402.184C73.6265 402.086 73.3563 402.065 73.0911 402.121C72.824 402.175 72.5819 402.311 72.365 402.528C72.156 402.737 72.0204 402.965 71.9582 403.212C71.8959 403.459 71.9059 403.71 71.9883 403.965C72.0687 404.218 72.2223 404.458 72.4493 404.685C72.6623 404.898 72.9023 405.06 73.1695 405.17C73.4326 405.281 73.6968 405.322 73.962 405.294C74.2251 405.268 74.4642 405.157 74.6791 404.962L75.4023 405.685C75.0668 405.997 74.6862 406.183 74.2603 406.243C73.8324 406.305 73.4025 406.257 72.9706 406.098C72.5367 405.938 72.142 405.679 71.7864 405.324C71.4047 404.942 71.1546 404.537 71.0361 404.11C70.9156 403.684 70.9075 403.272 71.012 402.874C71.1165 402.476 71.3143 402.132 71.6056 401.841C71.9531 401.493 72.3408 401.288 72.7687 401.226C73.1946 401.162 73.6104 401.238 74.0162 401.455L74.0644 401.407C73.739 400.953 73.6004 400.483 73.6486 399.996C73.6948 399.512 73.9138 399.074 74.3055 398.683C74.641 398.347 75.0337 398.137 75.4837 398.053C75.9296 397.969 76.3856 398.007 76.8517 398.167C77.3177 398.328 77.7506 398.608 78.1504 399.008ZM72.9043 393.762C73.2579 394.116 73.506 394.504 73.6486 394.928C73.7912 395.352 73.8254 395.772 73.751 396.188C73.6767 396.604 73.4909 396.976 73.1936 397.306L72.4704 396.582C72.7215 396.275 72.826 395.918 72.7838 395.51C72.7376 395.102 72.5568 394.74 72.2414 394.425C71.9883 394.172 71.704 394.006 71.3887 393.928C71.0713 393.847 70.7529 393.854 70.4335 393.949C70.11 394.043 69.8168 394.222 69.5536 394.485C69.2844 394.754 69.1036 395.054 69.0112 395.383C68.9148 395.713 68.9078 396.041 68.9901 396.369C69.0725 396.696 69.2442 396.992 69.5054 397.257C69.6922 397.448 69.9152 397.613 70.1743 397.752C70.4315 397.892 70.6705 397.981 70.8915 398.017L71.5062 398.8L68.0952 401.464L64.8891 398.258L65.552 397.595L68.1314 400.174L70.1683 398.571L70.1321 398.535C69.9051 398.509 69.6631 398.434 69.406 398.309C69.1488 398.185 68.9168 398.019 68.7099 397.812C68.3322 397.434 68.0862 397.007 67.9716 396.531C67.8531 396.055 67.8652 395.577 68.0078 395.097C68.1484 394.615 68.4186 394.174 68.8184 393.774C69.2121 393.38 69.652 393.117 70.1382 392.985C70.6203 392.852 71.1044 392.85 71.5905 392.979C72.0747 393.109 72.5126 393.37 72.9043 393.762Z" fill="white" fill-opacity="0.6"/>
<path d="M7.21023 242.801H6.34091L0.272727 238.966V238.335H1.61932V238.761L6.20455 241.659H6.27273L6.27273 236.494H7.21023L7.21023 242.801ZM9 238.693H6.94602H6.54119H0.272727V237.688H9L9 238.693ZM9 234.897H8.23295L5.07955 232.017C4.71023 231.679 4.3892 231.4 4.11648 231.181C3.84091 230.963 3.58239 230.801 3.34091 230.696C3.09659 230.588 2.84091 230.534 2.57386 230.534C2.26705 230.534 2.00142 230.608 1.77699 230.755C1.55256 230.9 1.37926 231.099 1.2571 231.352C1.13494 231.605 1.07386 231.889 1.07386 232.204C1.07386 232.539 1.14347 232.832 1.28267 233.082C1.41903 233.329 1.6108 233.521 1.85795 233.657C2.10511 233.791 2.39489 233.858 2.72727 233.858V234.863C2.21591 234.863 1.76705 234.745 1.38068 234.51C0.994318 234.274 0.693181 233.953 0.477272 233.547C0.261363 233.137 0.153409 232.679 0.153409 232.17C0.153409 231.659 0.261363 231.206 0.477272 230.811C0.693181 230.416 0.984375 230.106 1.35085 229.882C1.71733 229.657 2.125 229.545 2.57386 229.545C2.89489 229.545 3.20881 229.603 3.51562 229.72C3.8196 229.833 4.15909 230.032 4.53409 230.316C4.90625 230.598 5.3608 230.988 5.89773 231.488L7.99432 233.449H8.0625V229.392H9V234.897Z" fill="white" fill-opacity="0.6"/>
<path d="M389.442 82.5579L236 236M236 236H453M236 236L389.442 389.442M236 236V453M236 236L82.5579 389.442" stroke="#D9D9FF" stroke-opacity="0.25" stroke-dasharray="2 2"/>
<path d="M236 19V236H19" stroke="#D9D9FF" stroke-opacity="0.5"/>
<path d="M84.4013 43H83.1853V40.408H77.7133V39.352L83.1053 31.8H84.4013V39.352H86.0653V40.408H84.4013V43ZM83.1853 33.528L79.0573 39.368L83.1853 39.352V33.528ZM91.4135 43.16C88.1015 43.16 87.1575 40.584 87.1575 37.416C87.1575 34.264 88.1015 31.64 91.4135 31.64C94.7415 31.64 95.6855 34.264 95.6855 37.416C95.6855 40.584 94.7415 43.16 91.4135 43.16ZM91.4135 42.104C93.7975 42.104 94.4535 39.96 94.4535 37.416C94.4535 34.904 93.7975 32.696 91.4135 32.696C89.0295 32.696 88.3895 34.904 88.3895 37.416C88.3895 39.96 89.0455 42.104 91.4135 42.104ZM98.9503 42.984H98.5823L105.238 32.536H105.606L98.9503 42.984ZM98.9343 37.544C97.7503 37.544 96.7903 36.568 96.7903 35.384C96.7903 34.216 97.7503 33.256 98.9343 33.256C100.118 33.256 101.062 34.216 101.062 35.384C101.062 36.568 100.118 37.544 98.9343 37.544ZM98.9343 36.984C99.7823 36.984 100.502 36.264 100.502 35.384C100.47 34.536 99.7823 33.816 98.9343 33.816C98.0383 33.816 97.3663 34.536 97.3343 35.384C97.3343 36.264 98.0383 36.984 98.9343 36.984ZM105.03 42.44C103.846 42.44 102.886 41.48 102.886 40.296C102.886 39.128 103.846 38.168 105.03 38.168C106.214 38.168 107.174 39.128 107.174 40.296C107.174 41.48 106.214 42.44 105.03 42.44ZM105.03 41.896C105.878 41.896 106.614 41.176 106.614 40.296C106.566 39.432 105.878 38.712 105.03 38.712C104.134 38.712 103.462 39.432 103.43 40.296C103.43 41.176 104.134 41.896 105.03 41.896ZM115.444 43.144C113.032 43.144 111.496 41.5 111.496 38.8C111.496 36.112 113.032 34.456 115.444 34.456C117.292 34.456 118.84 35.32 119.176 37.204H118.228C117.94 35.86 116.74 35.248 115.444 35.248C113.572 35.248 112.396 36.64 112.396 38.8C112.396 41.092 113.668 42.352 115.444 42.352C116.896 42.352 118.072 41.464 118.336 39.988H119.26C118.96 41.956 117.46 43.144 115.444 43.144ZM122.923 43.144C121.015 43.144 119.767 41.632 119.767 39.868C119.767 38.116 121.015 36.604 122.923 36.604C124.831 36.604 126.079 38.116 126.079 39.868C126.079 41.632 124.831 43.144 122.923 43.144ZM122.923 42.352C124.207 42.352 125.167 41.344 125.167 39.868C125.167 38.392 124.207 37.396 122.923 37.396C121.639 37.396 120.667 38.392 120.667 39.868C120.667 41.344 121.639 42.352 122.923 42.352ZM133.974 36.604C135.558 36.604 136.35 37.612 136.35 39.184V43H135.438V39.328C135.438 38.056 134.778 37.396 133.758 37.396C132.894 37.396 132.198 38.236 132.186 39.136V43H131.286V39.328C131.286 38.056 130.614 37.396 129.605 37.396C128.694 37.396 128.034 38.332 128.034 39.1V43H127.122V36.748H128.034V37.792C128.226 37.288 128.982 36.604 129.81 36.604C130.914 36.604 131.742 37.12 132.018 38.032C132.222 37.348 133.146 36.604 133.974 36.604ZM144.52 36.604C146.104 36.604 146.896 37.612 146.896 39.184V43H145.984V39.328C145.984 38.056 145.324 37.396 144.304 37.396C143.44 37.396 142.744 38.236 142.732 39.136V43H141.832V39.328C141.832 38.056 141.16 37.396 140.152 37.396C139.24 37.396 138.58 38.332 138.58 39.1V43H137.668V36.748H138.58V37.792C138.772 37.288 139.528 36.604 140.356 36.604C141.46 36.604 142.288 37.12 142.564 38.032C142.768 37.348 143.692 36.604 144.52 36.604ZM152.751 36.748H153.663V43H152.751V41.92C152.559 42.424 151.539 43.144 150.543 43.144C148.959 43.144 148.179 42.124 148.179 40.564V36.748H149.079V40.42C149.067 41.692 149.751 42.352 150.759 42.352C151.827 42.352 152.751 41.536 152.751 40.648V36.748ZM155.948 43H155.036V36.748H155.948V37.816C156.14 37.324 157.172 36.604 158.156 36.604C159.752 36.604 160.532 37.612 160.532 39.184V43H159.62V39.328C159.632 38.056 158.96 37.396 157.94 37.396C156.872 37.396 155.948 38.212 155.948 39.1V43ZM161.856 35.368V34.42H162.936V35.368H161.856ZM162.852 43H161.952V36.748H162.852V43ZM166.261 42.244H167.497V43.048H166.153C165.241 43.048 164.533 42.508 164.533 41.416V37.54H163.921V36.748H164.533V35.104H165.445V36.748H167.281V37.54H165.445V41.236C165.445 41.98 165.781 42.244 166.261 42.244ZM167.918 45.4V44.584C168.122 44.62 168.314 44.62 168.482 44.596C169.322 44.476 169.898 43.744 170.198 43H170.018L167.714 36.748H168.698L170.57 42.088L172.478 36.748H173.462L171.098 43C170.63 44.26 169.862 45.232 168.59 45.376C168.386 45.4 168.158 45.4 167.918 45.4ZM178.581 43H177.681V34.6H178.581V43ZM180.955 43H180.043V36.748H180.955V37.816C181.147 37.324 182.179 36.604 183.163 36.604C184.759 36.604 185.539 37.612 185.539 39.184V43H184.627V39.328C184.639 38.056 183.967 37.396 182.947 37.396C181.879 37.396 180.955 38.212 180.955 39.1V43ZM189.708 43.144C187.8 43.144 186.552 41.632 186.552 39.868C186.552 38.116 187.8 36.604 189.708 36.604C191.148 36.604 192.264 37.456 192.66 38.716H191.712C191.388 37.924 190.62 37.396 189.708 37.396C188.424 37.396 187.452 38.392 187.452 39.868C187.452 41.344 188.424 42.352 189.708 42.352C190.776 42.352 191.664 41.668 191.88 40.576H192.792C192.528 42.052 191.364 43.144 189.708 43.144ZM196.516 43.144C194.608 43.144 193.36 41.632 193.36 39.868C193.36 38.116 194.608 36.604 196.516 36.604C198.34 36.604 199.564 37.9 199.588 39.748C199.588 39.856 199.54 39.892 199.432 39.892H194.26C194.128 41.2 195.064 42.4 196.528 42.4C197.524 42.4 198.412 41.836 198.664 40.888H199.504C199.192 42.196 198.064 43.144 196.516 43.144ZM194.308 39.292H198.7C198.568 38.128 197.62 37.396 196.492 37.396C195.388 37.396 194.452 38.152 194.308 39.292ZM201.545 43H200.633V36.748H201.545V37.816C201.737 37.324 202.769 36.604 203.753 36.604C205.349 36.604 206.129 37.612 206.129 39.184V43H205.217V39.328C205.229 38.056 204.557 37.396 203.537 37.396C202.469 37.396 201.545 38.212 201.545 39.1V43ZM209.351 42.244H210.587V43.048H209.243C208.331 43.048 207.623 42.508 207.623 41.416V37.54H207.011V36.748H207.623V35.104H208.535V36.748H210.371V37.54H208.535V41.236C208.535 41.98 208.871 42.244 209.351 42.244ZM211.356 35.368V34.42H212.436V35.368H211.356ZM212.352 43H211.452V36.748H212.352V43ZM214.213 36.748L216.097 42.112L217.969 36.748H218.953L216.613 43H215.569L213.229 36.748H214.213ZM222.38 43.144C220.472 43.144 219.224 41.632 219.224 39.868C219.224 38.116 220.472 36.604 222.38 36.604C224.204 36.604 225.428 37.9 225.452 39.748C225.452 39.856 225.404 39.892 225.296 39.892H220.124C219.992 41.2 220.928 42.4 222.392 42.4C223.388 42.4 224.276 41.836 224.528 40.888H225.368C225.056 42.196 223.928 43.144 222.38 43.144ZM220.172 39.292H224.564C224.432 38.128 223.484 37.396 222.356 37.396C221.252 37.396 220.316 38.152 220.172 39.292ZM231.549 41.428C231.549 42.616 230.697 43.144 229.137 43.144C227.421 43.144 226.221 42.328 226.221 41.032H227.133C227.133 41.92 227.961 42.364 229.077 42.364C230.085 42.376 230.661 42.064 230.661 41.356C230.661 40.624 229.521 40.36 228.417 40.108C227.301 39.844 226.389 39.556 226.401 38.332C226.425 37.288 227.373 36.604 228.873 36.604C230.469 36.604 231.381 37.504 231.381 38.74H230.505C230.541 37.984 229.977 37.396 228.921 37.384C227.901 37.384 227.301 37.78 227.301 38.404C227.301 39.196 228.177 39.388 229.185 39.592C230.373 39.82 231.549 40.264 231.549 41.428Z" fill="white"/>
<path d="M33.984 68.75H26.576V67.87C26.576 65.582 28.096 64.814 29.6 64.078C31.104 63.326 32.608 62.622 32.608 60.446C32.608 59.23 31.68 58.35 30.272 58.35C28.48 58.35 27.824 59.566 27.824 60.798H26.656C26.656 58.958 27.808 57.358 30.272 57.358C32.368 57.358 33.76 58.638 33.76 60.43C33.76 63.326 31.856 64.19 30.224 64.942C28.944 65.566 27.776 66.142 27.792 67.694H33.984V68.75ZM39.6166 68.91C36.3046 68.91 35.3606 66.334 35.3606 63.166C35.3606 60.014 36.3046 57.39 39.6166 57.39C42.9446 57.39 43.8886 60.014 43.8886 63.166C43.8886 66.334 42.9446 68.91 39.6166 68.91ZM39.6166 67.854C42.0006 67.854 42.6566 65.71 42.6566 63.166C42.6566 60.654 42.0006 58.446 39.6166 58.446C37.2326 58.446 36.5926 60.654 36.5926 63.166C36.5926 65.71 37.2486 67.854 39.6166 67.854ZM47.1534 68.734H46.7854L53.4414 58.286H53.8094L47.1534 68.734ZM47.1374 63.294C45.9534 63.294 44.9934 62.318 44.9934 61.134C44.9934 59.966 45.9534 59.006 47.1374 59.006C48.3214 59.006 49.2654 59.966 49.2654 61.134C49.2654 62.318 48.3214 63.294 47.1374 63.294ZM47.1374 62.734C47.9854 62.734 48.7054 62.014 48.7054 61.134C48.6734 60.286 47.9854 59.566 47.1374 59.566C46.2414 59.566 45.5694 60.286 45.5374 61.134C45.5374 62.014 46.2414 62.734 47.1374 62.734ZM53.2334 68.19C52.0494 68.19 51.0894 67.23 51.0894 66.046C51.0894 64.878 52.0494 63.918 53.2334 63.918C54.4174 63.918 55.3774 64.878 55.3774 66.046C55.3774 67.23 54.4174 68.19 53.2334 68.19ZM53.2334 67.646C54.0814 67.646 54.8174 66.926 54.8174 66.046C54.7694 65.182 54.0814 64.462 53.2334 64.462C52.3374 64.462 51.6654 65.182 51.6334 66.046C51.6334 66.926 52.3374 67.646 53.2334 67.646ZM65.0148 68.75H60.1068V60.35H65.0148V61.142H61.0068V63.986H64.7028V64.79H61.0068V67.958H65.0148V68.75ZM68.6882 68.894C66.7802 68.894 65.5322 67.382 65.5322 65.618C65.5322 63.866 66.7802 62.354 68.6882 62.354C70.1282 62.354 71.2442 63.206 71.6402 64.466H70.6922C70.3682 63.674 69.6002 63.146 68.6882 63.146C67.4042 63.146 66.4322 64.142 66.4322 65.618C66.4322 67.094 67.4042 68.102 68.6882 68.102C69.7562 68.102 70.6442 67.418 70.8602 66.326H71.7722C71.5082 67.802 70.3442 68.894 68.6882 68.894ZM75.4967 68.894C73.5888 68.894 72.3408 67.382 72.3408 65.618C72.3408 63.866 73.5888 62.354 75.4967 62.354C77.4048 62.354 78.6528 63.866 78.6528 65.618C78.6528 67.382 77.4048 68.894 75.4967 68.894ZM75.4967 68.102C76.7808 68.102 77.7408 67.094 77.7408 65.618C77.7408 64.142 76.7808 63.146 75.4967 63.146C74.2128 63.146 73.2408 64.142 73.2408 65.618C73.2408 67.094 74.2128 68.102 75.4967 68.102ZM84.7477 67.178C84.7477 68.366 83.8957 68.894 82.3357 68.894C80.6197 68.894 79.4197 68.078 79.4197 66.782H80.3317C80.3317 67.67 81.1597 68.114 82.2757 68.114C83.2837 68.126 83.8597 67.814 83.8597 67.106C83.8597 66.374 82.7197 66.11 81.6157 65.858C80.4997 65.594 79.5877 65.306 79.5997 64.082C79.6237 63.038 80.5717 62.354 82.0717 62.354C83.6677 62.354 84.5797 63.254 84.5797 64.49H83.7037C83.7397 63.734 83.1757 63.146 82.1197 63.134C81.0997 63.134 80.4997 63.53 80.4997 64.154C80.4997 64.946 81.3757 65.138 82.3837 65.342C83.5717 65.57 84.7477 66.014 84.7477 67.178ZM85.3829 71.15V70.334C85.5869 70.37 85.7789 70.37 85.9469 70.346C86.7869 70.226 87.3629 69.494 87.6629 68.75H87.4829L85.1789 62.498H86.1629L88.0349 67.838L89.9429 62.498H90.9269L88.5629 68.75C88.0949 70.01 87.3269 70.982 86.0549 71.126C85.8509 71.15 85.6229 71.15 85.3829 71.15ZM96.4899 67.178C96.4899 68.366 95.6379 68.894 94.0779 68.894C92.3619 68.894 91.1619 68.078 91.1619 66.782H92.0739C92.0739 67.67 92.9019 68.114 94.0179 68.114C95.0259 68.126 95.6019 67.814 95.6019 67.106C95.6019 66.374 94.4619 66.11 93.3579 65.858C92.2419 65.594 91.3299 65.306 91.3419 64.082C91.3659 63.038 92.3139 62.354 93.8139 62.354C95.4099 62.354 96.3219 63.254 96.3219 64.49H95.4459C95.4819 63.734 94.9179 63.146 93.8619 63.134C92.8419 63.134 92.2419 63.53 92.2419 64.154C92.2419 64.946 93.1179 65.138 94.1259 65.342C95.3139 65.57 96.4899 66.014 96.4899 67.178ZM99.5111 67.994H100.747V68.798H99.4031C98.4911 68.798 97.7831 68.258 97.7831 67.166V63.29H97.1711V62.498H97.7831V60.854H98.6951V62.498H100.531V63.29H98.6951V66.986C98.6951 67.73 99.0311 67.994 99.5111 67.994ZM104.196 68.894C102.288 68.894 101.04 67.382 101.04 65.618C101.04 63.866 102.288 62.354 104.196 62.354C106.02 62.354 107.244 63.65 107.268 65.498C107.268 65.606 107.22 65.642 107.112 65.642H101.94C101.808 66.95 102.744 68.15 104.208 68.15C105.204 68.15 106.092 67.586 106.344 66.638H107.184C106.872 67.946 105.744 68.894 104.196 68.894ZM101.988 65.042H106.38C106.248 63.878 105.3 63.146 104.172 63.146C103.068 63.146 102.132 63.902 101.988 65.042ZM115.165 62.354C116.749 62.354 117.541 63.362 117.541 64.934V68.75H116.629V65.078C116.629 63.806 115.969 63.146 114.949 63.146C114.085 63.146 113.389 63.986 113.377 64.886V68.75H112.477V65.078C112.477 63.806 111.805 63.146 110.797 63.146C109.885 63.146 109.225 64.082 109.225 64.85V68.75H108.313V62.498H109.225V63.542C109.417 63.038 110.173 62.354 111.001 62.354C112.105 62.354 112.933 62.87 113.209 63.782C113.413 63.098 114.337 62.354 115.165 62.354ZM125.317 68.894C123.685 68.894 122.689 68.114 122.689 66.794C122.689 65.666 123.781 64.754 124.741 64.178C124.141 63.41 123.697 62.654 123.697 62.018C123.697 61.13 124.357 60.206 125.725 60.206C127.021 60.206 127.789 61.034 127.789 62.018C127.789 62.99 127.093 63.422 125.713 64.238C126.373 65.078 127.213 65.966 127.753 66.614C128.029 66.11 128.365 65.39 128.389 64.838H129.109C129.037 65.594 128.701 66.434 128.245 67.154L129.649 68.75H128.641L127.729 67.658C127.141 68.294 126.385 68.894 125.317 68.894ZM125.353 63.83C126.445 63.146 127.033 62.81 127.033 62.054C127.033 61.418 126.577 60.866 125.725 60.866C124.885 60.866 124.441 61.418 124.441 62.042C124.441 62.498 124.765 63.062 125.353 63.83ZM125.305 68.246C126.121 68.27 126.805 67.766 127.285 67.166C126.841 66.542 125.881 65.57 125.137 64.622C124.357 65.138 123.529 65.966 123.529 66.758C123.529 67.706 124.237 68.21 125.305 68.246ZM134.372 68.75H133.436L136.448 60.35H137.972L140.996 68.75H140.06L138.908 65.846H135.512L134.372 68.75ZM137.144 61.094L135.704 65.09H138.716L137.276 61.094H137.144ZM145.059 68.894C143.967 68.894 142.971 68.21 142.659 67.19V71.15H141.747V62.498H142.659V64.034C142.971 63.014 143.967 62.354 145.059 62.354C146.943 62.354 148.083 63.866 148.083 65.618C148.083 67.382 146.943 68.894 145.059 68.894ZM144.927 63.146C143.643 63.146 142.683 64.142 142.683 65.618C142.683 67.094 143.643 68.102 144.927 68.102C146.211 68.102 147.171 67.094 147.171 65.618C147.171 64.142 146.211 63.146 144.927 63.146ZM152.453 68.894C151.361 68.894 150.365 68.21 150.053 67.19V71.15H149.141V62.498H150.053V64.034C150.365 63.014 151.361 62.354 152.453 62.354C154.337 62.354 155.477 63.866 155.477 65.618C155.477 67.382 154.337 68.894 152.453 68.894ZM152.321 63.146C151.037 63.146 150.077 64.142 150.077 65.618C150.077 67.094 151.037 68.102 152.321 68.102C153.605 68.102 154.565 67.094 154.565 65.618C154.565 64.142 153.605 63.146 152.321 63.146ZM163.304 68.75H160.208V60.35H163.304C165.944 60.35 167.12 61.67 167.12 64.55C167.12 67.022 165.944 68.75 163.304 68.75ZM161.12 61.142V67.958H163.172C165.392 67.958 166.208 66.53 166.208 64.55C166.208 62.33 165.404 61.142 163.184 61.142H161.12ZM171.098 68.894C169.19 68.894 167.942 67.382 167.942 65.618C167.942 63.866 169.19 62.354 171.098 62.354C172.922 62.354 174.146 63.65 174.17 65.498C174.17 65.606 174.122 65.642 174.014 65.642H168.842C168.71 66.95 169.646 68.15 171.11 68.15C172.106 68.15 172.994 67.586 173.246 66.638H174.086C173.774 67.946 172.646 68.894 171.098 68.894ZM168.89 65.042H173.282C173.15 63.878 172.202 63.146 171.074 63.146C169.97 63.146 169.034 63.902 168.89 65.042ZM175.447 62.498L177.331 67.862L179.203 62.498H180.187L177.847 68.75H176.803L174.463 62.498H175.447ZM183.614 68.894C181.706 68.894 180.458 67.382 180.458 65.618C180.458 63.866 181.706 62.354 183.614 62.354C185.438 62.354 186.662 63.65 186.686 65.498C186.686 65.606 186.638 65.642 186.53 65.642H181.358C181.226 66.95 182.162 68.15 183.626 68.15C184.622 68.15 185.51 67.586 185.762 66.638H186.602C186.29 67.946 185.162 68.894 183.614 68.894ZM181.406 65.042H185.798C185.666 63.878 184.718 63.146 183.59 63.146C182.486 63.146 181.55 63.902 181.406 65.042ZM188.643 59.87V68.75H187.731V59.87H188.643ZM192.86 68.894C190.952 68.894 189.704 67.382 189.704 65.618C189.704 63.866 190.952 62.354 192.86 62.354C194.768 62.354 196.016 63.866 196.016 65.618C196.016 67.382 194.768 68.894 192.86 68.894ZM192.86 68.102C194.144 68.102 195.104 67.094 195.104 65.618C195.104 64.142 194.144 63.146 192.86 63.146C191.576 63.146 190.604 64.142 190.604 65.618C190.604 67.094 191.576 68.102 192.86 68.102ZM200.371 68.894C199.279 68.894 198.283 68.21 197.971 67.19V71.15H197.059V62.498H197.971V64.034C198.283 63.014 199.279 62.354 200.371 62.354C202.255 62.354 203.395 63.866 203.395 65.618C203.395 67.382 202.255 68.894 200.371 68.894ZM200.239 63.146C198.955 63.146 197.995 64.142 197.995 65.618C197.995 67.094 198.955 68.102 200.239 68.102C201.523 68.102 202.483 67.094 202.483 65.618C202.483 64.142 201.523 63.146 200.239 63.146ZM211.306 62.354C212.89 62.354 213.682 63.362 213.682 64.934V68.75H212.77V65.078C212.77 63.806 212.11 63.146 211.09 63.146C210.226 63.146 209.53 63.986 209.518 64.886V68.75H208.618V65.078C208.618 63.806 207.946 63.146 206.938 63.146C206.026 63.146 205.366 64.082 205.366 64.85V68.75H204.454V62.498H205.366V63.542C205.558 63.038 206.314 62.354 207.142 62.354C208.246 62.354 209.074 62.87 209.35 63.782C209.554 63.098 210.478 62.354 211.306 62.354ZM217.844 68.894C215.936 68.894 214.688 67.382 214.688 65.618C214.688 63.866 215.936 62.354 217.844 62.354C219.668 62.354 220.892 63.65 220.916 65.498C220.916 65.606 220.868 65.642 220.76 65.642H215.588C215.456 66.95 216.392 68.15 217.856 68.15C218.852 68.15 219.74 67.586 219.992 66.638H220.832C220.52 67.946 219.392 68.894 217.844 68.894ZM215.636 65.042H220.028C219.896 63.878 218.948 63.146 217.82 63.146C216.716 63.146 215.78 63.902 215.636 65.042ZM222.873 68.75H221.961V62.498H222.873V63.566C223.065 63.074 224.097 62.354 225.081 62.354C226.677 62.354 227.457 63.362 227.457 64.934V68.75H226.545V65.078C226.557 63.806 225.885 63.146 224.865 63.146C223.797 63.146 222.873 63.962 222.873 64.85V68.75ZM230.679 67.994H231.915V68.798H230.571C229.659 68.798 228.951 68.258 228.951 67.166V63.29H228.339V62.498H228.951V60.854H229.863V62.498H231.699V63.29H229.863V66.986C229.863 67.73 230.199 67.994 230.679 67.994Z" fill="white"/>
<path d="M87.7049 94.5H86.4889V84.884C86.1689 85.076 85.4969 85.316 84.9369 85.316H84.4889V84.26H84.9369C85.5929 84.26 86.3129 83.892 86.5529 83.3H87.7049V94.5ZM93.2731 94.692C91.5931 94.692 90.2331 94.068 89.4971 92.708L90.6651 92.628C91.2891 93.252 92.1371 93.636 93.2731 93.636C95.1291 93.636 96.1371 92.788 96.1371 91.284C96.1371 89.956 95.5611 88.692 93.3371 88.628C92.6011 88.628 91.8171 88.884 91.3531 89.204H90.1211L90.9051 83.3H96.6331V84.356H91.8811L91.4491 88.116C91.8971 87.892 92.7771 87.62 93.6251 87.62C96.3611 87.668 97.3531 89.396 97.3531 91.284C97.3531 93.348 95.7851 94.692 93.2731 94.692ZM100.357 94.484H99.9885L106.645 84.036H107.013L100.357 94.484ZM100.341 89.044C99.1565 89.044 98.1965 88.068 98.1965 86.884C98.1965 85.716 99.1565 84.756 100.341 84.756C101.525 84.756 102.469 85.716 102.469 86.884C102.469 88.068 101.525 89.044 100.341 89.044ZM100.341 88.484C101.189 88.484 101.909 87.764 101.909 86.884C101.877 86.036 101.189 85.316 100.341 85.316C99.4445 85.316 98.7725 86.036 98.7405 86.884C98.7405 87.764 99.4445 88.484 100.341 88.484ZM106.437 93.94C105.253 93.94 104.293 92.98 104.293 91.796C104.293 90.628 105.253 89.668 106.437 89.668C107.621 89.668 108.581 90.628 108.581 91.796C108.581 92.98 107.621 93.94 106.437 93.94ZM106.437 93.396C107.285 93.396 108.021 92.676 108.021 91.796C107.973 90.932 107.285 90.212 106.437 90.212C105.541 90.212 104.869 90.932 104.837 91.796C104.837 92.676 105.541 93.396 106.437 93.396ZM118.782 92.532C118.782 94.056 117.642 94.644 115.998 94.644C114.318 94.644 112.782 93.672 112.818 92.04H113.718C113.682 92.952 114.666 93.828 115.938 93.852C117.102 93.852 117.834 93.468 117.834 92.508C117.834 91.5 116.586 91.056 115.434 90.564C114.222 90.06 112.938 89.436 112.938 88.104C112.938 86.724 114.138 85.956 115.782 85.956C117.462 85.956 118.674 86.748 118.638 88.26H117.738C117.774 87.468 117.126 86.76 115.854 86.748C114.678 86.748 113.886 87.288 113.886 88.128C113.886 89.076 114.978 89.496 116.094 89.952C117.33 90.456 118.782 91.068 118.782 92.532ZM121.788 93.744H123.024V94.548H121.68C120.768 94.548 120.06 94.008 120.06 92.916V89.04H119.448V88.248H120.06V86.604H120.972V88.248H122.808V89.04H120.972V92.736C120.972 93.48 121.308 93.744 121.788 93.744ZM124.705 90.876V94.5H123.793V88.248H124.705V89.568H124.741C124.933 88.86 125.797 88.2 126.673 88.2C126.877 88.2 127.009 88.224 127.129 88.248V89.064C127.033 89.028 126.829 89.004 126.721 89.004C125.725 89.004 124.705 89.688 124.705 90.876ZM129.569 94.644C128.309 94.644 127.277 93.924 127.361 92.58C127.421 91.26 128.753 90.792 130.289 90.792C131.357 90.792 131.945 90.636 131.945 90.144C131.945 89.232 131.033 88.812 130.109 88.812C129.377 88.812 128.441 89.316 128.429 90.372H127.505C127.517 88.86 128.909 88.104 130.145 88.104C131.549 88.104 132.857 88.8 132.857 90.156V92.904C132.857 93.468 132.953 94.068 133.085 94.512H132.173C132.065 94.176 131.993 93.648 131.981 93.072C131.669 93.864 130.925 94.644 129.569 94.644ZM129.917 93.96C131.417 93.96 131.945 92.616 131.945 91.788V90.96C131.681 91.272 131.129 91.38 130.217 91.38C129.329 91.38 128.357 91.656 128.285 92.532C128.201 93.552 129.053 93.96 129.917 93.96ZM136.05 93.744H137.286V94.548H135.942C135.03 94.548 134.322 94.008 134.322 92.916V89.04H133.71V88.248H134.322V86.604H135.234V88.248H137.07V89.04H135.234V92.736C135.234 93.48 135.57 93.744 136.05 93.744ZM140.735 94.644C138.827 94.644 137.579 93.132 137.579 91.368C137.579 89.616 138.827 88.104 140.735 88.104C142.559 88.104 143.783 89.4 143.807 91.248C143.807 91.356 143.759 91.392 143.651 91.392H138.479C138.347 92.7 139.283 93.9 140.747 93.9C141.743 93.9 142.631 93.336 142.883 92.388H143.723C143.411 93.696 142.283 94.644 140.735 94.644ZM138.527 90.792H142.919C142.787 89.628 141.839 88.896 140.711 88.896C139.607 88.896 138.671 89.652 138.527 90.792ZM149.976 96.9H145.668C145.452 96.9 145.392 96.78 145.464 96.576L146.328 94.308C145.248 93.792 144.564 92.664 144.564 91.368C144.564 89.616 145.812 88.104 147.72 88.104C148.104 88.104 148.464 88.176 148.776 88.296C149.4 87.132 150.456 86.1 151.524 86.1V86.892C150.648 86.88 149.94 87.768 149.496 88.668C150.336 89.244 150.876 90.24 150.876 91.368C150.876 93.36 149.256 94.932 147.144 94.548L146.568 95.988C146.544 96.072 146.556 96.108 146.652 96.108H149.976V96.9ZM147.72 93.852C149.004 93.852 149.964 92.844 149.964 91.368C149.964 89.892 149.004 88.896 147.72 88.896C146.436 88.896 145.464 89.892 145.464 91.368C145.464 92.844 146.436 93.852 147.72 93.852ZM151.942 86.868V85.92H153.022V86.868H151.942ZM152.938 94.5H152.038V88.248H152.938V94.5ZM157.235 94.644C155.327 94.644 154.079 93.132 154.079 91.368C154.079 89.616 155.327 88.104 157.235 88.104C158.675 88.104 159.791 88.956 160.187 90.216H159.239C158.915 89.424 158.147 88.896 157.235 88.896C155.951 88.896 154.979 89.892 154.979 91.368C154.979 92.844 155.951 93.852 157.235 93.852C158.303 93.852 159.191 93.168 159.407 92.076H160.319C160.055 93.552 158.891 94.644 157.235 94.644ZM165.866 94.5H164.966V86.1H168.086C169.79 86.1 170.702 87.048 170.702 88.56C170.702 90.084 169.778 91.02 168.086 91.02H165.866V94.5ZM165.866 86.892V90.228H167.99C169.19 90.228 169.79 89.568 169.79 88.56C169.79 87.576 169.19 86.892 167.99 86.892H165.866ZM173.291 94.644C172.031 94.644 170.999 93.924 171.083 92.58C171.143 91.26 172.475 90.792 174.011 90.792C175.079 90.792 175.667 90.636 175.667 90.144C175.667 89.232 174.755 88.812 173.831 88.812C173.099 88.812 172.163 89.316 172.151 90.372H171.227C171.239 88.86 172.631 88.104 173.867 88.104C175.271 88.104 176.579 88.8 176.579 90.156V92.904C176.579 93.468 176.675 94.068 176.807 94.512H175.895C175.787 94.176 175.715 93.648 175.703 93.072C175.391 93.864 174.647 94.644 173.291 94.644ZM173.639 93.96C175.139 93.96 175.667 92.616 175.667 91.788V90.96C175.403 91.272 174.851 91.38 173.939 91.38C173.051 91.38 172.079 91.656 172.007 92.532C171.923 93.552 172.775 93.96 173.639 93.96ZM178.764 90.876V94.5H177.852V88.248H178.764V89.568H178.8C178.992 88.86 179.856 88.2 180.732 88.2C180.936 88.2 181.068 88.224 181.188 88.248V89.064C181.092 89.028 180.888 89.004 180.78 89.004C179.784 89.004 178.764 89.688 178.764 90.876ZM183.898 93.744H185.134V94.548H183.79C182.878 94.548 182.17 94.008 182.17 92.916V89.04H181.558V88.248H182.17V86.604H183.082V88.248H184.918V89.04H183.082V92.736C183.082 93.48 183.418 93.744 183.898 93.744ZM186.815 94.5H185.903V88.248H186.815V89.316C187.007 88.824 188.039 88.104 189.023 88.104C190.619 88.104 191.399 89.112 191.399 90.684V94.5H190.487V90.828C190.499 89.556 189.827 88.896 188.807 88.896C187.739 88.896 186.815 89.712 186.815 90.6V94.5ZM195.567 94.644C193.659 94.644 192.411 93.132 192.411 91.368C192.411 89.616 193.659 88.104 195.567 88.104C197.391 88.104 198.615 89.4 198.639 91.248C198.639 91.356 198.591 91.392 198.483 91.392H193.311C193.179 92.7 194.115 93.9 195.579 93.9C196.575 93.9 197.463 93.336 197.715 92.388H198.555C198.243 93.696 197.115 94.644 195.567 94.644ZM193.359 90.792H197.751C197.619 89.628 196.671 88.896 195.543 88.896C194.439 88.896 193.503 89.652 193.359 90.792ZM200.596 90.876V94.5H199.684V88.248H200.596V89.568H200.632C200.824 88.86 201.688 88.2 202.564 88.2C202.768 88.2 202.9 88.224 203.02 88.248V89.064C202.924 89.028 202.72 89.004 202.612 89.004C201.616 89.004 200.596 89.688 200.596 90.876ZM208.697 92.928C208.697 94.116 207.845 94.644 206.285 94.644C204.569 94.644 203.369 93.828 203.369 92.532H204.281C204.281 93.42 205.109 93.864 206.225 93.864C207.233 93.876 207.809 93.564 207.809 92.856C207.809 92.124 206.669 91.86 205.565 91.608C204.449 91.344 203.537 91.056 203.549 89.832C203.573 88.788 204.521 88.104 206.021 88.104C207.617 88.104 208.529 89.004 208.529 90.24H207.653C207.689 89.484 207.125 88.896 206.069 88.884C205.049 88.884 204.449 89.28 204.449 89.904C204.449 90.696 205.325 90.888 206.333 91.092C207.521 91.32 208.697 91.764 208.697 92.928ZM210.744 94.5H209.832V85.62H210.744V89.316C210.936 88.824 211.968 88.104 212.952 88.104C214.548 88.104 215.328 89.112 215.328 90.684V94.5H214.416V90.828C214.428 89.556 213.756 88.896 212.736 88.896C211.668 88.896 210.744 89.712 210.744 90.6V94.5ZM216.653 86.868V85.92H217.733V86.868H216.653ZM217.649 94.5H216.749V88.248H217.649V94.5ZM222.414 94.644C221.322 94.644 220.326 93.96 220.014 92.94V96.9H219.102V88.248H220.014V89.784C220.326 88.764 221.322 88.104 222.414 88.104C224.298 88.104 225.438 89.616 225.438 91.368C225.438 93.132 224.298 94.644 222.414 94.644ZM222.282 88.896C220.998 88.896 220.038 89.892 220.038 91.368C220.038 92.844 220.998 93.852 222.282 93.852C223.566 93.852 224.526 92.844 224.526 91.368C224.526 89.892 223.566 88.896 222.282 88.896ZM231.549 92.928C231.549 94.116 230.697 94.644 229.137 94.644C227.421 94.644 226.221 93.828 226.221 92.532H227.133C227.133 93.42 227.961 93.864 229.077 93.864C230.085 93.876 230.661 93.564 230.661 92.856C230.661 92.124 229.521 91.86 228.417 91.608C227.301 91.344 226.389 91.056 226.401 89.832C226.425 88.788 227.373 88.104 228.873 88.104C230.469 88.104 231.381 89.004 231.381 90.24H230.505C230.541 89.484 229.977 88.896 228.921 88.884C227.901 88.884 227.301 89.28 227.301 89.904C227.301 90.696 228.177 90.888 229.185 91.092C230.373 91.32 231.549 91.764 231.549 92.928Z" fill="white"/>
<path d="M69.5174 120.25H68.3014V110.634C67.9814 110.826 67.3094 111.066 66.7494 111.066H66.3014V110.01H66.7494C67.4054 110.01 68.1254 109.642 68.3654 109.05H69.5174V120.25ZM75.0856 120.442C73.4056 120.442 72.0456 119.818 71.3096 118.458L72.4776 118.378C73.1016 119.002 73.9496 119.386 75.0856 119.386C76.9416 119.386 77.9496 118.538 77.9496 117.034C77.9496 115.706 77.3736 114.442 75.1496 114.378C74.4136 114.378 73.6296 114.634 73.1656 114.954H71.9336L72.7176 109.05H78.4456V110.106H73.6936L73.2616 113.866C73.7096 113.642 74.5896 113.37 75.4376 113.37C78.1736 113.418 79.1656 115.146 79.1656 117.034C79.1656 119.098 77.5976 120.442 75.0856 120.442ZM82.169 120.234H81.801L88.457 109.786H88.825L82.169 120.234ZM82.153 114.794C80.969 114.794 80.009 113.818 80.009 112.634C80.009 111.466 80.969 110.506 82.153 110.506C83.337 110.506 84.281 111.466 84.281 112.634C84.281 113.818 83.337 114.794 82.153 114.794ZM82.153 114.234C83.001 114.234 83.721 113.514 83.721 112.634C83.689 111.786 83.001 111.066 82.153 111.066C81.257 111.066 80.585 111.786 80.553 112.634C80.553 113.514 81.257 114.234 82.153 114.234ZM88.249 119.69C87.065 119.69 86.105 118.73 86.105 117.546C86.105 116.378 87.065 115.418 88.249 115.418C89.433 115.418 90.393 116.378 90.393 117.546C90.393 118.73 89.433 119.69 88.249 119.69ZM88.249 119.146C89.097 119.146 89.833 118.426 89.833 117.546C89.785 116.682 89.097 115.962 88.249 115.962C87.353 115.962 86.681 116.682 86.649 117.546C86.649 118.426 87.353 119.146 88.249 119.146ZM94.0625 111.85H99.3065V112.642H97.1345V120.25H96.2345V112.642H94.0625V111.85ZM102.298 120.394C100.39 120.394 99.1415 118.882 99.1415 117.118C99.1415 115.366 100.39 113.854 102.298 113.854C104.122 113.854 105.346 115.15 105.37 116.998C105.37 117.106 105.322 117.142 105.214 117.142H100.042C99.9095 118.45 100.846 119.65 102.31 119.65C103.306 119.65 104.194 119.086 104.446 118.138H105.286C104.974 119.446 103.846 120.394 102.298 120.394ZM100.09 116.542H104.482C104.35 115.378 103.402 114.646 102.274 114.646C101.17 114.646 100.234 115.402 100.09 116.542ZM108.322 120.394C107.062 120.394 106.03 119.674 106.114 118.33C106.174 117.01 107.506 116.542 109.042 116.542C110.11 116.542 110.698 116.386 110.698 115.894C110.698 114.982 109.786 114.562 108.862 114.562C108.13 114.562 107.194 115.066 107.182 116.122H106.258C106.27 114.61 107.662 113.854 108.898 113.854C110.302 113.854 111.61 114.55 111.61 115.906V118.654C111.61 119.218 111.706 119.818 111.838 120.262H110.926C110.818 119.926 110.746 119.398 110.734 118.822C110.422 119.614 109.678 120.394 108.322 120.394ZM108.67 119.71C110.17 119.71 110.698 118.366 110.698 117.538V116.71C110.434 117.022 109.882 117.13 108.97 117.13C108.082 117.13 107.11 117.406 107.038 118.282C106.954 119.302 107.806 119.71 108.67 119.71ZM119.735 113.854C121.319 113.854 122.111 114.862 122.111 116.434V120.25H121.199V116.578C121.199 115.306 120.539 114.646 119.519 114.646C118.655 114.646 117.959 115.486 117.947 116.386V120.25H117.047V116.578C117.047 115.306 116.375 114.646 115.367 114.646C114.455 114.646 113.795 115.582 113.795 116.35V120.25H112.883V113.998H113.795V115.042C113.987 114.538 114.743 113.854 115.571 113.854C116.675 113.854 117.503 114.37 117.779 115.282C117.983 114.598 118.907 113.854 119.735 113.854ZM129.887 120.394C128.255 120.394 127.259 119.614 127.259 118.294C127.259 117.166 128.351 116.254 129.311 115.678C128.711 114.91 128.267 114.154 128.267 113.518C128.267 112.63 128.927 111.706 130.295 111.706C131.591 111.706 132.359 112.534 132.359 113.518C132.359 114.49 131.663 114.922 130.283 115.738C130.943 116.578 131.783 117.466 132.323 118.114C132.599 117.61 132.935 116.89 132.959 116.338H133.679C133.607 117.094 133.271 117.934 132.815 118.654L134.219 120.25H133.211L132.299 119.158C131.711 119.794 130.955 120.394 129.887 120.394ZM129.923 115.33C131.015 114.646 131.603 114.31 131.603 113.554C131.603 112.918 131.147 112.366 130.295 112.366C129.455 112.366 129.011 112.918 129.011 113.542C129.011 113.998 129.335 114.562 129.923 115.33ZM129.875 119.746C130.691 119.77 131.375 119.266 131.855 118.666C131.411 118.042 130.451 117.07 129.707 116.122C128.927 116.638 128.099 117.466 128.099 118.258C128.099 119.206 128.807 119.71 129.875 119.746ZM138.942 120.25H138.006L141.018 111.85H142.542L145.566 120.25H144.63L143.478 117.346H140.082L138.942 120.25ZM141.714 112.594L140.274 116.59H143.286L141.846 112.594H141.714ZM148.818 113.854C149.91 113.854 150.906 114.526 151.218 115.558V111.37H152.13V120.25H151.218V118.702C150.906 119.734 149.91 120.394 148.818 120.394C146.934 120.394 145.794 118.882 145.794 117.118C145.794 115.366 146.934 113.854 148.818 113.854ZM148.938 119.602C150.234 119.602 151.194 118.594 151.194 117.118C151.194 115.642 150.234 114.646 148.938 114.646C147.666 114.646 146.706 115.642 146.706 117.118C146.706 118.594 147.666 119.602 148.938 119.602ZM153.908 113.998L155.792 119.362L157.664 113.998H158.648L156.308 120.25H155.264L152.924 113.998H153.908ZM159.289 112.618V111.67H160.369V112.618H159.289ZM160.285 120.25H159.385V113.998H160.285V120.25ZM166.791 118.678C166.791 119.866 165.939 120.394 164.379 120.394C162.663 120.394 161.463 119.578 161.463 118.282H162.375C162.375 119.17 163.203 119.614 164.319 119.614C165.327 119.626 165.903 119.314 165.903 118.606C165.903 117.874 164.763 117.61 163.659 117.358C162.543 117.094 161.631 116.806 161.643 115.582C161.667 114.538 162.615 113.854 164.115 113.854C165.711 113.854 166.623 114.754 166.623 115.99H165.747C165.783 115.234 165.219 114.646 164.163 114.634C163.143 114.634 162.543 115.03 162.543 115.654C162.543 116.446 163.419 116.638 164.427 116.842C165.615 117.07 166.791 117.514 166.791 118.678ZM170.688 120.394C168.78 120.394 167.532 118.882 167.532 117.118C167.532 115.366 168.78 113.854 170.688 113.854C172.596 113.854 173.844 115.366 173.844 117.118C173.844 118.882 172.596 120.394 170.688 120.394ZM170.688 119.602C171.972 119.602 172.932 118.594 172.932 117.118C172.932 115.642 171.972 114.646 170.688 114.646C169.404 114.646 168.432 115.642 168.432 117.118C168.432 118.594 169.404 119.602 170.688 119.602ZM175.799 116.626V120.25H174.887V113.998H175.799V115.318H175.835C176.027 114.61 176.891 113.95 177.767 113.95C177.971 113.95 178.103 113.974 178.223 113.998V114.814C178.127 114.778 177.923 114.754 177.815 114.754C176.819 114.754 175.799 115.438 175.799 116.626ZM183.9 118.678C183.9 119.866 183.048 120.394 181.488 120.394C179.772 120.394 178.572 119.578 178.572 118.282H179.484C179.484 119.17 180.312 119.614 181.428 119.614C182.436 119.626 183.012 119.314 183.012 118.606C183.012 117.874 181.872 117.61 180.768 117.358C179.652 117.094 178.74 116.806 178.752 115.582C178.776 114.538 179.724 113.854 181.224 113.854C182.82 113.854 183.732 114.754 183.732 115.99H182.856C182.892 115.234 182.328 114.646 181.272 114.634C180.252 114.634 179.652 115.03 179.652 115.654C179.652 116.446 180.528 116.638 181.536 116.842C182.724 117.07 183.9 117.514 183.9 118.678ZM190.508 119.962L190.268 120.31C189.008 119.758 188.252 117.79 188.264 116.05C188.276 114.322 189.044 112.354 190.268 111.79L190.508 112.138C189.32 112.966 188.888 114.862 188.888 116.05C188.888 117.31 189.368 119.134 190.508 119.962ZM191.35 113.998L193.234 119.362L195.106 113.998H196.09L193.75 120.25H192.706L190.366 113.998H191.35ZM199.516 120.394C197.608 120.394 196.36 118.882 196.36 117.118C196.36 115.366 197.608 113.854 199.516 113.854C201.34 113.854 202.564 115.15 202.588 116.998C202.588 117.106 202.54 117.142 202.432 117.142H197.26C197.128 118.45 198.064 119.65 199.528 119.65C200.524 119.65 201.412 119.086 201.664 118.138H202.504C202.192 119.446 201.064 120.394 199.516 120.394ZM197.308 116.542H201.7C201.568 115.378 200.62 114.646 199.492 114.646C198.388 114.646 197.452 115.402 197.308 116.542ZM208.685 118.678C208.685 119.866 207.833 120.394 206.273 120.394C204.557 120.394 203.357 119.578 203.357 118.282H204.269C204.269 119.17 205.097 119.614 206.213 119.614C207.221 119.626 207.797 119.314 207.797 118.606C207.797 117.874 206.657 117.61 205.553 117.358C204.437 117.094 203.525 116.806 203.537 115.582C203.561 114.538 204.509 113.854 206.009 113.854C207.605 113.854 208.517 114.754 208.517 115.99H207.641C207.677 115.234 207.113 114.646 206.057 114.634C205.037 114.634 204.437 115.03 204.437 115.654C204.437 116.446 205.313 116.638 206.321 116.842C207.509 117.07 208.685 117.514 208.685 118.678ZM211.706 119.494H212.942V120.298H211.598C210.686 120.298 209.978 119.758 209.978 118.666V114.79H209.366V113.998H209.978V112.354H210.89V113.998H212.726V114.79H210.89V118.486C210.89 119.23 211.226 119.494 211.706 119.494ZM213.711 112.618V111.67H214.791V112.618H213.711ZM214.707 120.25H213.807V113.998H214.707V120.25ZM217.073 120.25H216.161V113.998H217.073V115.066C217.265 114.574 218.297 113.854 219.281 113.854C220.877 113.854 221.657 114.862 221.657 116.434V120.25H220.745V116.578C220.757 115.306 220.085 114.646 219.065 114.646C217.997 114.646 217.073 115.462 217.073 116.35V120.25ZM228.105 122.65H223.797C223.581 122.65 223.521 122.53 223.593 122.326L224.457 120.058C223.377 119.542 222.693 118.414 222.693 117.118C222.693 115.366 223.941 113.854 225.849 113.854C226.233 113.854 226.593 113.926 226.905 114.046C227.529 112.882 228.585 111.85 229.653 111.85V112.642C228.777 112.63 228.069 113.518 227.625 114.418C228.465 114.994 229.005 115.99 229.005 117.118C229.005 119.11 227.385 120.682 225.273 120.298L224.697 121.738C224.673 121.822 224.685 121.858 224.781 121.858H228.105V122.65ZM225.849 119.602C227.133 119.602 228.093 118.594 228.093 117.118C228.093 115.642 227.133 114.646 225.849 114.646C224.565 114.646 223.593 115.642 223.593 117.118C223.593 118.594 224.565 119.602 225.849 119.602ZM229.549 120.31L229.321 119.962C230.449 119.134 230.941 117.31 230.941 116.05C230.929 114.862 230.497 112.966 229.321 112.138L229.549 111.79C230.785 112.354 231.541 114.322 231.565 116.05C231.577 117.79 230.821 119.758 229.549 120.31Z" fill="white"/>
<path d="M106.787 146H105.571V136.384C105.251 136.576 104.579 136.816 104.019 136.816H103.571V135.76H104.019C104.675 135.76 105.395 135.392 105.635 134.8H106.787V146ZM113.011 146.16C109.699 146.16 108.755 143.584 108.755 140.416C108.755 137.264 109.699 134.64 113.011 134.64C116.339 134.64 117.283 137.264 117.283 140.416C117.283 143.584 116.339 146.16 113.011 146.16ZM113.011 145.104C115.395 145.104 116.051 142.96 116.051 140.416C116.051 137.904 115.395 135.696 113.011 135.696C110.627 135.696 109.987 137.904 109.987 140.416C109.987 142.96 110.643 145.104 113.011 145.104ZM120.548 145.984H120.18L126.836 135.536H127.204L120.548 145.984ZM120.532 140.544C119.348 140.544 118.388 139.568 118.388 138.384C118.388 137.216 119.348 136.256 120.532 136.256C121.716 136.256 122.66 137.216 122.66 138.384C122.66 139.568 121.716 140.544 120.532 140.544ZM120.532 139.984C121.38 139.984 122.1 139.264 122.1 138.384C122.068 137.536 121.38 136.816 120.532 136.816C119.636 136.816 118.964 137.536 118.932 138.384C118.932 139.264 119.636 139.984 120.532 139.984ZM126.628 145.44C125.444 145.44 124.484 144.48 124.484 143.296C124.484 142.128 125.444 141.168 126.628 141.168C127.812 141.168 128.772 142.128 128.772 143.296C128.772 144.48 127.812 145.44 126.628 145.44ZM126.628 144.896C127.476 144.896 128.212 144.176 128.212 143.296C128.164 142.432 127.476 141.712 126.628 141.712C125.732 141.712 125.06 142.432 125.028 143.296C125.028 144.176 125.732 144.896 126.628 144.896ZM134.401 137.6V145.208H137.605V146H133.501V137.6H134.401ZM138.465 138.368V137.42H139.545V138.368H138.465ZM139.461 146H138.561V139.748H139.461V146ZM143.626 146.144C141.742 146.144 140.602 144.632 140.602 142.868C140.602 141.116 141.742 139.604 143.626 139.604C144.718 139.604 145.714 140.264 146.026 141.284V139.748H146.938V148.4H146.026V144.44C145.714 145.46 144.718 146.144 143.626 146.144ZM143.746 140.396C142.474 140.396 141.514 141.392 141.514 142.868C141.514 144.344 142.474 145.352 143.746 145.352C145.042 145.352 146.002 144.344 146.002 142.868C146.002 141.392 145.042 140.396 143.746 140.396ZM152.833 139.748H153.745V146H152.833V144.92C152.641 145.424 151.621 146.144 150.625 146.144C149.041 146.144 148.261 145.124 148.261 143.564V139.748H149.161V143.42C149.149 144.692 149.833 145.352 150.841 145.352C151.909 145.352 152.833 144.536 152.833 143.648V139.748ZM155.118 138.368V137.42H156.198V138.368H155.118ZM156.114 146H155.214V139.748H156.114V146ZM160.279 139.604C161.371 139.604 162.367 140.276 162.679 141.308V137.12H163.591V146H162.679V144.452C162.367 145.484 161.371 146.144 160.279 146.144C158.395 146.144 157.255 144.632 157.255 142.868C157.255 141.116 158.395 139.604 160.279 139.604ZM160.399 145.352C161.695 145.352 162.655 144.344 162.655 142.868C162.655 141.392 161.695 140.396 160.399 140.396C159.127 140.396 158.167 141.392 158.167 142.868C158.167 144.344 159.127 145.352 160.399 145.352ZM164.961 138.368V137.42H166.041V138.368H164.961ZM165.957 146H165.057V139.748H165.957V146ZM169.367 145.244H170.603V146.048H169.259C168.347 146.048 167.639 145.508 167.639 144.416V140.54H167.027V139.748H167.639V138.104H168.551V139.748H170.387V140.54H168.551V144.236C168.551 144.98 168.887 145.244 169.367 145.244ZM171.024 148.4V147.584C171.228 147.62 171.42 147.62 171.588 147.596C172.428 147.476 173.004 146.744 173.304 146H173.124L170.82 139.748H171.804L173.676 145.088L175.584 139.748H176.568L174.204 146C173.736 147.26 172.968 148.232 171.696 148.376C171.492 148.4 171.264 148.4 171.024 148.4ZM183.57 146.144C181.938 146.144 180.942 145.364 180.942 144.044C180.942 142.916 182.034 142.004 182.994 141.428C182.394 140.66 181.95 139.904 181.95 139.268C181.95 138.38 182.61 137.456 183.978 137.456C185.274 137.456 186.042 138.284 186.042 139.268C186.042 140.24 185.346 140.672 183.966 141.488C184.626 142.328 185.466 143.216 186.006 143.864C186.282 143.36 186.618 142.64 186.642 142.088H187.362C187.29 142.844 186.954 143.684 186.498 144.404L187.902 146H186.894L185.982 144.908C185.394 145.544 184.638 146.144 183.57 146.144ZM183.606 141.08C184.698 140.396 185.286 140.06 185.286 139.304C185.286 138.668 184.83 138.116 183.978 138.116C183.138 138.116 182.694 138.668 182.694 139.292C182.694 139.748 183.018 140.312 183.606 141.08ZM183.558 145.496C184.374 145.52 185.058 145.016 185.538 144.416C185.094 143.792 184.134 142.82 183.39 141.872C182.61 142.388 181.782 143.216 181.782 144.008C181.782 144.956 182.49 145.46 183.558 145.496ZM193.546 137.6V145.208H196.75V146H192.646V137.6H193.546ZM197.61 138.368V137.42H198.69V138.368H197.61ZM198.606 146H197.706V139.748H198.606V146ZM205.111 144.428C205.111 145.616 204.259 146.144 202.699 146.144C200.983 146.144 199.783 145.328 199.783 144.032H200.695C200.695 144.92 201.523 145.364 202.639 145.364C203.647 145.376 204.223 145.064 204.223 144.356C204.223 143.624 203.083 143.36 201.979 143.108C200.863 142.844 199.951 142.556 199.963 141.332C199.987 140.288 200.935 139.604 202.435 139.604C204.031 139.604 204.943 140.504 204.943 141.74H204.067C204.103 140.984 203.539 140.396 202.483 140.384C201.463 140.384 200.863 140.78 200.863 141.404C200.863 142.196 201.739 142.388 202.747 142.592C203.935 142.82 205.111 143.264 205.111 144.428ZM208.132 145.244H209.368V146.048H208.024C207.112 146.048 206.404 145.508 206.404 144.416V140.54H205.792V139.748H206.404V138.104H207.316V139.748H209.152V140.54H207.316V144.236C207.316 144.98 207.652 145.244 208.132 145.244ZM210.137 138.368V137.42H211.217V138.368H210.137ZM211.133 146H210.233V139.748H211.133V146ZM213.498 146H212.586V139.748H213.498V140.816C213.69 140.324 214.722 139.604 215.706 139.604C217.302 139.604 218.082 140.612 218.082 142.184V146H217.17V142.328C217.182 141.056 216.51 140.396 215.49 140.396C214.422 140.396 213.498 141.212 213.498 142.1V146ZM224.531 148.4H220.223C220.007 148.4 219.947 148.28 220.019 148.076L220.883 145.808C219.803 145.292 219.119 144.164 219.119 142.868C219.119 141.116 220.367 139.604 222.275 139.604C222.659 139.604 223.019 139.676 223.331 139.796C223.955 138.632 225.011 137.6 226.079 137.6V138.392C225.203 138.38 224.495 139.268 224.051 140.168C224.891 140.744 225.431 141.74 225.431 142.868C225.431 144.86 223.811 146.432 221.699 146.048L221.123 147.488C221.099 147.572 221.111 147.608 221.207 147.608H224.531V148.4ZM222.275 145.352C223.559 145.352 224.519 144.344 224.519 142.868C224.519 141.392 223.559 140.396 222.275 140.396C220.991 140.396 220.019 141.392 220.019 142.868C220.019 144.344 220.991 145.352 222.275 145.352ZM231.549 144.428C231.549 145.616 230.697 146.144 229.137 146.144C227.421 146.144 226.221 145.328 226.221 144.032H227.133C227.133 144.92 227.961 145.364 229.077 145.364C230.085 145.376 230.661 145.064 230.661 144.356C230.661 143.624 229.521 143.36 228.417 143.108C227.301 142.844 226.389 142.556 226.401 141.332C226.425 140.288 227.373 139.604 228.873 139.604C230.469 139.604 231.381 140.504 231.381 141.74H230.505C230.541 140.984 229.977 140.396 228.921 140.384C227.901 140.384 227.301 140.78 227.301 141.404C227.301 142.196 228.177 142.388 229.185 142.592C230.373 142.82 231.549 143.264 231.549 144.428Z" fill="white"/>
<path opacity="0.1" d="M236 27.6799C277.202 27.6799 317.478 39.8977 351.736 62.7882C385.994 85.6787 412.695 118.214 428.463 156.279C444.23 194.345 448.355 236.231 440.317 276.641C432.279 317.051 412.439 354.17 383.304 383.304C354.17 412.439 317.051 432.279 276.641 440.317C236.231 448.355 194.345 444.23 156.279 428.463C118.214 412.695 85.6787 385.994 62.7882 351.736C39.8977 317.478 27.6799 277.202 27.6799 236H48.7897C48.7897 273.027 59.7694 309.222 80.3403 340.008C100.911 370.795 130.149 394.79 164.358 408.96C198.566 423.129 236.208 426.837 272.523 419.613C308.838 412.389 342.196 394.559 368.378 368.378C394.559 342.196 412.389 308.838 419.613 272.523C426.837 236.208 423.129 198.566 408.96 164.358C394.79 130.149 370.795 100.911 340.008 80.3403C309.222 59.7694 273.027 48.7897 236 48.7897V27.6799Z" fill="#8979FF"/>
<path d="M236 27.6799C275.213 27.6799 313.63 38.7477 346.833 59.6103C380.036 80.473 406.676 110.283 423.69 145.613C440.704 180.943 447.401 220.358 443.01 259.324C438.62 298.291 423.32 335.227 398.871 365.885C374.422 396.543 341.816 419.678 304.804 432.63C267.791 445.581 227.874 447.823 189.644 439.097C151.414 430.371 116.423 411.032 88.6954 383.304C60.9675 355.577 41.6287 320.586 32.9029 282.355L53.4834 277.658C61.325 312.014 78.7041 343.459 103.622 368.378C128.54 393.296 159.986 410.675 194.342 418.516C228.698 426.358 264.57 424.343 297.832 412.705C331.094 401.066 360.395 380.275 382.367 352.724C404.338 325.172 418.087 291.979 422.033 256.961C425.979 221.943 419.96 186.522 404.671 154.772C389.381 123.023 365.44 96.2331 335.602 77.4845C305.764 58.7359 271.24 48.7897 236 48.7897V27.6799Z" fill="#00FF99"/>
<path opacity="0.1" d="M236 54.0671C271.983 54.0671 307.158 64.7373 337.076 84.7283C366.995 104.719 390.314 133.133 404.084 166.377C417.854 199.621 421.457 236.202 414.437 271.493C407.417 306.785 390.09 339.202 364.646 364.646C339.202 390.09 306.785 407.417 271.493 414.437C236.202 421.457 199.621 417.854 166.377 404.084C133.133 390.314 104.719 366.995 84.7283 337.076C64.7373 307.158 54.0671 271.983 54.0671 236H75.1769C75.1769 267.808 84.609 298.901 102.28 325.348C119.952 351.796 145.069 372.409 174.456 384.581C203.842 396.753 236.178 399.938 267.375 393.733C298.572 387.527 327.228 372.211 349.719 349.719C372.211 327.228 387.527 298.572 393.733 267.375C399.938 236.178 396.753 203.842 384.581 174.456C372.409 145.069 351.796 119.952 325.348 102.28C298.901 84.609 267.808 75.1769 236 75.1769L236 54.0671Z" fill="white"/>
<path d="M236 54.0671C270.246 54.0671 303.797 63.733 332.794 81.953C361.791 100.173 385.057 126.207 399.916 157.062C414.775 187.917 420.623 222.339 416.789 256.37C412.954 290.401 399.593 322.658 378.241 349.433L361.736 336.271C380.611 312.603 392.422 284.089 395.812 254.006C399.201 223.924 394.031 193.496 380.896 166.221C367.762 138.947 347.195 115.933 321.563 99.8272C295.93 83.7212 266.273 75.1769 236 75.1769L236 54.0671Z" fill="white"/>
<path opacity="0.1" d="M236 80.4543C266.764 80.4543 296.837 89.5769 322.416 106.669C347.996 123.76 367.932 148.053 379.705 176.475C391.478 204.897 394.559 236.172 388.557 266.345C382.555 296.518 367.741 324.234 345.987 345.987C324.234 367.741 296.518 382.555 266.345 388.557C236.172 394.559 204.897 391.478 176.475 379.705C148.053 367.932 123.76 347.996 106.668 322.416C89.5769 296.837 80.4543 266.764 80.4543 236H101.564C101.564 262.589 109.449 288.581 124.221 310.688C138.993 332.796 159.989 350.027 184.554 360.202C209.118 370.378 236.149 373.04 262.227 367.853C288.305 362.665 312.259 349.862 331.06 331.06C349.862 312.259 362.665 288.305 367.853 262.227C373.04 236.149 370.378 209.119 360.202 184.554C350.027 159.989 332.796 138.993 310.688 124.221C288.581 109.449 262.589 101.564 236 101.564V80.4543Z" fill="#00FF99"/>
<path d="M236 80.4543C257.896 80.4543 279.545 85.0772 299.532 94.0205C319.518 102.964 337.391 116.026 351.981 132.353C366.572 148.679 377.551 167.902 384.2 188.764C390.849 209.626 393.019 231.657 390.568 253.416L369.59 251.052C371.709 232.247 369.834 213.206 364.087 195.175C358.34 177.144 348.851 160.53 336.241 146.419C323.631 132.308 308.183 121.019 290.909 113.289C273.636 105.56 254.924 101.564 236 101.564V80.4543Z" fill="#00FF99"/>
<path opacity="0.1" d="M236 106.842C261.545 106.842 286.517 114.417 307.757 128.609C328.997 142.801 345.551 162.973 355.327 186.573C365.102 210.174 367.66 236.143 362.677 261.198C357.693 286.252 345.392 309.266 327.329 327.329C309.266 345.392 286.252 357.693 261.198 362.677C236.143 367.66 210.174 365.102 186.573 355.327C162.973 345.551 142.801 328.997 128.609 307.757C114.417 286.517 106.842 261.545 106.842 236H127.951C127.951 257.37 134.288 278.26 146.161 296.029C158.033 313.797 174.908 327.646 194.652 335.824C214.395 344.002 236.12 346.142 257.079 341.972C278.039 337.803 297.291 327.513 312.402 312.402C327.513 297.291 337.803 278.039 341.972 257.079C346.142 236.12 344.002 214.395 335.824 194.652C327.646 174.908 313.797 158.033 296.029 146.161C278.26 134.288 257.37 127.951 236 127.951V106.842Z" fill="#F4F4F4"/>
<path d="M236 106.842C254.181 106.842 272.158 110.68 288.754 118.106C305.35 125.532 320.191 136.379 332.306 149.936C344.421 163.493 353.538 179.455 359.059 196.778C364.58 214.1 366.382 232.394 364.346 250.461L343.369 248.098C345.072 232.983 343.565 217.68 338.946 203.188C334.327 188.696 326.701 175.343 316.566 164.002C306.43 152.661 294.015 143.587 280.132 137.375C266.248 131.163 251.21 127.951 236 127.951V106.842Z" fill="#F4F4F4"/>
<path opacity="0.1" d="M236 133.229C256.326 133.229 276.196 139.256 293.097 150.549C309.997 161.841 323.17 177.892 330.948 196.671C338.727 215.45 340.762 236.114 336.796 256.05C332.831 275.985 323.043 294.297 308.67 308.67C294.297 323.043 275.985 332.831 256.05 336.796C236.114 340.762 215.45 338.727 196.671 330.948C177.892 323.17 161.841 309.997 150.549 293.097C139.256 276.196 133.229 256.326 133.229 236H154.339C154.339 252.151 159.128 267.939 168.101 281.369C177.074 294.798 189.828 305.265 204.749 311.445C219.671 317.626 236.091 319.243 251.931 316.092C267.772 312.941 282.323 305.164 293.743 293.743C305.164 282.323 312.941 267.772 316.092 251.931C319.243 236.091 317.626 219.671 311.445 204.749C305.265 189.828 294.798 177.074 281.369 168.101C267.939 159.128 252.151 154.339 236 154.339L236 133.229Z" fill="#00FF99"/>
<path d="M236 133.229C255.345 133.229 274.298 138.689 290.678 148.981C307.058 159.273 320.2 173.98 328.594 191.409L309.574 200.568C302.905 186.719 292.462 175.033 279.446 166.855C266.431 158.677 251.372 154.339 236 154.339L236 133.229Z" fill="#00FF99"/>
<path opacity="0.1" d="M236 159.616C251.107 159.616 265.875 164.096 278.437 172.489C290.998 180.882 300.788 192.812 306.57 206.769C312.351 220.726 313.864 236.085 310.916 250.902C307.969 265.719 300.694 279.329 290.012 290.012C279.329 300.694 265.719 307.969 250.902 310.916C236.085 313.864 220.726 312.351 206.769 306.57C192.812 300.788 180.882 290.998 172.489 278.437C164.096 265.875 159.616 251.107 159.616 236H180.726C180.726 246.932 183.968 257.619 190.041 266.709C196.115 275.798 204.747 282.883 214.847 287.067C224.947 291.25 236.061 292.345 246.783 290.212C257.506 288.079 267.355 282.815 275.085 275.085C282.815 267.355 288.079 257.506 290.212 246.783C292.345 236.061 291.25 224.947 287.067 214.847C282.883 204.747 275.798 196.115 266.709 190.041C257.619 183.968 246.932 180.726 236 180.726V159.616Z" fill="#F4F4F4"/>
</svg>
