<svg width="38" height="38" viewBox="0 0 38 38" fill="none" xmlns="http://www.w3.org/2000/svg">
<path d="M2.35538 24.7325C1.43527 23.7201 0.948253 22.3668 1.00434 20.9783C1.01121 20.6085 1.05254 20.2404 1.12775 19.8789C1.61573 17.3917 3.70615 15.5878 6.15849 15.5376H6.21137C6.94186 11.2277 10.5174 8.05487 14.7455 7.96453H14.8946C18.0738 7.97522 20.9995 9.7615 22.5456 12.6357C24.1397 12.714 25.6467 13.4116 26.7654 14.5891C28.0176 15.8968 28.7296 17.6568 28.7511 19.4975L28.7511 19.5655C28.7084 20.8581 28.3375 22.1163 27.6757 23.2135M11.5546 19.6053C9.34924 19.6551 7.59767 21.5401 7.63613 23.8221V25.9297C7.59767 28.2118 9.34924 30.0967 11.5546 30.1466M24.4512 29.79C24.4324 28.7768 25.2108 27.9395 26.1901 27.9196C27.1691 27.9395 27.947 28.7771 27.9274 29.79C27.9275 30.3896 27.7366 30.9724 27.3841 31.4483L24.4512 35.3948H27.9274M37 5.25666L33.5687 1L30.1374 5.25666M33.5799 1V37M18.1367 19.6053C16.7168 19.6343 15.5875 20.8472 15.6125 22.3164V27.4221C15.572 28.3827 16.0442 29.2888 16.8421 29.7816C17.6401 30.2744 18.635 30.2744 19.4329 29.7816C20.2308 29.2888 20.703 28.3827 20.6625 27.4221V22.3164C20.6866 20.8469 19.5569 19.6343 18.1367 19.6053Z" stroke="white" stroke-width="2" stroke-linecap="round" stroke-linejoin="round"/>
</svg>
