<svg width="38" height="38" viewBox="0 0 38 38" fill="none" xmlns="http://www.w3.org/2000/svg">
<path d="M22.1304 5.69565H27.6087C31.0665 5.69565 33.8696 8.49874 33.8696 11.9565V16.6522M22.1304 5.69565L25.2609 8.82609M22.1304 5.69565L25.2609 2.56522M15.087 32.3043H10.3913C6.93352 32.3043 4.13043 29.5013 4.13043 26.0435V21.3478M15.087 32.3043L11.9565 29.1739M15.087 32.3043L11.9565 35.4348M27.6087 32.3043V26.0435C27.6087 25.179 28.3095 24.4783 29.1739 24.4783H30.7391M27.6087 29.1739H29.9565M11.9565 7.26087C10.2276 7.26087 8.82609 8.66241 8.82609 10.3913V11.9565C8.82609 13.6854 10.2276 15.087 11.9565 15.087M24.4783 23.3043C24.6944 23.3043 24.8696 23.4795 24.8696 23.6957C24.8696 23.9118 24.6944 24.087 24.4783 24.087C24.2621 24.087 24.087 23.9118 24.087 23.6957C24.087 23.4795 24.2621 23.3043 24.4783 23.3043ZM6.47826 6.86956C6.69437 6.86956 6.86957 7.04476 6.86957 7.26087C6.86957 7.47698 6.69437 7.65217 6.47826 7.65217C6.26215 7.65217 6.08696 7.47698 6.08696 7.26087C6.08696 7.04476 6.26215 6.86956 6.47826 6.86956ZM1 10.3913C1 15.578 5.20463 19.7826 10.3913 19.7826C15.578 19.7826 19.7826 15.578 19.7826 10.3913C19.7826 5.20463 15.578 1 10.3913 1C5.20463 1 1 5.20463 1 10.3913ZM18.2174 27.6087C18.2174 32.7954 22.422 37 27.6087 37C32.7954 37 37 32.7954 37 27.6087C37 22.422 32.7954 18.2174 27.6087 18.2174C22.422 18.2174 18.2174 22.422 18.2174 27.6087Z" stroke="white" stroke-width="2" stroke-linecap="round" stroke-linejoin="round"/>
</svg>
