<svg width="38" height="38" viewBox="0 0 38 38" fill="none" xmlns="http://www.w3.org/2000/svg">
<path d="M9.8 19.08H14.6M23.4 19.08H28.2M23.4 5.48008H28.2M32.6798 9.8V14.6M5.47989 23.4V28.2M9.8 32.68H14.6M9.8 21.8C9.8 22.76 9.16 23.4 8.2 23.4H2.6C1.64 23.4 1 22.76 1 21.8V16.2C1 15.24 1.64 14.6 2.6 14.6H8.2C9.16 14.6 9.8 15.24 9.8 16.2V21.8ZM9.8 35.4C9.8 36.36 9.16 37 8.2 37H2.6C1.64 37 1 36.36 1 35.4V29.8C1 28.84 1.64 28.2 2.6 28.2H8.2C9.16 28.2 9.8 28.84 9.8 29.8V35.4ZM23.4 35.4C23.4 36.36 22.76 37 21.8 37H16.2C15.24 37 14.6 36.36 14.6 35.4V29.8C14.6 28.84 15.24 28.2 16.2 28.2H21.8C22.76 28.2 23.4 28.84 23.4 29.8V35.4ZM37 8.2C37 9.16 36.36 9.8 35.4 9.8H29.8C28.84 9.8 28.2 9.16 28.2 8.2V2.6C28.2 1.64 28.84 1 29.8 1H35.4C36.36 1 37 1.64 37 2.6V8.2ZM23.4 8.2C23.4 9.16 22.76 9.8 21.8 9.8H16.2C15.24 9.8 14.6 9.16 14.6 8.2V2.6C14.6 1.64 15.24 1 16.2 1H21.8C22.76 1 23.4 1.64 23.4 2.6V8.2ZM23.4 21.8C23.4 22.76 22.76 23.4 21.8 23.4H16.2C15.24 23.4 14.6 22.76 14.6 21.8V16.2C14.6 15.24 15.24 14.6 16.2 14.6H21.8C22.76 14.6 23.4 15.24 23.4 16.2V21.8ZM37 21.8C37 22.76 36.36 23.4 35.4 23.4H29.8C28.84 23.4 28.2 22.76 28.2 21.8V16.2C28.2 15.24 28.84 14.6 29.8 14.6H35.4C36.36 14.6 37 15.24 37 16.2V21.8Z" stroke="white" stroke-width="2" stroke-linecap="round" stroke-linejoin="round"/>
</svg>
