<svg width="38" height="38" viewBox="0 0 38 38" fill="none" xmlns="http://www.w3.org/2000/svg">
<path d="M11.523 14.3462L10.6133 15.2367L12.1818 18.6894C12.3126 19.0149 12.2235 19.3873 11.9593 19.6189C11.695 19.8505 11.3129 19.8913 11.0055 19.7206L7.30392 17.6583L3.64944 19.705C3.34366 19.8859 2.95542 19.8486 2.68998 19.6128C2.42455 19.377 2.34313 18.997 2.48879 18.6738L4.05723 15.2211L1.2654 12.5651C1.01868 12.3522 0.93386 12.0073 1.05386 11.705C1.17387 11.4026 1.47252 11.2088 1.79867 11.2215H4.93556L6.50401 7.75311C6.64721 7.47941 6.93134 7.30776 7.24118 7.30776C7.55102 7.30776 7.83515 7.47941 7.97835 7.75311L9.64091 11.2215H11.2094M26.5801 14.3462L27.4898 15.2367L25.9214 18.6894C25.7905 19.0149 25.8797 19.3873 26.1439 19.6189C26.4082 19.8505 26.7902 19.8913 27.0977 19.7206L30.7365 17.6739L34.391 19.7206C34.6968 19.9015 35.085 19.8643 35.3505 19.6284C35.6159 19.3926 35.6973 19.0127 35.5517 18.6894L33.9832 15.2367L36.7123 12.5807C36.9563 12.3857 37.0574 12.0629 36.9678 11.7644C36.8782 11.4658 36.6159 11.2511 36.3045 11.2215H33.1676L31.5992 7.75311C31.456 7.47941 31.1719 7.30776 30.862 7.30776C30.5522 7.30776 30.268 7.47941 30.1248 7.75311L28.4623 11.2215H26.8938M8.85668 26.8448V33.0942M11.9936 29.9695H5.71979M19.7731 1.5194L21.3415 4.97216H24.4784C24.8075 4.95218 25.1127 5.14352 25.237 5.44771C25.3613 5.75189 25.2769 6.10115 25.0274 6.31576L22.3453 8.98735L23.9138 12.4245C24.0594 12.7477 23.978 13.1277 23.7126 13.3635C23.4471 13.5993 23.0589 13.6366 22.7531 13.4556L19.0516 11.409L15.3971 13.4556C15.0896 13.6263 14.7076 13.5856 14.4433 13.3539C14.1791 13.1223 14.0899 12.75 14.2208 12.4245L15.7892 8.98735L13.0131 6.31576C12.7664 6.10289 12.6815 5.75801 12.8015 5.45565C12.9215 5.15329 13.2202 4.95943 13.5463 4.97216H16.6832L18.2517 1.5194C18.3732 1.20637 18.6755 1 19.0124 1C19.3493 1 19.6516 1.20637 19.7731 1.5194ZM28.0702 26.4542C28.2867 26.4542 28.4623 26.6291 28.4623 26.8448C28.4623 27.0605 28.2867 27.2354 28.0702 27.2354C27.8536 27.2354 27.6781 27.0605 27.6781 26.8448C27.6781 26.6291 27.8536 26.4542 28.0702 26.4542ZM24.9333 29.5789C25.1498 29.5789 25.3254 29.7538 25.3254 29.9695C25.3254 30.1852 25.1498 30.3601 24.9333 30.3601C24.7167 30.3601 24.5412 30.1852 24.5412 29.9695C24.5412 29.7538 24.7167 29.5789 24.9333 29.5789ZM28.0702 32.7036C28.2867 32.7036 28.4623 32.8785 28.4623 33.0942C28.4623 33.3099 28.2867 33.4847 28.0702 33.4847C27.8536 33.4847 27.6781 33.3099 27.6781 33.0942C27.6781 32.8785 27.8536 32.7036 28.0702 32.7036ZM31.2071 29.5789C31.4236 29.5789 31.5992 29.7538 31.5992 29.9695C31.5992 30.1852 31.4236 30.3601 31.2071 30.3601C30.9905 30.3601 30.815 30.1852 30.815 29.9695C30.815 29.7538 30.9905 29.5789 31.2071 29.5789ZM4.15134 22.939H33.9519C33.9519 22.939 35.5203 22.939 35.5203 24.5013V35.4377C35.5203 35.4377 35.5203 37 33.9519 37H4.15134C4.15134 37 2.58289 37 2.58289 35.4377V24.5013C2.58289 24.5013 2.58289 22.939 4.15134 22.939Z" stroke="white" stroke-width="2" stroke-linecap="round" stroke-linejoin="round"/>
</svg>
