<svg width="36" height="35" viewBox="0 0 36 35" fill="none" xmlns="http://www.w3.org/2000/svg">
<path d="M28.5597 8.42072L34.0987 12.445C34.6245 12.827 34.8444 13.5041 34.6435 14.1222L28.7772 32.1771C28.5763 32.795 28.0005 33.2136 27.3505 33.2136H8.36651C7.71668 33.2136 7.14074 32.795 6.93992 32.1771L1.07352 14.1222C0.872706 13.5041 1.09269 12.827 1.61843 12.445L16.9768 1.28647C17.5026 0.90451 18.2145 0.90451 18.7402 1.28647L24.2793 5.31079L25.3722 6.1274M21.016 6.69277L25.3903 6.1496L24.8472 1.77529M16.9762 9.72984C17.5018 9.34786 18.2137 9.34786 18.7395 9.72984L26.0679 15.0543C26.5936 15.4361 26.8135 16.1133 26.6128 16.7313L23.8135 25.3462C23.6128 25.9642 23.0368 26.3827 22.387 26.3827H13.3287C12.6788 26.3827 12.1029 25.9642 11.9021 25.3462L9.10292 16.7313C8.90211 16.1133 9.1221 15.4361 9.64782 15.0543L16.9762 9.72984Z" stroke="#00FF99" stroke-width="2" stroke-linecap="round" stroke-linejoin="round"/>
</svg>
