<svg width="37" height="37" viewBox="0 0 37 37" fill="none" xmlns="http://www.w3.org/2000/svg">
<path d="M12.3045 26.5095C13.2665 22.6432 15.9963 19.4575 19.6695 17.9145M30.1845 11.0745C29.8691 11.8018 29.8691 12.6273 30.1845 13.3545C30.5085 14.0631 31.1112 14.606 31.8495 14.8545L33.7395 15.5295C34.8608 15.9309 35.6091 16.9935 35.6091 18.1845C35.6091 19.3755 34.8608 20.4381 33.7395 20.8395L31.8045 21.5895C31.0662 21.8381 30.4635 22.381 30.1395 23.0895C29.8241 23.8168 29.8241 24.6423 30.1395 25.3695L31.0545 27.2595C31.5583 28.3348 31.3345 29.6103 30.4949 30.4499C29.6553 31.2895 28.3798 31.5133 27.3045 31.0095L25.4895 30.1395C24.7623 29.8241 23.9368 29.8241 23.2095 30.1395C22.501 30.4635 21.9581 31.0662 21.7095 31.8045L21.0345 33.6945C20.6331 34.8158 19.5705 35.5641 18.3795 35.5641C17.1885 35.5641 16.1259 34.8158 15.7245 33.6945L14.9745 31.7595C14.726 31.0212 14.1831 30.4185 13.4745 30.0945C12.7473 29.7791 11.9218 29.7791 11.1945 30.0945L9.30454 31.0095C8.22931 31.5133 6.95375 31.2895 6.11415 30.4499C5.27456 29.6103 5.05081 28.3348 5.55454 27.2595L6.42454 25.4445C6.73997 24.7173 6.73997 23.8918 6.42454 23.1645C6.10057 22.456 5.49791 21.9131 4.75954 21.6645L2.86954 20.9895C1.74823 20.5881 1 19.5255 1 18.3345C1 17.1435 1.74823 16.0809 2.86954 15.6795L4.80454 14.9295C5.54291 14.681 6.14557 14.1381 6.46954 13.4295C6.78497 12.7023 6.78497 11.8768 6.46954 11.1495L5.55454 9.25954C5.05081 8.18431 5.27456 6.90875 6.11415 6.06915C6.95375 5.22956 8.22931 5.00581 9.30454 5.50954L11.1195 6.37954C11.8468 6.69497 12.6723 6.69497 13.3995 6.37954C14.1274 6.08265 14.6983 5.49545 14.9745 4.75954L15.6495 2.86954C16.0509 1.74823 17.1135 1 18.3045 1C19.4955 1 20.5581 1.74823 20.9595 2.86954L21.6345 4.75954C21.8831 5.49791 22.426 6.10057 23.1345 6.42454C23.8618 6.73997 24.6873 6.73997 25.4145 6.42454L27.3045 5.50954C28.3798 5.00581 29.6553 5.22956 30.4949 6.06915C31.3345 6.90875 31.5583 8.18431 31.0545 9.25954L30.1845 11.0745ZM25.8045 11.1645C25.8045 11.1645 25.8045 24.6645 17.8245 24.6645C14.7763 24.6639 12.3056 22.1927 12.3056 19.1445C12.3056 16.0963 14.7763 13.6251 17.8245 13.6245C20.631 13.3904 23.3534 12.5511 25.8045 11.1645Z" stroke="#00FF99" stroke-width="2" stroke-linecap="round" stroke-linejoin="round"/>
</svg>
