<svg width="37" height="34" viewBox="0 0 37 34" fill="none" xmlns="http://www.w3.org/2000/svg">
<path fill-rule="evenodd" clip-rule="evenodd" d="M31.204 5.86253C27.6569 2.66113 23.0275 0.924309 18.25 1.00253C8.7235 1.00253 1 7.40603 1 15.3125C1.0824 19.3382 2.99589 23.1067 6.1975 25.5485C6.29701 25.6288 6.3485 25.7545 6.334 25.8815L5.65 32.093C5.63393 32.2394 5.70503 32.3817 5.83177 32.4567C5.9585 32.5317 6.11741 32.5256 6.238 32.441C6.238 32.441 10.7845 29.3315 11.629 28.691C11.719 28.6221 11.8355 28.5979 11.9455 28.625C14.0119 29.1518 16.1222 29.4877 18.25 29.6285C27.7765 29.6285 35.5 23.219 35.5 15.3125C35.4932 13.1136 34.897 10.9568 33.7735 9.06653C33.6695 8.88959 33.4976 8.76298 33.2978 8.71621C33.098 8.66945 32.8877 8.70661 32.716 8.81903L13.1695 21.6035C13.1004 21.6486 13.0158 21.6633 12.9355 21.644C12.8556 21.6244 12.7873 21.5729 12.7465 21.5015L7.5115 12.431C7.44549 12.3144 7.46483 12.1681 7.55889 12.0727C7.65295 11.9772 7.79892 11.9557 7.9165 12.02L14.269 15.5525C14.3618 15.6061 14.4762 15.6061 14.569 15.5525L31.204 5.86253Z" stroke="#00FF99" stroke-width="2" stroke-linecap="round" stroke-linejoin="round"/>
</svg>
