<svg width="37" height="37" viewBox="0 0 37 37" fill="none" xmlns="http://www.w3.org/2000/svg">
<path d="M14.827 11.3635V25.135M21.7135 11.3635V25.135M25.156 14.8075H11.3845M25.156 21.6925H11.3845M6.565 18.25C6.565 24.715 11.806 29.956 18.271 29.956C24.736 29.956 29.977 24.715 29.977 18.25C29.977 11.785 24.736 6.544 18.271 6.544C11.806 6.544 6.565 11.785 6.565 18.25ZM32.8315 18.25L35.5 13.6285L30.8785 10.9585V5.623H25.54L22.8715 1L18.25 3.6685L13.627 1L10.96 5.623H5.6215V10.9585L1 13.6285L3.6685 18.25L1 22.8715L5.6215 25.54V30.877H10.96L13.627 35.5L18.25 32.8315L22.8715 35.5L25.54 30.877H30.8785V25.54L35.5 22.8715L32.8315 18.25Z" stroke="#00FF99" stroke-width="2" stroke-linecap="round" stroke-linejoin="round"/>
</svg>
