<svg width="35" height="36" viewBox="0 0 35 36" fill="none" xmlns="http://www.w3.org/2000/svg">
<path d="M32.4104 34.4037C32.4104 34.2584 32.4104 33.6768 32.5557 33.5313L33.2826 32.223C33.5733 31.7868 33.7188 31.2053 33.7188 30.6237V21.4644C33.7188 20.156 29.5026 18.2661 25.4319 19.1384C24.8504 19.1384 24.2688 19.7199 24.2688 20.3015V26.1168L23.8326 27.1346L22.088 25.9713C21.5064 25.5353 20.6342 25.6806 20.198 26.2622C19.7619 26.6984 19.7619 27.4253 20.198 28.0068C21.0704 29.3153 22.8149 31.6413 23.5418 32.0775L24.9957 33.0953C25.2864 33.386 25.5773 33.6768 25.5773 34.113V34.4037M19.4453 18.8477C20.3175 14.6315 19.0091 12.5962 13.4845 12.5962C12.1761 12.5962 10.1407 13.6138 8.54145 18.1208C8.10529 19.1385 7.23297 20.0108 6.0699 20.3015C3.45298 20.7377 1.70838 23.0639 1.12683 26.117C0.39991 29.897 2.87148 33.677 6.65148 34.4039M15.9654 29.5335C14.2208 27.7889 14.2208 25.0266 15.9654 23.4275M12.6215 32.6594C9.27763 29.3154 9.27763 23.7909 12.6215 20.3016M13.0615 11.5C15.9611 11.5 18.3116 9.1495 18.3116 6.25C18.3116 3.3505 15.9611 1 13.0615 1C10.162 1 7.81155 3.3505 7.81155 6.25C7.81155 9.1495 10.162 11.5 13.0615 11.5Z" stroke="#00FF99" stroke-width="2" stroke-linecap="round" stroke-linejoin="round"/>
</svg>
